<svg width="20" height="20" viewBox="0 0 20 20" fill="none" xmlns="http://www.w3.org/2000/svg">
<rect width="20" height="20" fill="white" fill-opacity="0.01"/>
<path d="M11.125 1.49805C11.0462 1.39302 10.9364 1.31547 10.8111 1.27638C10.6857 1.2373 10.5513 1.23868 10.4268 1.28032C10.3023 1.32196 10.194 1.40175 10.1174 1.50836C10.0408 1.61498 9.99974 1.74302 10 1.8743V4.3743C10 4.54006 10.0658 4.69903 10.1831 4.81624C10.3003 4.93345 10.4592 4.9993 10.625 4.9993C10.7908 4.9993 10.9497 4.93345 11.0669 4.81624C11.1842 4.69903 11.25 4.54006 11.25 4.3743V3.7393L12.0125 4.7518C12.0954 4.86136 12.212 4.94057 12.3444 4.97717C12.4768 5.01378 12.6176 5.00574 12.745 4.9543L14.605 4.2068L13.7825 6.6768C13.7512 6.77071 13.7427 6.8707 13.7576 6.96855C13.7725 7.0664 13.8105 7.1593 13.8684 7.23961C13.9262 7.31992 14.0023 7.38535 14.0904 7.43049C14.1785 7.47564 14.276 7.49922 14.375 7.4993H16.3462L14.615 8.8868C14.542 8.94536 14.4831 9.01957 14.4426 9.10395C14.4021 9.18832 14.3811 9.28071 14.3811 9.3743C14.3811 9.46788 14.4021 9.56027 14.4426 9.64465C14.4831 9.72903 14.542 9.80324 14.615 9.8618L16.3462 11.2493H14.375C14.2092 11.2493 14.0503 11.3151 13.9331 11.4324C13.8158 11.5496 13.75 11.7085 13.75 11.8743C13.75 12.0401 13.8158 12.199 13.9331 12.3162C14.0503 12.4335 14.2092 12.4993 14.375 12.4993H18.125C18.2544 12.4993 18.3807 12.4592 18.4863 12.3843C18.592 12.3095 18.6718 12.2038 18.7147 12.0817C18.7577 11.9595 18.7617 11.8271 18.7261 11.7026C18.6905 11.5782 18.6172 11.4678 18.5162 11.3868L16.005 9.3743L18.5162 7.3618C18.6172 7.28079 18.6905 7.17043 18.7261 7.04597C18.7617 6.9215 18.7577 6.78906 18.7147 6.66694C18.6718 6.54483 18.592 6.43906 18.4863 6.36425C18.3807 6.28944 18.2544 6.24927 18.125 6.2493H15.2425L16.2175 3.3218C16.2551 3.20875 16.2595 3.08733 16.2304 2.97182C16.2013 2.85632 16.1397 2.75154 16.053 2.66984C15.9664 2.58814 15.8581 2.53292 15.7411 2.51068C15.6241 2.48843 15.5031 2.5001 15.3925 2.5443L12.7225 3.6168L11.125 1.49805ZM9.375 13.7493C9.54076 13.7493 9.69973 13.6835 9.81694 13.5662C9.93415 13.449 10 13.2901 10 13.1243C10 12.9585 9.93415 12.7996 9.81694 12.6824C9.69973 12.5651 9.54076 12.4993 9.375 12.4993C9.20924 12.4993 9.05027 12.5651 8.93306 12.6824C8.81585 12.7996 8.75 12.9585 8.75 13.1243C8.75 13.2901 8.81585 13.449 8.93306 13.5662C9.05027 13.6835 9.20924 13.7493 9.375 13.7493ZM5 13.1243C5 13.2901 4.93415 13.449 4.81694 13.5662C4.69973 13.6835 4.54076 13.7493 4.375 13.7493C4.20924 13.7493 4.05027 13.6835 3.93306 13.5662C3.81585 13.449 3.75 13.2901 3.75 13.1243C3.75 12.9585 3.81585 12.7996 3.93306 12.6824C4.05027 12.5651 4.20924 12.4993 4.375 12.4993C4.54076 12.4993 4.69973 12.5651 4.81694 12.6824C4.93415 12.7996 5 12.9585 5 13.1243ZM11.7025 9.9993L11.815 10.7793C12.24 11.2268 12.5 11.833 12.5 12.4993V16.2493C12.5 16.5808 12.3683 16.8988 12.1339 17.1332C11.8995 17.3676 11.5815 17.4993 11.25 17.4993C10.9185 17.4993 10.6005 17.3676 10.3661 17.1332C10.1317 16.8988 10 16.5808 10 16.2493H3.75C3.75 16.5808 3.6183 16.8988 3.38388 17.1332C3.14946 17.3676 2.83152 17.4993 2.5 17.4993C2.16848 17.4993 1.85054 17.3676 1.61612 17.1332C1.3817 16.8988 1.25 16.5808 1.25 16.2493V12.4993C1.25 11.833 1.51125 11.2268 1.93625 10.7793L2.0475 9.9993H1.25C1.08424 9.9993 0.925268 9.93345 0.808058 9.81624C0.690848 9.69903 0.625 9.54006 0.625 9.3743C0.625 9.20854 0.690848 9.04957 0.808058 8.93236C0.925268 8.81515 1.08424 8.7493 1.25 8.7493H2.225L2.3525 7.8593C2.4163 7.41245 2.63915 7.00361 2.98014 6.70785C3.32113 6.4121 3.75737 6.24928 4.20875 6.2493H9.54125C9.99263 6.24928 10.4289 6.4121 10.7699 6.70785C11.1109 7.00361 11.3337 7.41245 11.3975 7.8593L11.5237 8.7493H12.5C12.6658 8.7493 12.8247 8.81515 12.9419 8.93236C13.0592 9.04957 13.125 9.20854 13.125 9.3743C13.125 9.54006 13.0592 9.69903 12.9419 9.81624C12.8247 9.93345 12.6658 9.9993 12.5 9.9993H11.7025ZM3.59 8.0368L3.30375 10.0393C3.44875 10.0126 3.5975 9.9993 3.75 9.9993H10C10.1517 9.9993 10.3004 10.0126 10.4462 10.0393L10.1587 8.03555C10.1375 7.8871 10.0635 7.75126 9.95036 7.65281C9.83723 7.55436 9.69247 7.49988 9.5425 7.4993H4.20875C4.05816 7.49932 3.91265 7.55371 3.79897 7.65247C3.68529 7.75122 3.61108 7.8877 3.59 8.0368ZM11.25 12.4993C11.25 12.1678 11.1183 11.8498 10.8839 11.6154C10.6495 11.381 10.3315 11.2493 10 11.2493H3.75C3.41848 11.2493 3.10054 11.381 2.86612 11.6154C2.6317 11.8498 2.5 12.1678 2.5 12.4993V14.9993H11.25V12.4993Z" fill="#FAFBFC"/>
</svg>
