<svg width="8" height="5" viewBox="0 0 8 5" fill="none" xmlns="http://www.w3.org/2000/svg">
<path fill-rule="evenodd" clip-rule="evenodd" d="M6.30183 0.29429C6.39374 0.201076 6.50327 0.127058 6.62404 0.0765371C6.74481 0.0260161 6.87441 -4.92009e-08 7.00533 -4.34786e-08C7.13624 -3.77563e-08 7.26584 0.0260161 7.38661 0.0765371C7.50738 0.127058 7.61691 0.201076 7.70883 0.294291C7.89539 0.483309 8 0.738206 8 1.00379C8 1.26938 7.89539 1.52427 7.70883 1.71329L4.76883 4.67829C4.66749 4.78049 4.54692 4.8616 4.41408 4.91696C4.28123 4.97231 4.13874 5.00081 3.99483 5.00081C3.85091 5.00081 3.70842 4.97231 3.57557 4.91696C3.44273 4.8616 3.32216 4.78049 3.22082 4.67829L0.290826 1.72329C0.103957 1.53423 -0.000844058 1.27912 -0.000844046 1.01329C-0.000844034 0.747462 0.103957 0.492353 0.290826 0.303291C0.382743 0.210076 0.492268 0.136058 0.613038 0.0855366C0.733808 0.0350156 0.863414 0.00899951 0.994326 0.00899952C1.12524 0.00899952 1.25484 0.0350156 1.37561 0.0855367C1.49638 0.136058 1.60591 0.210076 1.69783 0.303291L3.99483 2.62129L6.30183 0.29429Z" fill="#FAFBFC"/>
</svg>
