<svg width="18" height="18" viewBox="0 0 18 18" fill="none" xmlns="http://www.w3.org/2000/svg">
<path d="M15.8757 12.8394V5.16191C16.3022 5.05261 16.6921 4.83241 17.006 4.52365C17.3199 4.21489 17.5464 3.82858 17.6627 3.40393C17.779 2.97928 17.7808 2.53143 17.6681 2.10584C17.5553 1.68025 17.3319 1.29209 17.0205 0.980768C16.7092 0.669444 16.3211 0.446046 15.8955 0.333257C15.4699 0.220469 15.022 0.222307 14.5974 0.338584C14.1727 0.454862 13.7864 0.681439 13.4777 0.995307C13.1689 1.30918 12.9487 1.69916 12.8394 2.12566H5.16191C5.05261 1.69916 4.83241 1.30918 4.52365 0.995307C4.21489 0.681439 3.82858 0.454862 3.40393 0.338584C2.97928 0.222307 2.53143 0.220469 2.10584 0.333257C1.68025 0.446046 1.29209 0.669444 0.980768 0.980768C0.669444 1.29209 0.446046 1.68025 0.333257 2.10584C0.220469 2.53143 0.222307 2.97928 0.338584 3.40393C0.454862 3.82858 0.681439 4.21489 0.995307 4.52365C1.30918 4.83241 1.69916 5.05261 2.12566 5.16191V12.8394C1.69916 12.9487 1.30918 13.1689 0.995307 13.4777C0.681439 13.7864 0.454862 14.1727 0.338584 14.5974C0.222307 15.022 0.220469 15.4699 0.333257 15.8955C0.446046 16.3211 0.669444 16.7092 0.980768 17.0205C1.29209 17.3319 1.68025 17.5553 2.10584 17.6681C2.53143 17.7808 2.97928 17.779 3.40393 17.6627C3.82858 17.5464 4.21489 17.3199 4.52365 17.006C4.83241 16.6921 5.05261 16.3022 5.16191 15.8757H12.8394C12.9487 16.3022 13.1689 16.6921 13.4777 17.006C13.7864 17.3199 14.1727 17.5464 14.5974 17.6627C15.022 17.779 15.4699 17.7808 15.8955 17.6681C16.3211 17.5553 16.7092 17.3319 17.0205 17.0205C17.3319 16.7092 17.5553 16.3211 17.6681 15.8955C17.7808 15.4699 17.779 15.022 17.6627 14.5974C17.5464 14.1727 17.3199 13.7864 17.006 13.4777C16.6921 13.1689 16.3022 12.9487 15.8757 12.8394ZM15.2507 1.50066C15.4979 1.50066 15.7396 1.57397 15.9451 1.71132C16.1507 1.84867 16.3109 2.04389 16.4055 2.2723C16.5001 2.50071 16.5249 2.75204 16.4766 2.99452C16.4284 3.237 16.3094 3.45972 16.1345 3.63454C15.9597 3.80936 15.737 3.92841 15.4945 3.97664C15.252 4.02487 15.0007 4.00012 14.7723 3.90551C14.5439 3.8109 14.3487 3.65068 14.2113 3.44512C14.074 3.23956 14.0007 2.99788 14.0007 2.75066C14.001 2.41924 14.1328 2.10149 14.3671 1.86714C14.6015 1.63279 14.9192 1.50099 15.2507 1.50066ZM1.50066 2.75066C1.50066 2.50343 1.57397 2.26176 1.71132 2.05619C1.84867 1.85063 2.04389 1.69042 2.2723 1.59581C2.50071 1.5012 2.75204 1.47644 2.99452 1.52468C3.237 1.57291 3.45972 1.69196 3.63454 1.86677C3.80936 2.04159 3.92841 2.26432 3.97664 2.50679C4.02487 2.74927 4.00012 3.0006 3.90551 3.22901C3.8109 3.45742 3.65068 3.65264 3.44512 3.78999C3.23956 3.92735 2.99788 4.00066 2.75066 4.00066C2.41924 4.00033 2.10149 3.86852 1.86714 3.63417C1.63279 3.39983 1.50099 3.08208 1.50066 2.75066ZM2.75066 16.5007C2.50343 16.5007 2.26176 16.4273 2.05619 16.29C1.85063 16.1526 1.69042 15.9574 1.59581 15.729C1.5012 15.5006 1.47644 15.2493 1.52468 15.0068C1.57291 14.7643 1.69196 14.5416 1.86677 14.3668C2.04159 14.192 2.26432 14.0729 2.50679 14.0247C2.74927 13.9764 3.0006 14.0012 3.22901 14.0958C3.45742 14.1904 3.65264 14.3506 3.78999 14.5562C3.92735 14.7618 4.00066 15.0034 4.00066 15.2507C4.00033 15.5821 3.86852 15.8998 3.63417 16.1342C3.39983 16.3685 3.08208 16.5003 2.75066 16.5007ZM12.8394 14.6257H5.16191C5.04995 14.196 4.8254 13.8039 4.51141 13.4899C4.19742 13.1759 3.80536 12.9514 3.37566 12.8394V5.16191C3.80533 5.04989 4.19736 4.82532 4.51134 4.51134C4.82532 4.19736 5.04989 3.80533 5.16191 3.37566H12.8394C12.9514 3.80536 13.1759 4.19742 13.4899 4.51141C13.8039 4.8254 14.196 5.04995 14.6257 5.16191V12.8394C14.1959 12.9513 13.8038 13.1758 13.4898 13.4898C13.1758 13.8038 12.9513 14.1959 12.8394 14.6257ZM15.2507 16.5007C15.0034 16.5007 14.7618 16.4273 14.5562 16.29C14.3506 16.1526 14.1904 15.9574 14.0958 15.729C14.0012 15.5006 13.9764 15.2493 14.0247 15.0068C14.0729 14.7643 14.192 14.5416 14.3668 14.3668C14.5416 14.192 14.7643 14.0729 15.0068 14.0247C15.2493 13.9764 15.5006 14.0012 15.729 14.0958C15.9574 14.1904 16.1526 14.3506 16.29 14.5562C16.4273 14.7618 16.5007 15.0034 16.5007 15.2507C16.5002 15.582 16.3683 15.8997 16.134 16.134C15.8997 16.3683 15.582 16.5002 15.2507 16.5007Z" fill="#FAFBFC"/>
</svg>
