<svg width="20" height="20" viewBox="0 0 20 20" fill="none" xmlns="http://www.w3.org/2000/svg">
<rect width="20" height="20" fill="white" fill-opacity="0.01"/>
<path d="M10.6239 6.25012V9.64621L13.4458 11.3392C13.5879 11.4245 13.6903 11.5629 13.7305 11.7238C13.7706 11.8846 13.7452 12.0549 13.6598 12.197C13.5745 12.3391 13.4361 12.4415 13.2753 12.4817C13.1144 12.5218 12.9442 12.4964 12.802 12.4111L9.67703 10.5361C9.58454 10.4805 9.50801 10.4019 9.45489 10.308C9.40177 10.2141 9.37387 10.108 9.37391 10.0001V6.25012C9.37391 6.08436 9.43975 5.92539 9.55696 5.80818C9.67417 5.69097 9.83314 5.62512 9.99891 5.62512C10.1647 5.62512 10.3236 5.69097 10.4408 5.80818C10.5581 5.92539 10.6239 6.08436 10.6239 6.25012ZM17.738 4.42277C17.6238 4.3754 17.4981 4.36296 17.3768 4.38701C17.2556 4.41107 17.1442 4.47055 17.0567 4.55793L16.0927 5.52434C15.8403 5.25012 15.5802 4.97746 15.3036 4.69699C14.2613 3.65458 12.9349 2.94243 11.4902 2.64954C10.0454 2.35664 8.54644 2.49599 7.18046 3.05017C5.81447 3.60435 4.64209 4.54878 3.80979 5.76546C2.9775 6.98214 2.5222 8.41712 2.50079 9.89108C2.47938 11.365 2.89281 12.8126 3.68942 14.053C4.48603 15.2933 5.63049 16.2714 6.97981 16.865C8.32912 17.4586 9.82345 17.6415 11.2761 17.3906C12.7287 17.1398 14.0752 16.4665 15.1473 15.4548C15.2071 15.3984 15.2551 15.3307 15.2886 15.2558C15.3222 15.1808 15.3407 15.0999 15.343 15.0178C15.3453 14.9357 15.3314 14.8539 15.3022 14.7771C15.2729 14.7004 15.2288 14.6301 15.1723 14.5704C15.1159 14.5107 15.0483 14.4627 14.9733 14.4291C14.8983 14.3956 14.8175 14.3771 14.7353 14.3748C14.6532 14.3724 14.5714 14.3863 14.4947 14.4156C14.4179 14.4449 14.3477 14.489 14.288 14.5454C13.3946 15.3884 12.2726 15.9494 11.0623 16.1585C9.8519 16.3675 8.60676 16.2152 7.48241 15.7207C6.35806 15.2262 5.40435 14.4114 4.74041 13.378C4.07647 12.3446 3.73174 11.1385 3.74929 9.91034C3.76684 8.68218 4.14588 7.48641 4.83908 6.47241C5.53227 5.45842 6.50888 4.67116 7.64689 4.20897C8.78491 3.74679 10.0339 3.63018 11.2378 3.87371C12.4417 4.11723 13.5472 4.7101 14.4161 5.57824C14.6927 5.85793 14.9528 6.13293 15.2059 6.40871L13.9317 7.68293C13.8442 7.77034 13.7846 7.88175 13.7604 8.00305C13.7363 8.12435 13.7487 8.2501 13.796 8.36436C13.8434 8.47863 13.9235 8.57627 14.0264 8.64494C14.1293 8.71361 14.2502 8.75021 14.3739 8.75012H17.4989C17.6647 8.75012 17.8236 8.68427 17.9408 8.56706C18.0581 8.44985 18.1239 8.29088 18.1239 8.12512V5.00012C18.1239 4.87651 18.0872 4.75568 18.0185 4.65291C17.9498 4.55014 17.8522 4.47006 17.738 4.42277Z" fill="#FAFBFC"/>
</svg>
