<svg width="20" height="20" viewBox="0 0 20 20" fill="none" xmlns="http://www.w3.org/2000/svg">
<g clip-path="url(#clip0_925_363605)">
<rect width="20" height="20" fill="white" fill-opacity="0.01"/>
<path fill-rule="evenodd" clip-rule="evenodd" d="M6.91788 2.89052C5.84018 3.02741 5.21161 3.28601 4.75496 3.71727C4.30498 4.14221 4.03954 4.7186 3.89752 5.71666C3.75178 6.74083 3.75 8.0921 3.75 10V14C3.75 15.9079 3.75178 17.2592 3.89752 18.2833C4.03954 19.2814 4.30496 19.8578 4.75494 20.2827C5.21159 20.714 5.84018 20.9726 6.91788 21.1095C8.01298 21.2486 9.45395 21.25 11.47 21.25C11.475 21.25 11.48 21.25 11.485 21.2501C11.49 21.25 11.495 21.25 11.5 21.25H13C13.4142 21.25 13.75 21.5858 13.75 22C13.75 22.4142 13.4142 22.75 13 22.75H11.5C11.495 22.75 11.49 22.75 11.485 22.7499C11.48 22.75 11.475 22.75 11.47 22.75H11.4161C9.46579 22.75 7.92949 22.75 6.72887 22.5975C5.49982 22.4414 4.50939 22.114 3.72505 21.3733C2.93503 20.6272 2.58046 19.6751 2.41248 18.4947C2.24997 17.3526 2.24998 15.8945 2.25 14.0593V9.9407C2.24998 8.10553 2.24997 6.64739 2.41248 5.50534C2.58046 4.3249 2.93504 3.37278 3.72506 2.62672C4.50941 1.88598 5.49982 1.55859 6.72887 1.40248C7.92949 1.24998 9.4658 1.24999 11.4161 1.25H12.5839C14.5347 1.24999 16.071 1.24998 17.2715 1.40248C18.5005 1.5586 19.4906 1.88602 20.275 2.62673C21.065 3.37279 21.4195 4.32491 21.5875 5.50534C21.75 6.6474 21.75 8.10554 21.75 9.94073V10C21.75 10.4142 21.4142 10.75 21 10.75C20.5858 10.75 20.25 10.4142 20.25 10C20.25 8.0921 20.2482 6.74083 20.1025 5.71666C19.9605 4.7186 19.695 4.14222 19.2451 3.71728C18.7884 3.28599 18.16 3.0274 17.0825 2.89052C15.9875 2.75143 14.5466 2.75 12.53 2.75H11.47C9.45395 2.75 8.01298 2.75142 6.91788 2.89052ZM7.25 7C7.25 6.58579 7.58579 6.25 8 6.25H16C16.4142 6.25 16.75 6.58579 16.75 7C16.75 7.41421 16.4142 7.75 16 7.75H8C7.58579 7.75 7.25 7.41421 7.25 7ZM7.25 12C7.25 11.5858 7.58579 11.25 8 11.25H13C13.4142 11.25 13.75 11.5858 13.75 12C13.75 12.4142 13.4142 12.75 13 12.75H8C7.58579 12.75 7.25 12.4142 7.25 12Z" fill="#FAFBFC"/>
<path fill-rule="evenodd" clip-rule="evenodd" d="M18.1857 14.7875L15.7544 15.4048C15.8582 18.0461 16.663 19.4927 17.3671 20.2704C17.7305 20.6717 18.0827 20.9125 18.3332 21.0504C18.3926 21.0831 18.4464 21.11 18.4932 21.1319C18.54 21.11 18.5937 21.0831 18.6531 21.0504C18.9036 20.9125 19.2559 20.6717 19.6192 20.2704C20.3233 19.4927 21.1281 18.0461 21.2319 15.4048L18.8006 14.7875C18.5987 14.7362 18.3876 14.7362 18.1857 14.7875ZM18.4932 21.9355C18.3002 22.6603 18.2991 22.66 18.2991 22.66L18.2978 22.6597L18.2951 22.6589L18.2886 22.6571L18.2722 22.6524C18.2596 22.6487 18.2438 22.6439 18.225 22.6378C18.1876 22.6257 18.1381 22.6086 18.0785 22.5854C17.9592 22.539 17.7985 22.4683 17.6099 22.3645C17.2324 22.1567 16.7436 21.8166 16.2552 21.2772C15.2676 20.1864 14.3411 18.3476 14.2505 15.3159L14.2503 15.3089C14.2441 15.0061 14.3407 14.7102 14.5242 14.4693C14.7077 14.2286 14.9672 14.057 15.2606 13.9826L17.8166 13.3336C18.2607 13.2209 18.7256 13.2209 19.1697 13.3336L21.7269 13.9829C22.3235 14.1354 22.7544 14.6812 22.7358 15.3154C22.6453 18.3471 21.7187 20.1864 20.7311 21.2772C20.2427 21.8166 19.7539 22.1567 19.3764 22.3645C19.1879 22.4683 19.0271 22.539 18.9079 22.5854C18.8482 22.6086 18.7988 22.6257 18.7613 22.6378C18.7426 22.6439 18.7268 22.6487 18.7142 22.6524L18.6977 22.6571L18.6913 22.6589L18.6885 22.6597L18.6873 22.66C18.6873 22.66 18.6861 22.6603 18.4932 21.9355ZM18.4932 21.9355L18.6861 22.6603C18.5597 22.694 18.4267 22.694 18.3002 22.6603L18.4932 21.9355Z" fill="#FAFBFC"/>
</g>
<defs>
<clipPath id="clip0_925_363605">
<rect width="20" height="20" fill="white"/>
</clipPath>
</defs>
</svg>
