<svg width="14" height="14" viewBox="0 0 14 14" fill="none" xmlns="http://www.w3.org/2000/svg">
<path d="M6.52031 13.0399C6.27541 13.0399 6.03039 12.9465 5.84375 12.7595L1.05823 7.97401C0.684365 7.60014 0.684365 6.99448 1.05823 6.62061L5.84375 1.83509C6.21762 1.46122 6.82329 1.46122 7.19716 1.83509C7.57103 2.20896 7.57103 2.81463 7.19716 3.18849L3.08819 7.29731L7.19776 11.4069C7.57162 11.7807 7.57162 12.3864 7.19776 12.7603C7.01082 12.9472 6.76556 13.0399 6.52031 13.0399Z" fill="white"/>
<path opacity="0.8" d="M12.263 13.0399C12.0181 13.0399 11.7731 12.9465 11.5864 12.7595L6.80091 7.97401C6.42704 7.60014 6.42704 6.99448 6.80091 6.62061L11.5864 1.83509C11.9603 1.46122 12.566 1.46122 12.9398 1.83509C13.3137 2.20896 13.3137 2.81463 12.9398 3.18849L8.83236 7.29731L12.9419 11.4069C13.3158 11.7807 13.3158 12.3864 12.9419 12.7603C12.7535 12.9472 12.5082 13.0399 12.263 13.0399Z" fill="white"/>
</svg>
