<svg width="20" height="20" viewBox="0 0 20 20" fill="none" xmlns="http://www.w3.org/2000/svg">
<rect width="20" height="20" fill="white" fill-opacity="0.01"/>
<path fill-rule="evenodd" clip-rule="evenodd" d="M10.0013 2.29102C7.0818 2.29102 4.79297 4.48353 4.79297 7.09518C4.79297 9.86787 6.54698 13.0819 9.1794 14.2076C9.43939 14.3178 9.7189 14.3746 10.0013 14.3746C10.2837 14.3746 10.5632 14.3178 10.8232 14.2076C13.4557 13.0819 15.2096 9.86867 15.2096 7.09518C15.2096 4.48353 12.9208 2.29102 10.0013 2.29102ZM3.54297 7.09518C3.54297 3.71017 6.47747 1.04102 10.0013 1.04102C13.5251 1.04102 16.4596 3.71017 16.4596 7.09518C16.4596 10.2714 14.4907 13.9994 11.3136 15.3574L11.3121 15.358C10.8975 15.534 10.4517 15.6246 10.0013 15.6246C9.55091 15.6246 9.10513 15.534 8.69051 15.358L8.68899 15.3574C5.5119 13.9994 3.54297 10.2705 3.54297 7.09518Z" fill="#FAFBFC"/>
<path fill-rule="evenodd" clip-rule="evenodd" d="M10.0013 6.45768C9.72504 6.45768 9.46008 6.56743 9.26473 6.76278C9.06938 6.95813 8.95964 7.22308 8.95964 7.49935C8.95964 7.77562 9.06938 8.04057 9.26473 8.23592C9.46008 8.43127 9.72504 8.54102 10.0013 8.54102C10.2776 8.54102 10.5425 8.43127 10.7379 8.23592C10.9332 8.04057 11.043 7.77562 11.043 7.49935C11.043 7.22308 10.9332 6.95813 10.7379 6.76278C10.5425 6.56743 10.2776 6.45768 10.0013 6.45768ZM8.38085 5.8789C8.81062 5.44913 9.39351 5.20768 10.0013 5.20768C10.6091 5.20768 11.192 5.44913 11.6218 5.8789C12.0515 6.30867 12.293 6.89156 12.293 7.49935C12.293 8.10714 12.0515 8.69003 11.6218 9.1198C11.192 9.54957 10.6091 9.79102 10.0013 9.79102C9.39351 9.79102 8.81062 9.54957 8.38085 9.1198C7.95108 8.69003 7.70964 8.10714 7.70964 7.49935C7.70964 6.89156 7.95108 6.30867 8.38085 5.8789Z" fill="#FAFBFC"/>
<path fill-rule="evenodd" clip-rule="evenodd" d="M2.99829 12.4969C3.22976 12.753 3.20981 13.1482 2.95374 13.3797C2.48068 13.8073 2.29297 14.2179 2.29297 14.5827C2.29297 15.219 2.89627 16.0033 4.36519 16.6643C5.77542 17.2989 7.76751 17.7077 10.0013 17.7077C12.2351 17.7077 14.2272 17.2989 15.6374 16.6643C17.1063 16.0033 17.7096 15.219 17.7096 14.5827C17.7096 14.2179 17.5219 13.8073 17.0489 13.3797C16.7928 13.1482 16.7728 12.753 17.0043 12.4969C17.2358 12.2408 17.631 12.2209 17.8871 12.4524C18.524 13.0281 18.9596 13.7508 18.9596 14.5827C18.9596 16.0172 17.6975 17.1079 16.1504 17.8042C14.5446 18.5268 12.37 18.9577 10.0013 18.9577C7.63259 18.9577 5.45802 18.5268 3.85221 17.8042C2.30508 17.1079 1.04297 16.0172 1.04297 14.5827C1.04297 13.7508 1.47859 13.0281 2.11553 12.4524C2.3716 12.2209 2.76683 12.2408 2.99829 12.4969Z" fill="#FAFBFC"/>
</svg>
