<svg width="20" height="20" viewBox="0 0 20 20" fill="none" xmlns="http://www.w3.org/2000/svg">
<rect width="20" height="20" fill="white" fill-opacity="0.01"/>
<path fill-rule="evenodd" clip-rule="evenodd" d="M4.93287 2.40812C4.03479 2.52219 3.51097 2.73769 3.13043 3.09708C2.75545 3.45119 2.53426 3.93151 2.4159 4.76323C2.29445 5.61671 2.29297 6.74276 2.29297 8.33268V11.666C2.29297 13.2559 2.29445 14.382 2.4159 15.2355C2.53426 16.0672 2.75544 16.5475 3.13042 16.9016C3.51096 17.261 4.03479 17.4765 4.93287 17.5906C5.84545 17.7065 7.04626 17.7077 8.7263 17.7077H9.60964C9.95481 17.7077 10.2346 17.9875 10.2346 18.3327C10.2346 18.6779 9.95481 18.9577 9.60964 18.9577H8.6814C7.05612 18.9577 5.77588 18.9577 4.77536 18.8306C3.75115 18.7005 2.9258 18.4277 2.27217 17.8104C1.61383 17.1887 1.31835 16.3953 1.17837 15.4116C1.04294 14.4599 1.04295 13.2447 1.04297 11.7154V8.28327C1.04295 6.75396 1.04294 5.53884 1.17837 4.58713C1.31835 3.60344 1.61383 2.81 2.27218 2.18828C2.92581 1.571 3.75115 1.29817 4.77536 1.16808C5.77588 1.041 7.05613 1.04101 8.68142 1.04102H9.65455C11.2802 1.04101 12.5605 1.041 13.5609 1.16808C14.5851 1.29818 15.4102 1.57103 16.0638 2.18829C16.7221 2.81001 17.0176 3.60344 17.1576 4.58713C17.293 5.53885 17.293 6.75397 17.293 8.28329V8.74935C17.293 9.09453 17.0131 9.37435 16.668 9.37435C16.3228 9.37435 16.043 9.09453 16.043 8.74935V8.33268C16.043 6.74276 16.0415 5.61671 15.92 4.76323C15.8017 3.93151 15.5805 3.4512 15.2055 3.09709C14.8249 2.73767 14.3013 2.52218 13.4034 2.40812C12.4909 2.2922 11.2901 2.29102 9.60964 2.29102H8.7263C7.04626 2.29102 5.84545 2.2922 4.93287 2.40812ZM5.20964 5.83268C5.20964 5.4875 5.48946 5.20768 5.83464 5.20768H12.5013C12.8465 5.20768 13.1263 5.4875 13.1263 5.83268C13.1263 6.17786 12.8465 6.45768 12.5013 6.45768H5.83464C5.48946 6.45768 5.20964 6.17786 5.20964 5.83268ZM5.20964 9.99935C5.20964 9.65417 5.48946 9.37435 5.83464 9.37435H10.0013C10.3465 9.37435 10.6263 9.65417 10.6263 9.99935C10.6263 10.3445 10.3465 10.6243 10.0013 10.6243H5.83464C5.48946 10.6243 5.20964 10.3445 5.20964 9.99935Z" fill="#FAFBFC"/>
<path fill-rule="evenodd" clip-rule="evenodd" d="M15.0013 10.2077C15.3465 10.2077 15.6263 10.4875 15.6263 10.8327V11.3342C16.3278 11.4606 16.9559 11.7962 17.4369 12.2743L17.9967 11.9144C18.2871 11.7278 18.6738 11.8119 18.8604 12.1023C19.047 12.3926 18.9629 12.7793 18.6726 12.9659L18.142 13.307C18.3142 13.7078 18.4044 14.1415 18.4044 14.5818C18.4044 15.0227 18.314 15.4565 18.1415 15.8572L18.6726 16.1986C18.9629 16.3852 19.047 16.7719 18.8604 17.0623C18.6738 17.3526 18.2871 17.4367 17.9967 17.2501L17.4355 16.8894C17.1877 17.1356 16.9029 17.3434 16.5903 17.5046C16.286 17.6614 15.961 17.7712 15.6263 17.8313V18.3327C15.6263 18.6779 15.3465 18.9577 15.0013 18.9577C14.6561 18.9577 14.3763 18.6779 14.3763 18.3327V17.8322C14.0417 17.7721 13.7166 17.6623 13.4123 17.5054C13.0995 17.3441 12.8145 17.1362 12.5666 16.8897L12.0059 17.2501C11.7155 17.4367 11.3288 17.3526 11.1422 17.0623C10.9556 16.7719 11.0397 16.3852 11.33 16.1986L11.8611 15.8572C11.6886 15.4565 11.5982 15.0227 11.5982 14.5818C11.5982 14.1415 11.6884 13.7082 11.8606 13.3078L11.33 12.9668C11.0397 12.7801 10.9556 12.3935 11.1422 12.1031C11.3288 11.8127 11.7155 11.7286 12.0059 11.9153L12.5671 12.276C12.8149 12.0297 13.0997 11.822 13.4123 11.6608C13.7166 11.5039 14.0417 11.3941 14.3763 11.334V10.8327C14.3763 10.4875 14.6561 10.2077 15.0013 10.2077ZM15.0418 12.5289C15.0269 12.5298 15.0119 12.5303 14.9969 12.5302C14.6451 12.5277 14.2979 12.6106 13.9851 12.7719C13.6786 12.9299 13.4141 13.1585 13.2134 13.4387C13.2043 13.4527 13.1947 13.4663 13.1846 13.4793C12.9655 13.805 12.8482 14.1888 12.8482 14.5818C12.8482 14.9854 12.9719 15.3793 13.2025 15.7105C13.208 15.7183 13.2132 15.7263 13.2183 15.7343C13.4184 16.0114 13.6811 16.2376 13.9851 16.3943C14.2893 16.5512 14.6261 16.6339 14.9681 16.636C14.9806 16.6354 14.9931 16.6351 15.0057 16.6352C15.3575 16.6377 15.7048 16.5547 16.0175 16.3935C16.324 16.2355 16.5885 16.0069 16.7892 15.7267C16.7927 15.7213 16.7964 15.7159 16.8001 15.7105C17.0307 15.3793 17.1544 14.9854 17.1544 14.5818C17.1544 14.1886 17.037 13.804 16.818 13.4785C16.8072 13.4645 16.7969 13.4499 16.7872 13.4348C16.7857 13.4324 16.7842 13.43 16.7827 13.4276C16.4044 12.8985 15.7706 12.5416 15.0418 12.5289Z" fill="#FAFBFC"/>
</svg>
