<svg width="20" height="20" viewBox="0 0 20 20" fill="none" xmlns="http://www.w3.org/2000/svg">
<rect width="20" height="20" fill="white" fill-opacity="0.01"/>
<path d="M10.0013 0.833984C8.19284 0.833984 6.45844 1.55831 5.17967 2.84763C3.90089 4.13694 3.18248 5.88562 3.18248 7.70898V11.3772L1.72174 15.0652C1.67599 15.1811 1.65905 15.3064 1.6724 15.4304C1.68575 15.5543 1.72899 15.6731 1.79833 15.7763C1.86768 15.8795 1.96103 15.964 2.07023 16.0225C2.17944 16.081 2.30118 16.1116 2.42483 16.1118H6.97072C6.97072 17.8045 8.32236 19.1673 10.0013 19.1673C11.6802 19.1673 13.0319 17.8045 13.0319 16.1118H17.5778C17.7014 16.1116 17.8232 16.081 17.9324 16.0225C18.0416 15.964 18.1349 15.8795 18.2043 15.7763C18.2736 15.6731 18.3169 15.5543 18.3302 15.4304C18.3436 15.3064 18.3266 15.1811 18.2809 15.0652L16.8201 11.3756V7.70898C16.8201 5.88562 16.1017 4.13694 14.8229 2.84763C13.5442 1.55831 11.8098 0.833984 10.0013 0.833984ZM11.5166 16.1118C11.5166 16.9612 10.8438 17.6395 10.0013 17.6395C9.1588 17.6395 8.48601 16.9612 8.48601 16.1118H11.5166ZM4.69777 7.70898C4.69777 6.29081 5.25654 4.93073 6.25114 3.92793C7.24575 2.92513 8.59472 2.36176 10.0013 2.36176C11.4079 2.36176 12.7569 2.92513 13.7515 3.92793C14.7461 4.93073 15.3048 6.29081 15.3048 7.70898V11.5254C15.3051 11.6222 15.3236 11.7181 15.3594 11.808L16.4595 14.584H3.54312L4.64322 11.808C4.67901 11.7181 4.69753 11.6222 4.69777 11.5254V7.70898Z" fill="#FAFBFC"/>
</svg>
