<svg width="20" height="20" viewBox="0 0 20 20" fill="none" xmlns="http://www.w3.org/2000/svg">
<rect width="20" height="20" fill="white" fill-opacity="0.01"/>
<path fill-rule="evenodd" clip-rule="evenodd" d="M11.8217 1.66932C12.1668 1.66932 12.4467 1.94914 12.4467 2.29432V5.29099C12.4467 5.53058 12.5421 5.76127 12.7128 5.93154C12.8846 6.10259 13.1173 6.19858 13.3598 6.19849H16.7975C17.1427 6.19849 17.4225 6.47831 17.4225 6.82349C17.4225 7.16866 17.1427 7.44849 16.7975 7.44849H13.3602C13.3602 7.44849 13.3603 7.44849 13.3602 7.44849C12.787 7.44864 12.2369 7.22166 11.8307 6.81722C11.4248 6.41252 11.1967 5.86297 11.1967 5.29099V2.29432C11.1967 1.94914 11.4765 1.66932 11.8217 1.66932Z" fill="#FAFBFC"/>
<path fill-rule="evenodd" clip-rule="evenodd" d="M6.79676 2.91805C6.01681 2.88904 5.25726 3.1709 4.68505 3.7017L4.68431 3.70238C4.40175 3.96365 4.17368 4.27826 4.01326 4.62808C3.8543 4.97471 3.76487 5.34911 3.75 5.73009V14.2683C3.76528 14.652 3.85583 15.0289 4.01655 15.3777C4.17872 15.7296 4.40909 16.0458 4.69433 16.3081C4.98118 16.5709 5.31712 16.7745 5.68288 16.9071C6.04879 17.0398 6.43731 17.0988 6.82611 17.0808C6.83573 17.0804 6.84536 17.0802 6.855 17.0802H13.18C13.1877 17.0802 13.1955 17.0803 13.2032 17.0806C13.9832 17.1096 14.7427 16.8277 15.315 16.2969L15.3156 16.2963C15.5982 16.035 15.8263 15.7204 15.9867 15.3705C16.1456 15.0239 16.2351 14.6495 16.25 14.2685V7.14711C16.2438 6.88954 16.1839 6.63608 16.0741 6.40295C15.9635 6.16801 15.8046 5.95898 15.6079 5.78946C15.6028 5.78507 15.5977 5.78059 15.5928 5.77604L13.1281 3.50956C12.7047 3.1274 12.1541 2.91666 11.5837 2.91848L11.5817 2.91849H6.82C6.81225 2.91849 6.80451 2.91834 6.79676 2.91805ZM6.83115 1.66849C5.72447 1.6305 4.64747 2.03174 3.83532 2.78493C3.43182 3.15811 3.10614 3.60744 2.87704 4.10703C2.64786 4.60677 2.51986 5.14692 2.50039 5.69636C2.50013 5.70373 2.5 5.71111 2.5 5.71849V14.2802C2.5 14.2877 2.50014 14.2952 2.50041 14.3027C2.52038 14.8554 2.64985 15.3986 2.88129 15.9008C3.11274 16.4031 3.44157 16.8544 3.84872 17.2286L3.84935 17.2292C4.25771 17.6035 4.73602 17.8934 5.2568 18.0822C5.77287 18.2694 6.32054 18.3536 6.86889 18.3302H13.1689C14.2755 18.3681 15.3525 17.9669 16.1647 17.2137C16.5682 16.8405 16.8938 16.3912 17.1229 15.8916C17.3521 15.3919 17.4801 14.8517 17.4996 14.3023C17.4999 14.2949 17.5 14.2876 17.5 14.2802V7.14015L17.4999 7.12717C17.4908 6.69217 17.3903 6.26395 17.205 5.87033C17.0211 5.47993 16.7578 5.13224 16.4319 4.84948L13.9722 2.5876L13.9684 2.58412C13.3142 1.9924 12.4628 1.66592 11.5807 1.66849H11.5817V2.29349L11.5797 1.66849C11.58 1.66849 11.5804 1.66849 11.5807 1.66849M5.7475 6.37265C5.7475 6.02747 6.02732 5.74765 6.3725 5.74765H9.09333C9.43851 5.74765 9.71833 6.02747 9.71833 6.37265C9.71833 6.71783 9.43851 6.99765 9.09333 6.99765H6.3725C6.02732 6.99765 5.7475 6.71783 5.7475 6.37265ZM5.7475 10.0002C5.7475 9.65498 6.02732 9.37515 6.3725 9.37515H13.6275C13.9727 9.37515 14.2525 9.65498 14.2525 10.0002C14.2525 10.3453 13.9727 10.6252 13.6275 10.6252H6.3725C6.02732 10.6252 5.7475 10.3453 5.7475 10.0002ZM5.7475 13.6277C5.7475 13.2825 6.02732 13.0027 6.3725 13.0027H13.6275C13.9727 13.0027 14.2525 13.2825 14.2525 13.6277C14.2525 13.9728 13.9727 14.2527 13.6275 14.2527H6.3725C6.02732 14.2527 5.7475 13.9728 5.7475 13.6277Z" fill="#FAFBFC"/>
</svg>
