<svg width="20" height="20" viewBox="0 0 20 20" fill="none" xmlns="http://www.w3.org/2000/svg">
<rect width="20" height="20" fill="white" fill-opacity="0.01"/>
<path d="M9.99848 6.87672C9.16968 6.87672 8.37482 7.20596 7.78877 7.79201C7.20272 8.37806 6.87348 9.17292 6.87348 10.0017C6.87348 10.8305 7.20272 11.6254 7.78877 12.2114C8.37482 12.7975 9.16968 13.1267 9.99848 13.1267C10.8273 13.1267 11.6221 12.7975 12.2082 12.2114C12.7942 11.6254 13.1235 10.8305 13.1235 10.0017C13.1235 9.17292 12.7942 8.37806 12.2082 7.79201C11.6221 7.20596 10.8273 6.87672 9.99848 6.87672ZM8.12348 10.0017C8.12348 9.50444 8.32102 9.02752 8.67265 8.67589C9.02429 8.32426 9.5012 8.12672 9.99848 8.12672C10.4958 8.12672 10.9727 8.32426 11.3243 8.67589C11.6759 9.02752 11.8735 9.50444 11.8735 10.0017C11.8735 10.499 11.6759 10.9759 11.3243 11.3275C10.9727 11.6792 10.4958 11.8767 9.99848 11.8767C9.5012 11.8767 9.02429 11.6792 8.67265 11.3275C8.32102 10.9759 8.12348 10.499 8.12348 10.0017ZM8.02348 18.5192C8.67035 18.6736 9.33348 18.7517 9.99848 18.7517C10.6629 18.7507 11.3249 18.672 11.971 18.5173C12.1566 18.4736 12.3242 18.3734 12.4506 18.2307C12.5771 18.0879 12.6562 17.9094 12.6772 17.7198L12.8235 16.3886C12.8376 16.2434 12.8861 16.1036 12.9649 15.9808C13.0437 15.858 13.1506 15.7558 13.2768 15.6825C13.403 15.6092 13.5448 15.567 13.6905 15.5594C13.8362 15.5517 13.9816 15.5789 14.1147 15.6386L15.3366 16.1736C15.5115 16.2506 15.7061 16.2712 15.8932 16.2325C16.0804 16.1939 16.2509 16.0979 16.381 15.958C17.2838 14.9852 17.9578 13.8229 18.3535 12.5561C18.4102 12.3729 18.4085 12.1765 18.3486 11.9943C18.2887 11.8121 18.1735 11.653 18.0191 11.5392L16.9385 10.7423C16.8204 10.6563 16.7244 10.5436 16.6583 10.4134C16.5922 10.2832 16.5578 10.1392 16.558 9.99312C16.5582 9.84707 16.5929 9.70314 16.6594 9.57309C16.7258 9.44304 16.8221 9.33056 16.9404 9.24484L18.0154 8.45109C18.1707 8.33758 18.2865 8.1783 18.3467 7.9956C18.4069 7.8129 18.4084 7.61594 18.351 7.43234C17.956 6.16509 17.2817 5.00259 16.3779 4.03047C16.2472 3.89074 16.0764 3.79498 15.889 3.75636C15.7016 3.71774 15.5069 3.73818 15.3316 3.81484L14.1154 4.34984C13.982 4.40795 13.8369 4.43388 13.6918 4.42553C13.5466 4.41718 13.4054 4.37478 13.2796 4.30177C13.1539 4.22875 13.047 4.12717 12.9678 4.00523C12.8886 3.8833 12.8391 3.74442 12.8235 3.59984L12.676 2.27484C12.6554 2.083 12.5751 1.90246 12.4465 1.75862C12.3179 1.61477 12.1474 1.51487 11.9591 1.47297C11.3173 1.32956 10.6623 1.25352 10.0047 1.24609C9.34326 1.25393 8.68436 1.32995 8.03848 1.47297C7.85012 1.51415 7.67951 1.61359 7.55084 1.75719C7.42216 1.90078 7.34196 2.08124 7.32161 2.27297L7.17348 3.59922C7.1573 3.74402 7.10744 3.88302 7.02788 4.00508C6.94833 4.12715 6.8413 4.22889 6.71536 4.30215C6.58942 4.37542 6.44807 4.41818 6.30264 4.427C6.15721 4.43583 6.01173 4.41047 5.87786 4.35297L4.66161 3.81734C4.48612 3.74281 4.29201 3.72381 4.1054 3.76292C3.9188 3.80203 3.74865 3.89737 3.61786 4.03609C2.71388 5.00916 2.03906 6.17215 1.64286 7.43984C1.58647 7.62297 1.58842 7.8191 1.64844 8.00106C1.70846 8.18303 1.82358 8.34183 1.97786 8.45547L3.05598 9.25047C3.17342 9.33689 3.2689 9.44971 3.33471 9.57983C3.40051 9.70995 3.4348 9.85372 3.4348 9.99953C3.4348 10.1453 3.40051 10.2891 3.33471 10.4192C3.2689 10.5494 3.17342 10.6622 3.05598 10.7486L1.97786 11.5455C1.823 11.6593 1.70754 11.8187 1.6476 12.0013C1.58766 12.1839 1.58622 12.3807 1.64348 12.5642C2.0395 13.8327 2.71432 14.9966 3.61848 15.9705C3.70444 16.0629 3.80865 16.1364 3.92452 16.1865C4.0404 16.2365 4.1654 16.2619 4.29161 16.2611C4.41848 16.2611 4.54411 16.2348 4.66098 16.1842L5.88286 15.6473C6.01613 15.5898 6.16105 15.5642 6.30597 15.5728C6.45089 15.5815 6.59178 15.6239 6.7173 15.6969C6.84283 15.7698 6.94949 15.8712 7.02871 15.9928C7.10794 16.1145 7.15753 16.253 7.17348 16.3973L7.32036 17.7261C7.34169 17.9147 7.42065 18.092 7.54647 18.2341C7.6723 18.3761 7.83887 18.4753 8.02348 18.5192ZM11.4616 17.3536C10.4973 17.5514 9.50282 17.5514 8.53848 17.3536L8.4166 16.2661C8.35703 15.7341 8.10334 15.2427 7.70411 14.8861C7.39153 14.6109 7.00751 14.4296 6.59634 14.3633C6.18518 14.2969 5.76364 14.3482 5.38036 14.5111L4.37661 14.9486C3.7291 14.2071 3.23082 13.3477 2.90911 12.4173L3.79911 11.7598C4.07407 11.5572 4.29758 11.2928 4.45161 10.988C4.60565 10.6832 4.6859 10.3464 4.6859 10.0048C4.6859 9.66329 4.60565 9.32652 4.45161 9.02168C4.29758 8.71684 4.07407 8.45245 3.79911 8.24984L2.91098 7.59359C3.23307 6.66419 3.73133 5.8056 4.37848 5.06484L5.37848 5.50234C5.65411 5.62405 5.95218 5.68665 6.25348 5.68609C6.79004 5.68441 7.30726 5.48559 7.70678 5.12743C8.10631 4.76928 8.36026 4.27678 8.42036 3.74359L8.5416 2.65172C9.02535 2.55797 9.51661 2.50797 10.0085 2.50172C10.4972 2.50797 10.9847 2.55797 11.4647 2.65172L11.581 3.73922C11.6389 4.27275 11.892 4.76603 12.2916 5.12422C12.6044 5.40113 12.9894 5.58342 13.4019 5.64982C13.8143 5.71621 14.2371 5.66398 14.621 5.49922L15.621 5.06172C16.269 5.80227 16.7678 6.66117 17.0897 7.59109L16.2004 8.24484C15.924 8.44675 15.6992 8.71104 15.5442 9.01621C15.3892 9.32138 15.3084 9.65882 15.3084 10.0011C15.3084 10.3434 15.3892 10.6808 15.5442 10.986C15.6992 11.2911 15.924 11.5554 16.2004 11.7573L17.0891 12.4136C16.7669 13.3418 16.2693 14.1994 15.6235 14.9398L14.6235 14.5023C14.3105 14.3631 13.9691 14.2999 13.6271 14.3178C13.285 14.3358 12.9521 14.4345 12.6555 14.6058C12.3589 14.777 12.107 15.0161 11.9205 15.3034C11.7339 15.5906 11.618 15.918 11.5822 16.2586L11.4616 17.3536Z" fill="#FAFBFC"/>
</svg>
