<svg width="8" height="5" viewBox="0 0 8 5" fill="none" xmlns="http://www.w3.org/2000/svg">
<path fill-rule="evenodd" clip-rule="evenodd" d="M1.69817 4.70571C1.60626 4.79892 1.49673 4.87294 1.37596 4.92346C1.25519 4.97398 1.12559 5 0.994675 5C0.863763 5 0.734157 4.97398 0.613387 4.92346C0.492617 4.87294 0.383092 4.79892 0.291175 4.70571C0.104608 4.51669 8.80302e-09 4.26179 1.19701e-08 3.99621C1.51371e-08 3.73062 0.104608 3.47573 0.291175 3.28671L3.23117 0.321709C3.33251 0.219514 3.45308 0.1384 3.58592 0.0830441C3.71877 0.0276885 3.86126 -0.000811531 4.00517 -0.000811529C4.14909 -0.000811527 4.29158 0.0276886 4.42443 0.0830441C4.55727 0.1384 4.67784 0.219514 4.77917 0.321709L7.70917 3.27671C7.89604 3.46577 8.00084 3.72088 8.00084 3.98671C8.00084 4.25254 7.89604 4.50765 7.70917 4.69671C7.61726 4.78992 7.50773 4.86394 7.38696 4.91446C7.26619 4.96498 7.13659 4.991 7.00567 4.991C6.87476 4.991 6.74516 4.96498 6.62439 4.91446C6.50362 4.86394 6.39409 4.78992 6.30217 4.69671L4.00517 2.37871L1.69817 4.70571Z" fill="#FAFBFC"/>
</svg>
