<svg width="23" height="20" viewBox="0 0 23 20" fill="none" xmlns="http://www.w3.org/2000/svg">
<path d="M13.35 0.800002C13.2555 0.673969 13.1237 0.580902 12.9733 0.534004C12.8229 0.487105 12.6615 0.488757 12.5121 0.538725C12.3627 0.588693 12.2328 0.68444 12.1409 0.812381C12.049 0.940323 11.9997 1.09396 12 1.2515V4.2515C12 4.45041 12.079 4.64118 12.2197 4.78183C12.3603 4.92248 12.5511 5.0015 12.75 5.0015C12.9489 5.0015 13.1397 4.92248 13.2803 4.78183C13.421 4.64118 13.5 4.45041 13.5 4.2515V3.4895L14.415 4.7045C14.5144 4.83598 14.6544 4.93103 14.8133 4.97495C14.9722 5.01888 15.1411 5.00923 15.294 4.9475L17.526 4.0505L16.539 7.0145C16.5015 7.12719 16.4912 7.24718 16.5091 7.3646C16.5271 7.48202 16.5726 7.5935 16.642 7.68988C16.7114 7.78625 16.8028 7.86476 16.9085 7.91894C17.0142 7.97311 17.1312 8.00141 17.25 8.0015H19.6155L17.538 9.6665C17.4504 9.73678 17.3797 9.82583 17.3311 9.92708C17.2826 10.0283 17.2573 10.1392 17.2573 10.2515C17.2573 10.3638 17.2826 10.4747 17.3311 10.5759C17.3797 10.6772 17.4504 10.7662 17.538 10.8365L19.6155 12.5015H17.25C17.0511 12.5015 16.8603 12.5805 16.7197 12.7212C16.579 12.8618 16.5 13.0526 16.5 13.2515C16.5 13.4504 16.579 13.6412 16.7197 13.7818C16.8603 13.9225 17.0511 14.0015 17.25 14.0015H21.75C21.9053 14.0015 22.0569 13.9533 22.1836 13.8636C22.3104 13.7738 22.4062 13.6469 22.4577 13.5003C22.5092 13.3538 22.514 13.1949 22.4713 13.0455C22.4287 12.8961 22.3407 12.7637 22.2195 12.6665L19.206 10.2515L22.2195 7.8365C22.3407 7.7393 22.4287 7.60687 22.4713 7.4575C22.514 7.30814 22.5092 7.14922 22.4577 7.00268C22.4062 6.85614 22.3104 6.72922 22.1836 6.63944C22.0569 6.54967 21.9053 6.50147 21.75 6.5015H18.291L19.461 2.9885C19.5061 2.85285 19.5115 2.70714 19.4765 2.56853C19.4415 2.42992 19.3677 2.3042 19.2637 2.20616C19.1596 2.10812 19.0297 2.04185 18.8893 2.01516C18.7489 1.98847 18.6037 2.00246 18.471 2.0555L15.267 3.3425L13.35 0.800002ZM11.25 15.5015C11.4489 15.5015 11.6397 15.4225 11.7803 15.2818C11.921 15.1412 12 14.9504 12 14.7515C12 14.5526 11.921 14.3618 11.7803 14.2212C11.6397 14.0805 11.4489 14.0015 11.25 14.0015C11.0511 14.0015 10.8603 14.0805 10.7197 14.2212C10.579 14.3618 10.5 14.5526 10.5 14.7515C10.5 14.9504 10.579 15.1412 10.7197 15.2818C10.8603 15.4225 11.0511 15.5015 11.25 15.5015ZM6 14.7515C6 14.9504 5.92098 15.1412 5.78033 15.2818C5.63968 15.4225 5.44891 15.5015 5.25 15.5015C5.05109 15.5015 4.86032 15.4225 4.71967 15.2818C4.57902 15.1412 4.5 14.9504 4.5 14.7515C4.5 14.5526 4.57902 14.3618 4.71967 14.2212C4.86032 14.0805 5.05109 14.0015 5.25 14.0015C5.44891 14.0015 5.63968 14.0805 5.78033 14.2212C5.92098 14.3618 6 14.5526 6 14.7515ZM14.043 11.0015L14.178 11.9375C14.688 12.4745 15 13.202 15 14.0015V18.5015C15 18.8993 14.842 19.2809 14.5607 19.5622C14.2794 19.8435 13.8978 20.0015 13.5 20.0015C13.1022 20.0015 12.7206 19.8435 12.4393 19.5622C12.158 19.2809 12 18.8993 12 18.5015H4.5C4.5 18.8993 4.34196 19.2809 4.06066 19.5622C3.77936 19.8435 3.39782 20.0015 3 20.0015C2.60218 20.0015 2.22064 19.8435 1.93934 19.5622C1.65804 19.2809 1.5 18.8993 1.5 18.5015V14.0015C1.5 13.202 1.8135 12.4745 2.3235 11.9375L2.457 11.0015H1.5C1.30109 11.0015 1.11032 10.9225 0.96967 10.7818C0.829018 10.6412 0.75 10.4504 0.75 10.2515C0.75 10.0526 0.829018 9.86182 0.96967 9.72117C1.11032 9.58052 1.30109 9.5015 1.5 9.5015H2.67L2.823 8.4335C2.89955 7.89728 3.16698 7.40667 3.57617 7.05177C3.98536 6.69686 4.50884 6.50148 5.0505 6.5015H11.4495C11.9912 6.50148 12.5146 6.69686 12.9238 7.05177C13.333 7.40667 13.6004 7.89728 13.677 8.4335L13.8285 9.5015H15C15.1989 9.5015 15.3897 9.58052 15.5303 9.72117C15.671 9.86182 15.75 10.0526 15.75 10.2515C15.75 10.4504 15.671 10.6412 15.5303 10.7818C15.3897 10.9225 15.1989 11.0015 15 11.0015H14.043ZM4.308 8.6465L3.9645 11.0495C4.1385 11.0175 4.317 11.0015 4.5 11.0015H12C12.182 11.0015 12.3605 11.0175 12.5355 11.0495L12.1905 8.645C12.1649 8.46686 12.0762 8.30385 11.9404 8.18572C11.8047 8.06758 11.631 8.0022 11.451 8.0015H5.0505C4.8698 8.00153 4.69518 8.0668 4.55876 8.1853C4.42234 8.30381 4.3333 8.46758 4.308 8.6465ZM13.5 14.0015C13.5 13.6037 13.342 13.2221 13.0607 12.9408C12.7794 12.6595 12.3978 12.5015 12 12.5015H4.5C4.10218 12.5015 3.72064 12.6595 3.43934 12.9408C3.15804 13.2221 3 13.6037 3 14.0015V17.0015H13.5V14.0015Z" fill="#5E6C84"/>
</svg>
