<svg width="18" height="20" viewBox="0 0 18 20" fill="none" xmlns="http://www.w3.org/2000/svg">
<path d="M13.5 15.5365C13.9688 15.5365 14.3674 15.3739 14.6959 15.0488C15.0244 14.7237 15.1883 14.3283 15.1875 13.8626C15.1868 13.3969 15.0229 13.0019 14.6959 12.6776C14.3689 12.3532 13.9703 12.1903 13.5 12.1888C13.0298 12.1873 12.6315 12.3502 12.3053 12.6776C11.979 13.0049 11.8148 13.3999 11.8125 13.8626C11.8103 14.3254 11.9745 14.7208 12.3053 15.0488C12.636 15.3769 13.0343 15.5394 13.5 15.5365ZM13.5 18.8841C14.0955 18.8841 14.6336 18.7528 15.1144 18.4902C15.5944 18.2276 15.9919 17.8731 16.3069 17.4268C15.8794 17.1709 15.4312 16.9778 14.9625 16.8476C14.4937 16.7174 14.0063 16.6523 13.5 16.6523C12.9938 16.6523 12.5063 16.7174 12.0375 16.8476C11.5688 16.9778 11.121 17.1712 10.6943 17.4279C11.0085 17.8742 11.406 18.2283 11.8868 18.4902C12.366 18.7528 12.9038 18.8841 13.5 18.8841ZM7.875 19.9576C5.6145 19.2918 3.73688 17.9338 2.24213 15.8835C0.747379 13.8333 3.8147e-06 11.523 3.8147e-06 8.95274V2.91804L7.875 2.86102e-06L15.75 2.91804V9.22948C15.5813 9.16699 15.396 9.11083 15.1943 9.06098L14.1055 8.97099V3.73303L7.875 1.63144L1.5 3.73303V9C1.5 10.1032 1.66425 11.1596 1.99275 12.1691C2.3205 13.1794 2.7675 14.1085 3.33375 14.9566C3.9 15.8047 4.56938 16.5449 5.34188 17.1772C6.11438 17.8095 6.74886 18.2132 7.62561 18.5473L7.92163 18.7011C8.01238 18.9243 7.95413 19.3044 8.08988 19.5156C8.22488 19.7254 8.13338 19.6158 8.30588 19.8003C8.22938 19.8293 8.15738 19.8553 8.08988 19.8784L7.875 19.9576ZM13.5 20C12.2468 20 11.1836 19.567 10.3106 18.7011C9.43688 17.8337 9 16.7788 9 15.5365C9 14.2941 9.43688 13.2396 10.3106 12.3729C11.1844 11.5063 12.2475 11.0729 13.5 11.0729C14.7525 11.0729 15.816 11.5063 16.6905 12.3729C17.565 13.2396 18.0015 14.2941 18 15.5365C17.9985 16.7788 17.562 17.8337 16.6905 18.7011C15.819 19.5685 14.7555 20.0015 13.5 20Z" fill="#5E6C84"/>
</svg>
