<svg width="20" height="20" viewBox="0 0 20 20" fill="none" xmlns="http://www.w3.org/2000/svg">
<g clip-path="url(#clip0_2769_65301)">
<path d="M5.60065 13.868C5.81282 13.8061 6.04089 13.831 6.23468 13.9373C6.42847 14.0436 6.5721 14.2225 6.63398 14.4346C6.69587 14.6468 6.67093 14.8749 6.56466 15.0687C6.45839 15.2625 6.27949 15.4061 6.06732 15.468C5.65065 15.5896 5.35065 15.718 5.15815 15.8346C5.35648 15.9538 5.66982 16.0871 6.10482 16.2113C7.06732 16.4863 8.44482 16.668 10.0007 16.668C11.5565 16.668 12.934 16.4863 13.8965 16.2113C14.3323 16.0871 14.6448 15.9538 14.8432 15.8346C14.6515 15.718 14.3515 15.5896 13.9348 15.468C13.726 15.4034 13.5509 15.2593 13.4473 15.0668C13.3437 14.8743 13.3199 14.6488 13.381 14.4389C13.4421 14.229 13.5832 14.0516 13.774 13.9448C13.9647 13.838 14.1898 13.8104 14.4007 13.868C14.9573 14.0305 15.4673 14.2388 15.859 14.5063C16.2215 14.7555 16.6673 15.1896 16.6673 15.8346C16.6673 16.4871 16.2107 16.9246 15.8423 17.1738C15.444 17.4421 14.9232 17.6513 14.354 17.8138C13.2057 18.143 11.6673 18.3346 10.0007 18.3346C8.33398 18.3346 6.79565 18.143 5.64732 17.8138C5.07815 17.6513 4.55732 17.4421 4.15898 17.1738C3.79065 16.9238 3.33398 16.4871 3.33398 15.8346C3.33398 15.1896 3.77982 14.7555 4.14232 14.5063C4.53398 14.2388 5.04398 14.0305 5.60065 13.868ZM10.0007 1.66797C11.6583 1.66797 13.248 2.32645 14.4201 3.49855C15.5922 4.67065 16.2507 6.26037 16.2507 7.91797C16.2507 10.058 15.084 11.798 13.8757 13.0346C13.3953 13.5212 12.8791 13.9711 12.3315 14.3805C11.8365 14.7521 10.7048 15.4488 10.7048 15.4488C10.4902 15.5708 10.2475 15.6349 10.0007 15.6349C9.75377 15.6349 9.51112 15.5708 9.29648 15.4488C8.73462 15.1235 8.19154 14.7669 7.66982 14.3805C7.12194 13.9714 6.60574 13.5215 6.12565 13.0346C4.91732 11.798 3.75065 10.058 3.75065 7.91797C3.75065 6.26037 4.40913 4.67065 5.58123 3.49855C6.75334 2.32645 8.34305 1.66797 10.0007 1.66797ZM10.0007 3.33464C8.78508 3.33464 7.61929 3.81752 6.75974 4.67706C5.9002 5.5366 5.41732 6.70239 5.41732 7.91797C5.41732 9.4313 6.24732 10.7746 7.31732 11.868C8.12232 12.6913 9.00898 13.318 9.62315 13.703L10.0007 13.9313L10.3782 13.703C10.9915 13.318 11.879 12.6913 12.684 11.8688C13.754 10.7746 14.584 9.4313 14.584 7.91797C14.584 6.70239 14.1011 5.5366 13.2416 4.67706C12.382 3.81752 11.2162 3.33464 10.0007 3.33464ZM10.0007 5.41797C10.329 5.41797 10.654 5.48263 10.9574 5.60827C11.2607 5.73391 11.5363 5.91806 11.7684 6.1502C12.0006 6.38235 12.1847 6.65795 12.3103 6.96126C12.436 7.26457 12.5007 7.58966 12.5007 7.91797C12.5007 8.24627 12.436 8.57136 12.3103 8.87468C12.1847 9.17799 12.0006 9.45359 11.7684 9.68574C11.5363 9.91788 11.2607 10.102 10.9574 10.2277C10.654 10.3533 10.329 10.418 10.0007 10.418C9.33761 10.418 8.70172 10.1546 8.23288 9.68574C7.76404 9.2169 7.50065 8.58101 7.50065 7.91797C7.50065 7.25493 7.76404 6.61904 8.23288 6.1502C8.70172 5.68136 9.33761 5.41797 10.0007 5.41797ZM10.0007 7.08464C9.77964 7.08464 9.56768 7.17243 9.4114 7.32871C9.25512 7.48499 9.16732 7.69696 9.16732 7.91797C9.16732 8.13898 9.25512 8.35094 9.4114 8.50722C9.56768 8.6635 9.77964 8.7513 10.0007 8.7513C10.2217 8.7513 10.4336 8.6635 10.5899 8.50722C10.7462 8.35094 10.834 8.13898 10.834 7.91797C10.834 7.69696 10.7462 7.48499 10.5899 7.32871C10.4336 7.17243 10.2217 7.08464 10.0007 7.08464Z" fill="#3B82F6"/>
</g>
<defs>
<clipPath id="clip0_2769_65301">
<rect width="20" height="20" fill="white"/>
</clipPath>
</defs>
</svg>
