<svg width="21" height="21" viewBox="0 0 21 21" fill="none" xmlns="http://www.w3.org/2000/svg">
<path d="M9.99957 1.5C5.30546 1.5 1.5 5.30546 1.5 9.99957C1.5 14.6937 5.30546 18.5 9.99957 18.5C14.6937 18.5 18.5 14.6945 18.5 9.99957C18.4991 5.30546 14.6945 1.5 9.99957 1.5ZM3.20077 9.99957C3.20077 9.10674 3.37662 8.22265 3.71829 7.39778C4.05997 6.57291 4.56076 5.82342 5.19209 5.19209C5.82342 4.56076 6.57291 4.05997 7.39778 3.71829C8.22265 3.37662 9.10674 3.20077 9.99957 3.20077C10.8924 3.20077 11.7765 3.37662 12.6014 3.71829C13.4262 4.05997 14.1757 4.56076 14.8071 5.19209C15.4384 5.82342 15.9392 6.57291 16.2809 7.39778C16.6225 8.22265 16.7984 9.10674 16.7984 9.99957C16.7984 11.8027 16.0821 13.532 14.8071 14.8071C13.532 16.0821 11.8027 16.7984 9.99957 16.7984C8.19642 16.7984 6.46711 16.0821 5.19209 14.8071C3.91707 13.532 3.20077 11.8027 3.20077 9.99957ZM13.5814 7.27665C13.7408 7.43612 13.8304 7.65238 13.8304 7.87787C13.8304 8.10336 13.7408 8.31962 13.5814 8.47909L9.75466 12.3058C9.59519 12.4652 9.37894 12.5548 9.15344 12.5548C8.92795 12.5548 8.71169 12.4652 8.55222 12.3058L6.85146 10.605C6.69655 10.4447 6.61084 10.2299 6.61278 10.0069C6.61472 9.78392 6.70415 9.57063 6.86182 9.41297C7.01949 9.2553 7.23277 9.16586 7.45574 9.16393C7.67871 9.16199 7.89352 9.2477 8.0539 9.40261L9.15344 10.5022L12.3789 7.27665C12.5384 7.11723 12.7547 7.02767 12.9802 7.02767C13.2057 7.02767 13.4219 7.11723 13.5814 7.27665Z" fill="#84CC16"/>
</svg>
