<svg width="104" height="104" viewBox="0 0 104 104" fill="none" xmlns="http://www.w3.org/2000/svg">
<g clip-path="url(#clip0_1247_63264)">
<rect x="1" y="1" width="102" height="102" rx="51" fill="#F3F4F6"/>
<mask id="mask0_1247_63264" style="mask-type:alpha" maskUnits="userSpaceOnUse" x="1" y="1" width="102" height="102">
<circle cx="52" cy="52" r="51" fill="#F1F5F9"/>
</mask>
<g mask="url(#mask0_1247_63264)">
<path d="M103 90.2245V103.004H1V90.2712C6.93278 82.3427 14.6336 75.9077 23.4901 71.478C32.3466 67.0482 42.1145 64.746 52.017 64.7542C72.859 64.7542 91.372 74.7587 103 90.2245ZM69.0085 39.25C69.0085 43.7587 67.2174 48.0827 64.0293 51.2708C60.8412 54.4589 56.5172 56.25 52.0085 56.25C47.4998 56.25 43.1758 54.4589 39.9877 51.2708C36.7996 48.0827 35.0085 43.7587 35.0085 39.25C35.0085 34.7413 36.7996 30.4173 39.9877 27.2292C43.1758 24.0411 47.4998 22.25 52.0085 22.25C56.5172 22.25 60.8412 24.0411 64.0293 27.2292C67.2174 30.4173 69.0085 34.7413 69.0085 39.25Z" fill="#CBD5E1"/>
</g>
</g>
<rect x="0.5" y="0.5" width="103" height="103" rx="51.5" stroke="#EBECF0"/>
<defs>
<clipPath id="clip0_1247_63264">
<rect x="1" y="1" width="102" height="102" rx="51" fill="white"/>
</clipPath>
</defs>
</svg>
