<svg width="24" height="24" viewBox="0 0 24 24" fill="none" xmlns="http://www.w3.org/2000/svg">
<path d="M20.3792 8.5711L19.1492 10.4211C19.7424 11.6042 20.0328 12.9159 19.9944 14.2388C19.956 15.5617 19.59 16.8544 18.9292 18.0011H5.0692C4.21036 16.5112 3.85449 14.7842 4.05434 13.0762C4.25418 11.3681 4.99911 9.76992 6.17867 8.51853C7.35824 7.26713 8.90966 6.42914 10.6029 6.12879C12.2962 5.82845 14.0412 6.08173 15.5792 6.8511L17.4292 5.6211C15.5457 4.41331 13.3115 3.8721 11.0841 4.08403C8.85665 4.29597 6.76464 5.24879 5.14269 6.79011C3.52074 8.33142 2.46256 10.3722 2.13741 12.5859C1.81227 14.7997 2.23895 17.0585 3.3492 19.0011C3.52371 19.3034 3.77428 19.5547 4.07603 19.7301C4.37777 19.9056 4.72017 19.999 5.0692 20.0011H18.9192C19.2716 20.0025 19.6181 19.9107 19.9237 19.7351C20.2293 19.5595 20.483 19.3063 20.6592 19.0011C21.5806 17.405 22.043 15.5854 21.9953 13.7431C21.9477 11.9007 21.3918 10.1074 20.3892 8.5611L20.3792 8.5711ZM10.5892 15.4111C10.7749 15.5971 10.9955 15.7446 11.2383 15.8452C11.4811 15.9459 11.7414 15.9977 12.0042 15.9977C12.267 15.9977 12.5273 15.9459 12.7701 15.8452C13.0129 15.7446 13.2334 15.5971 13.4192 15.4111L19.0792 6.9211L10.5892 12.5811C10.4032 12.7668 10.2557 12.9874 10.1551 13.2302C10.0544 13.473 10.0026 13.7333 10.0026 13.9961C10.0026 14.2589 10.0544 14.5192 10.1551 14.762C10.2557 15.0048 10.4032 15.2254 10.5892 15.4111Z" fill="#2E9245"/>
</svg>
