<svg width="112" height="60" viewBox="0 0 112 60" fill="none" xmlns="http://www.w3.org/2000/svg">
<path d="M111.332 60.0009V39.4173C106.52 39.4173 102.395 32.6832 97.582 32.6832C92.7695 32.6832 88.6445 38.5755 83.832 38.5755C79.0195 38.5755 74.8945 26.5104 70.082 26.5104C65.2695 26.5104 61.1445 20.6182 56.332 20.6182C51.5195 20.6182 47.3945 17.5317 42.582 17.5317C37.7695 17.5317 33.6445 14.4453 28.832 14.4453C24.0195 14.4453 19.8945 20.6182 15.082 20.6182C10.2695 20.6182 6.14454 29.5968 1.33204 29.5968C1.33204 29.5968 1.33204 47.3746 1.33204 60.0009" fill="url(#paint0_linear_206_49350)"/>
<path d="M111.332 38.8898C106.52 38.8898 102.395 32.298 97.582 32.298C92.7695 32.298 88.6445 38.0658 83.832 38.0658C79.0195 38.0658 74.8945 26.2556 70.082 26.2556C65.2695 26.2556 61.1445 20.4878 56.332 20.4878C51.5195 20.4878 47.3945 17.4665 42.582 17.4665C37.7695 17.4665 33.6445 14.4453 28.832 14.4453C24.0195 14.4453 19.8945 20.4878 15.082 20.4878C10.2695 20.4878 6.14453 29.2768 1.33204 29.2768" stroke="#3B82F6" stroke-linecap="round"/>
<defs>
<linearGradient id="paint0_linear_206_49350" x1="56.332" y1="14.4453" x2="56.332" y2="60.0009" gradientUnits="userSpaceOnUse">
<stop stop-color="#3B82F6" stop-opacity="0.32"/>
<stop offset="1" stop-color="#3B82F6" stop-opacity="0.08"/>
</linearGradient>
</defs>
</svg>
