<svg width="24" height="24" viewBox="0 0 24 24" fill="none" xmlns="http://www.w3.org/2000/svg">
<path d="M9.275 19H14.725L14.225 17H9.775L9.275 19ZM9 15H15C16.3833 15 17.5627 14.5123 18.538 13.537C19.5133 12.5617 20.0007 11.3827 20 10C20 8.61667 19.5123 7.43733 18.537 6.462C17.5617 5.48667 16.3827 4.99933 15 5H9C7.61667 5 6.43733 5.48767 5.462 6.463C4.48667 7.43833 3.99933 8.61733 4 10C4 11.3833 4.48767 12.5627 5.463 13.538C6.43833 14.5133 7.61733 15.0007 9 15ZM12 12C11.45 12 10.979 11.804 10.587 11.412C10.195 11.02 9.99933 10.5493 10 10C10 9.45 10.196 8.979 10.588 8.587C10.98 8.195 11.4507 7.99933 12 8C12.55 8 13.021 8.196 13.413 8.588C13.805 8.98 14.0007 9.45067 14 10C14 10.55 13.804 11.021 13.412 11.413C13.02 11.805 12.5493 12.0007 12 12ZM6.5 9C6.78333 9 7.021 8.904 7.213 8.712C7.405 8.52 7.50067 8.28267 7.5 8C7.5 7.71667 7.404 7.479 7.212 7.287C7.02 7.095 6.78267 6.99933 6.5 7C6.21667 7 5.979 7.096 5.787 7.288C5.595 7.48 5.49933 7.71733 5.5 8C5.5 8.28333 5.596 8.521 5.788 8.713C5.98 8.905 6.21733 9.00067 6.5 9ZM4 21V19H7.225L7.75 16.9C6.1 16.6167 4.72933 15.829 3.638 14.537C2.54667 13.245 2.00067 11.7327 2 10C2 8.05 2.67933 6.39567 4.038 5.037C5.39667 3.67833 7.05067 2.99933 9 3H15C16.95 3 18.6043 3.67933 19.963 5.038C21.3217 6.39667 22.0007 8.05067 22 10C22 11.7333 21.454 13.246 20.362 14.538C19.27 15.83 17.8993 16.6173 16.25 16.9L16.775 19H20V21H4ZM12 14C13.1 14 14.0417 13.6083 14.825 12.825C15.6083 12.0417 16 11.1 16 10C16 8.9 15.6083 7.95833 14.825 7.175C14.0417 6.39167 13.1 6 12 6C10.9 6 9.95833 6.39167 9.175 7.175C8.39167 7.95833 8 8.9 8 10C8 11.1 8.39167 12.0417 9.175 12.825C9.95833 13.6083 10.9 14 12 14Z" fill="#2E9245"/>
</svg>
