<svg width="21" height="20" viewBox="0 0 21 20" fill="none" xmlns="http://www.w3.org/2000/svg">
<path d="M10.5008 12.5018C10.0064 12.5018 9.523 12.6484 9.11188 12.9231C8.70076 13.1978 8.38033 13.5882 8.19111 14.0451C8.00189 14.5019 7.95238 15.0045 8.04884 15.4895C8.14531 15.9744 8.38341 16.4199 8.73304 16.7695C9.08267 17.1192 9.52813 17.3573 10.0131 17.4537C10.498 17.5502 11.0007 17.5007 11.4575 17.3115C11.9143 17.1222 12.3048 16.8018 12.5795 16.3907C12.8542 15.9796 13.0008 15.4962 13.0008 15.0018C13.0008 14.3387 12.7374 13.7028 12.2686 13.234C11.7997 12.7652 11.1638 12.5018 10.5008 12.5018ZM10.5008 15.8351C10.336 15.8351 10.1749 15.7862 10.0378 15.6947C9.90079 15.6031 9.79398 15.4729 9.73091 15.3207C9.66783 15.1684 9.65133 15.0008 9.68349 14.8392C9.71564 14.6775 9.79501 14.529 9.91155 14.4125C10.0281 14.296 10.1766 14.2166 10.3382 14.1844C10.4999 14.1523 10.6674 14.1688 10.8197 14.2319C10.972 14.2949 11.1021 14.4017 11.1937 14.5388C11.2853 14.6758 11.3341 14.8369 11.3341 15.0018C11.3341 15.2228 11.2463 15.4347 11.0901 15.591C10.9338 15.7473 10.7218 15.8351 10.5008 15.8351ZM10.5008 9.16843C8.95475 9.17375 7.47293 9.78744 6.37581 10.8768C6.2206 11.0329 6.13348 11.2441 6.13348 11.4643C6.13348 11.6844 6.2206 11.8956 6.37581 12.0518C6.53194 12.207 6.74315 12.2941 6.96331 12.2941C7.18346 12.2941 7.39467 12.207 7.55081 12.0518C7.93785 11.6637 8.39765 11.3559 8.90386 11.1458C9.41007 10.9358 9.95275 10.8276 10.5008 10.8276C11.0489 10.8276 11.5915 10.9358 12.0978 11.1458C12.604 11.3559 13.0638 11.6637 13.4508 12.0518C13.6047 12.2088 13.8143 12.2986 14.0341 12.3018C14.2032 12.3115 14.3713 12.2695 14.5159 12.1813C14.6605 12.0931 14.7748 11.963 14.8435 11.8083C14.9123 11.6535 14.9323 11.4814 14.9009 11.315C14.8694 11.1486 14.788 10.9957 14.6675 10.8768C14.1192 10.3323 13.469 9.90127 12.7541 9.60815C12.0391 9.31504 11.2735 9.16562 10.5008 9.16843ZM10.5008 5.83509C8.07079 5.84155 5.74129 6.80569 4.01747 8.51843C3.93977 8.59612 3.87814 8.68837 3.83609 8.78988C3.79404 8.8914 3.7724 9.00021 3.7724 9.11009C3.7724 9.33201 3.86055 9.54484 4.01747 9.70176C4.17439 9.85868 4.38722 9.94684 4.60914 9.94684C4.83106 9.94684 5.04389 9.85868 5.20081 9.70176C6.60706 8.29725 8.5133 7.50836 10.5008 7.50836C12.4883 7.50836 14.3946 8.29725 15.8008 9.70176C15.8787 9.77899 15.971 9.8401 16.0726 9.88157C16.1741 9.92304 16.2828 9.94406 16.3925 9.94343C16.5021 9.94406 16.6109 9.92304 16.7124 9.88157C16.8139 9.8401 16.9063 9.77899 16.9841 9.70176C17.0622 9.62429 17.1242 9.53212 17.1665 9.43057C17.2089 9.32902 17.2306 9.2201 17.2306 9.11009C17.2306 9.00008 17.2089 8.89116 17.1665 8.78961C17.1242 8.68806 17.0622 8.59589 16.9841 8.51843C15.2603 6.80569 12.9308 5.84155 10.5008 5.83509ZM19.3425 6.16009C18.1816 4.99851 16.8033 4.07705 15.2862 3.44837C13.7691 2.81968 12.143 2.49609 10.5008 2.49609C8.85861 2.49609 7.2325 2.81968 5.71541 3.44837C4.19832 4.07705 2.81998 4.99851 1.65914 6.16009C1.50222 6.31701 1.41406 6.52984 1.41406 6.75176C1.41406 6.97368 1.50222 7.18651 1.65914 7.34343C1.81606 7.50035 2.02889 7.5885 2.25081 7.5885C2.47272 7.5885 2.68555 7.50035 2.84247 7.34343C4.87395 5.313 7.6286 4.1724 10.5008 4.1724C13.373 4.1724 16.1277 5.313 18.1591 7.34343C18.2366 7.42153 18.3288 7.48353 18.4303 7.52584C18.5319 7.56814 18.6408 7.58992 18.7508 7.58992C18.8608 7.58992 18.9697 7.56814 19.0713 7.52584C19.1728 7.48353 19.265 7.42153 19.3425 7.34343C19.4206 7.26596 19.4826 7.17379 19.5249 7.07224C19.5672 6.97069 19.589 6.86177 19.589 6.75176C19.589 6.64175 19.5672 6.53283 19.5249 6.43128C19.4826 6.32973 19.4206 6.23756 19.3425 6.16009Z" fill="#22C55E"/>
</svg>
