<svg width="14" height="13" viewBox="0 0 14 13" fill="none" xmlns="http://www.w3.org/2000/svg">
<path d="M2.4258 3.16807C3.93644 1.40062 6.42968 0.83731 8.55345 1.78361C8.84773 1.91473 9.19258 1.78247 9.3237 1.48819C9.45482 1.19392 9.32256 0.849065 9.02829 0.717943C6.43256 -0.438645 3.38527 0.249851 1.53893 2.41006C-0.30741 4.57028 -0.512966 7.68761 1.03373 10.0716C2.58043 12.4555 5.51093 13.5382 8.23605 12.7324C10.9612 11.9267 12.8317 9.42418 12.8334 6.58244V6.03994C12.8334 5.71778 12.5722 5.45661 12.25 5.45661C11.9279 5.45661 11.6667 5.71778 11.6667 6.03994V6.58211C11.6654 8.90717 10.1349 10.9544 7.90526 11.6137C5.67562 12.2729 3.27793 11.3871 2.01245 9.43657C0.746974 7.48607 0.915156 4.93552 2.4258 3.16807Z" fill="#008743"/>
<path d="M13.2458 1.74492C13.4737 1.51712 13.4737 1.14777 13.2458 0.919964C13.018 0.692158 12.6487 0.692158 12.4209 0.919964L6.4167 6.92415L5.07918 5.58663C4.85138 5.35883 4.48203 5.35883 4.25422 5.58663C4.02642 5.81444 4.02642 6.18378 4.25422 6.41159L6.00422 8.16159C6.23203 8.3894 6.60138 8.3894 6.82918 8.16159L13.2458 1.74492Z" fill="#008743"/>
</svg>
