<svg width="21" height="20" viewBox="0 0 21 20" fill="none" xmlns="http://www.w3.org/2000/svg">
<rect x="0.667969" width="20" height="20" rx="10" fill="#FEF2F2"/>
<path d="M12.3946 12.0736C12.3946 11.6912 12.7036 11.3823 13.086 11.3823C13.4684 11.3823 13.7773 11.6912 13.7773 12.0736L13.7773 15.5304C13.7773 15.9128 13.4684 16.2218 13.086 16.2218L9.62919 16.2218C9.24679 16.2218 8.93784 15.9128 8.93784 15.5304C8.93784 15.148 9.24679 14.8391 9.62919 14.8391L11.4159 14.8391L7.75821 11.1792C7.48815 10.9091 7.48815 10.4727 7.75821 10.2027L10.0332 7.90605L7.06685 4.95762C6.79679 4.68756 6.79679 4.24984 7.06685 3.97982C7.33691 3.70985 7.77333 3.70985 8.04339 3.97982L11.5002 7.43722C11.7702 7.70728 11.7702 8.1437 11.5002 8.41376L9.22518 10.6909L12.4141 13.8604L12.3946 12.0736Z" fill="#EF4444"/>
</svg>
