<svg width="32" height="32" viewBox="0 0 32 32" fill="none" xmlns="http://www.w3.org/2000/svg">
<g clip-path="url(#clip0_1066_15023)">
<path d="M17.9 7.66602C18.2498 7.66611 18.5907 7.77625 18.8744 7.98086C19.1581 8.18546 19.3703 8.47414 19.4808 8.80602L19.9333 10.166H22.6667C22.8877 10.166 23.0996 10.2538 23.2559 10.4101C23.4122 10.5664 23.5 10.7783 23.5 10.9993C23.5 11.2204 23.4122 11.4323 23.2559 11.5886C23.0996 11.7449 22.8877 11.8327 22.6667 11.8327L22.6642 11.8918L21.9417 22.011C21.8966 22.6415 21.6143 23.2315 21.1517 23.6623C20.6891 24.0931 20.0805 24.3326 19.4483 24.3327H12.5517C11.9195 24.3326 11.3109 24.0931 10.8483 23.6623C10.3857 23.2315 10.1034 22.6415 10.0583 22.011L9.33583 11.891L9.33333 11.8327C9.11232 11.8327 8.90036 11.7449 8.74408 11.5886C8.5878 11.4323 8.5 11.2204 8.5 10.9993C8.5 10.7783 8.5878 10.5664 8.74408 10.4101C8.90036 10.2538 9.11232 10.166 9.33333 10.166H12.0667L12.5192 8.80602C12.6297 8.47401 12.842 8.18523 13.1259 7.98061C13.4098 7.776 13.7509 7.66593 14.1008 7.66602H17.9ZM20.9975 11.8327H11.0025L11.7208 21.8918C11.7358 22.102 11.8298 22.2987 11.984 22.4424C12.1381 22.586 12.341 22.6659 12.5517 22.666H19.4483C19.659 22.6659 19.8619 22.586 20.016 22.4424C20.1702 22.2987 20.2642 22.102 20.2792 21.8918L20.9975 11.8327ZM14.3333 14.3327C14.5374 14.3327 14.7344 14.4076 14.887 14.5433C15.0395 14.6789 15.137 14.8658 15.1608 15.0685L15.1667 15.166V19.3327C15.1664 19.5451 15.0851 19.7494 14.9393 19.9038C14.7935 20.0583 14.5942 20.1512 14.3822 20.1637C14.1701 20.1761 13.9614 20.1071 13.7985 19.9708C13.6356 19.8345 13.5309 19.6411 13.5058 19.4302L13.5 19.3327V15.166C13.5 14.945 13.5878 14.733 13.7441 14.5768C13.9004 14.4205 14.1123 14.3327 14.3333 14.3327ZM17.6667 14.3327C17.8877 14.3327 18.0996 14.4205 18.2559 14.5768C18.4122 14.733 18.5 14.945 18.5 15.166V19.3327C18.5 19.5537 18.4122 19.7657 18.2559 19.9219C18.0996 20.0782 17.8877 20.166 17.6667 20.166C17.4457 20.166 17.2337 20.0782 17.0774 19.9219C16.9211 19.7657 16.8333 19.5537 16.8333 19.3327V15.166C16.8333 14.945 16.9211 14.733 17.0774 14.5768C17.2337 14.4205 17.4457 14.3327 17.6667 14.3327ZM17.9 9.33268H14.1L13.8225 10.166H18.1775L17.9 9.33268Z" fill="#505F79"/>
</g>
<defs>
<clipPath id="clip0_1066_15023">
<rect width="20" height="20" fill="white" transform="translate(6 6)"/>
</clipPath>
</defs>
</svg>
