<svg width="21" height="21" viewBox="0 0 21 21" fill="none" xmlns="http://www.w3.org/2000/svg">
<g clip-path="url(#clip0_2769_65320)">
<path d="M11.6673 16.6628C11.6673 17.3071 11.145 17.8294 10.5007 17.8294C9.85632 17.8294 9.33398 17.3071 9.33398 16.6628C9.33398 16.0184 9.85632 15.4961 10.5007 15.4961C11.145 15.4961 11.6673 16.0184 11.6673 16.6628Z" stroke="#7A869A"/>
<path d="M16.7118 10.0878L16.7729 9.99332C16.8332 9.89983 16.8743 9.79527 16.8938 9.68574C16.9134 9.57621 16.9109 9.46388 16.8866 9.35531C16.8623 9.24674 16.8166 9.14408 16.7523 9.05332C16.6879 8.96256 16.6062 8.88551 16.5118 8.82665C14.7054 7.71075 12.6239 7.12015 10.5007 7.12109C10.1895 7.12109 9.88398 7.12109 9.58398 7.15998L11.3673 8.94332C12.8644 9.07562 14.31 9.55496 15.5895 10.3433C15.7732 10.4546 15.9929 10.4902 16.2023 10.4425C16.4117 10.3948 16.5944 10.2676 16.7118 10.0878Z" fill="#7A869A"/>
<path d="M18.7007 5.46159C16.8492 4.30681 14.7747 3.55598 12.613 3.25824C10.4512 2.9605 8.25102 3.12256 6.15625 3.73381L7.61736 5.19492C11.1081 4.44553 14.7535 5.08731 17.7785 6.98381C17.9611 7.09172 18.1783 7.12537 18.385 7.07782C18.5918 7.03026 18.7724 6.90513 18.8896 6.72826L18.9507 6.63381C19.0124 6.54079 19.0549 6.43639 19.0757 6.32672C19.0966 6.21706 19.0953 6.10434 19.072 5.99517C19.0487 5.886 19.0039 5.78257 18.9401 5.69095C18.8764 5.59933 18.795 5.52135 18.7007 5.46159Z" fill="#7A869A"/>
<path d="M2.16686 2.8888L3.88908 4.61102C3.33116 4.86861 2.78942 5.15989 2.26686 5.48325C2.17123 5.54166 2.08827 5.61863 2.02288 5.70963C1.95749 5.80063 1.91099 5.90381 1.88613 6.01308C1.86128 6.12234 1.85856 6.23548 1.87815 6.34582C1.89774 6.45615 1.93924 6.56144 2.00019 6.65547L2.0613 6.74991C2.17847 6.92679 2.35909 7.05192 2.56585 7.09947C2.77261 7.14703 2.98974 7.11338 3.17241 7.00547C3.82135 6.59726 4.50337 6.24417 5.2113 5.94991L6.95575 7.69436C6.07298 7.97816 5.22791 8.36805 4.43908 8.85547C4.34512 8.91478 4.26387 8.99216 4.20006 9.08313C4.13625 9.17409 4.09115 9.27683 4.06738 9.38537C4.0436 9.49391 4.04162 9.60609 4.06156 9.71541C4.0815 9.82472 4.12296 9.92898 4.18353 10.0221L4.24464 10.1166C4.36181 10.2935 4.54242 10.4186 4.74918 10.4661C4.95595 10.5137 5.17308 10.48 5.35575 10.3721C6.29818 9.78919 7.33353 9.37204 8.41686 9.1388L10.4169 11.1388C9.08618 11.1524 7.7835 11.5226 6.64464 12.211C6.55086 12.2698 6.46973 12.3467 6.40599 12.4372C6.34224 12.5276 6.29716 12.6299 6.27337 12.738C6.24958 12.8461 6.24756 12.9578 6.26742 13.0667C6.28729 13.1756 6.32865 13.2794 6.38908 13.3721L6.44464 13.461C6.56688 13.6417 6.75431 13.7681 6.96765 13.8136C7.18099 13.8592 7.40369 13.8204 7.58908 13.7055C8.33678 13.2613 9.17667 12.9952 10.0437 12.9278C10.9108 12.8603 11.7817 12.9934 12.5891 13.3166L16.6113 17.3332L17.3946 16.5499L2.95019 2.10547L2.16686 2.8888Z" fill="#7A869A"/>
</g>
<defs>
<clipPath id="clip0_2769_65320">
<rect width="20" height="20" fill="white" transform="translate(0.5 0.25)"/>
</clipPath>
</defs>
</svg>
