<svg width="24" height="24" viewBox="0 0 24 24" fill="none" xmlns="http://www.w3.org/2000/svg">
<path d="M21.837 12.9181C21.555 13.6881 20.701 14.3051 18.995 15.5381C16.668 17.2181 15.505 18.0581 14.531 17.9971C14.1638 17.9748 13.8051 17.8777 13.4769 17.7117C13.1486 17.5458 12.8577 17.3145 12.622 17.0321C12 16.2861 12 14.8581 12 12.0001C12 9.1421 12 7.7141 12.622 6.9681C12.8578 6.68558 13.1489 6.45424 13.4773 6.2883C13.8058 6.12235 14.1647 6.0253 14.532 6.0031C15.504 5.9421 16.668 6.7821 18.995 8.4631C20.701 9.6951 21.555 10.3121 21.837 11.0831C22.0538 11.6756 22.0538 12.3256 21.837 12.9181Z" stroke="#42526E" stroke-width="1.5" stroke-linecap="round" stroke-linejoin="round"/>
<path d="M11.837 12.9181C11.555 13.6881 10.701 14.3051 8.995 15.5381C6.668 17.2181 5.505 18.0581 4.531 17.9971C4.16385 17.9748 3.80513 17.8777 3.47686 17.7117C3.14859 17.5458 2.85769 17.3145 2.622 17.0321C2 16.2861 2 14.8581 2 12.0001C2 9.1421 2 7.7141 2.622 6.9681C2.8578 6.68558 3.14886 6.45424 3.47732 6.2883C3.80577 6.12235 4.16468 6.0253 4.532 6.0031C5.504 5.9421 6.668 6.7821 8.995 8.4631C10.701 9.6951 11.555 10.3121 11.837 11.0831C12.0538 11.6756 12.0538 12.3256 11.837 12.9181Z" stroke="#42526E" stroke-width="1.5" stroke-linecap="round" stroke-linejoin="round"/>
</svg>
