<svg width="24" height="24" viewBox="0 0 24 24" fill="none" xmlns="http://www.w3.org/2000/svg">
<path d="M2.163 12.9181C2.445 13.6881 3.299 14.3051 5.005 15.5381C7.332 17.2181 8.495 18.0581 9.469 17.9971C9.83615 17.9748 10.1949 17.8777 10.5231 17.7117C10.8514 17.5458 11.1423 17.3145 11.378 17.0321C12 16.2861 12 14.8581 12 12.0001C12 9.1421 12 7.7141 11.378 6.9681C11.1422 6.68558 10.8511 6.45424 10.5227 6.2883C10.1942 6.12235 9.83532 6.0253 9.468 6.0031C8.496 5.9421 7.332 6.7821 5.005 8.4631C3.299 9.6951 2.445 10.3121 2.163 11.0831C1.94621 11.6756 1.94621 12.3256 2.163 12.9181Z" stroke="#42526E" stroke-width="1.5" stroke-linecap="round" stroke-linejoin="round"/>
<path d="M12.163 12.9181C12.445 13.6881 13.299 14.3051 15.005 15.5381C17.332 17.2181 18.495 18.0581 19.469 17.9971C19.8362 17.9748 20.1949 17.8777 20.5231 17.7117C20.8514 17.5458 21.1423 17.3145 21.378 17.0321C22 16.2861 22 14.8581 22 12.0001C22 9.1421 22 7.7141 21.378 6.9681C21.1422 6.68558 20.8511 6.45424 20.5227 6.2883C20.1942 6.12235 19.8353 6.0253 19.468 6.0031C18.496 5.9421 17.332 6.7821 15.005 8.4631C13.299 9.6951 12.445 10.3121 12.163 11.0831C11.9462 11.6756 11.9462 12.3256 12.163 12.9181Z" stroke="#42526E" stroke-width="1.5" stroke-linecap="round" stroke-linejoin="round"/>
</svg>
