<svg width="10" height="12" viewBox="0 0 10 12" fill="none" xmlns="http://www.w3.org/2000/svg">
<path d="M9.08464 11.2513C9.08464 11.5735 8.82347 11.8346 8.5013 11.8346H1.5013C1.17914 11.8346 0.917969 11.5735 0.917969 11.2513V11.2513C0.917969 10.9291 1.17914 10.668 1.5013 10.668H8.5013C8.82347 10.668 9.08464 10.9291 9.08464 11.2513V11.2513ZM5.18079 9.32182C5.08166 9.42094 4.92094 9.42094 4.82182 9.32182L1.91284 6.41284C1.68555 6.18555 1.68555 5.81705 1.91284 5.58977V5.58977C2.1399 5.3627 2.50796 5.36245 2.73534 5.58919L4.41797 7.26714V0.751302C4.41797 0.429136 4.67914 0.167969 5.0013 0.167969V0.167969C5.32347 0.167969 5.58464 0.429136 5.58464 0.751302V7.26714L7.26727 5.58919C7.49464 5.36245 7.8627 5.3627 8.08977 5.58977V5.58977C8.31705 5.81705 8.31705 6.18555 8.08977 6.41284L5.18079 9.32182Z" fill="#6B778C"/>
</svg>
