<svg width="18" height="18" viewBox="0 0 18 18" fill="none" xmlns="http://www.w3.org/2000/svg">
<path d="M12.8848 6L5.11476 6C4.52226 6 4.16226 6.6525 4.48476 7.155L8.36976 13.26C8.4374 13.3669 8.53098 13.4549 8.64178 13.5159C8.75259 13.5769 8.87702 13.6089 9.00351 13.6089C9.13 13.6089 9.25444 13.5769 9.36524 13.5159C9.47605 13.4549 9.56962 13.3669 9.63726 13.26L13.5148 7.155C13.5879 7.04188 13.6292 6.9111 13.6342 6.77647C13.6393 6.64184 13.6079 6.50835 13.5434 6.39008C13.4789 6.27181 13.3836 6.17314 13.2677 6.10448C13.1518 6.03583 13.0195 5.99973 12.8848 6Z" fill="#42526E"/>
</svg>
