<svg width="24" height="24" viewBox="0 0 24 24" fill="none" xmlns="http://www.w3.org/2000/svg">
<rect width="24" height="24" transform="translate(24) rotate(90)" fill="white" fill-opacity="0.01"/>
<path fill-rule="evenodd" clip-rule="evenodd" d="M14.3018 10.2943C14.3937 10.2011 14.5033 10.1271 14.624 10.0765C14.7448 10.026 14.8744 10 15.0053 10C15.1362 10 15.2658 10.026 15.3866 10.0765C15.5074 10.1271 15.6169 10.2011 15.7088 10.2943C15.8954 10.4833 16 10.7382 16 11.0038C16 11.2694 15.8954 11.5243 15.7088 11.7133L12.7688 14.6783C12.6675 14.7805 12.5469 14.8616 12.4141 14.917C12.2812 14.9723 12.1387 15.0008 11.9948 15.0008C11.8509 15.0008 11.7084 14.9723 11.5756 14.917C11.4427 14.8616 11.3222 14.7805 11.2208 14.6783L8.29083 11.7233C8.10396 11.5342 7.99916 11.2791 7.99916 11.0133C7.99916 10.7475 8.10396 10.4924 8.29083 10.3033C8.38274 10.2101 8.49227 10.1361 8.61304 10.0855C8.73381 10.035 8.86341 10.009 8.99433 10.009C9.12524 10.009 9.25484 10.035 9.37561 10.0855C9.49638 10.1361 9.60591 10.2101 9.69783 10.3033L11.9948 12.6213L14.3018 10.2943Z" fill="#5E6C84"/>
</svg>
