<svg width="32" height="32" viewBox="0 0 32 32" fill="none" xmlns="http://www.w3.org/2000/svg">
<path d="M21.9088 18.0332V21.7332C21.9086 22.2567 21.7006 22.7587 21.3304 23.1289C20.9602 23.4991 20.4582 23.7072 19.9347 23.7074H10.2672C10.007 23.7073 9.74935 23.6557 9.50912 23.5558C9.26889 23.4558 9.05078 23.3093 8.86733 23.1248C8.68388 22.9403 8.5387 22.7213 8.44014 22.4805C8.34158 22.2397 8.29158 21.9817 8.293 21.7215V12.0649C8.29146 11.8051 8.34148 11.5476 8.44019 11.3073C8.53889 11.0669 8.68431 10.8486 8.86802 10.6649C9.05172 10.4812 9.27006 10.3358 9.51038 10.2371C9.75069 10.1384 10.0082 10.0883 10.268 10.0899H13.9672" stroke="#505F79" stroke-width="1.5" stroke-linecap="round" stroke-linejoin="round"/>
<path d="M21.9098 13.4951L18.5056 10.0901M11.6973 19.1684V17.3642C11.6989 17.0667 11.8173 16.7809 12.0264 16.5701L19.9698 8.62673C20.0753 8.52035 20.2008 8.43592 20.3391 8.3783C20.4774 8.32068 20.6258 8.29102 20.7756 8.29102C20.9254 8.29102 21.0738 8.32068 21.2121 8.3783C21.3504 8.43592 21.4759 8.52035 21.5814 8.62673L23.3739 10.4192C23.4805 10.5246 23.5651 10.6501 23.6229 10.7884C23.6806 10.9268 23.7103 11.0752 23.7103 11.2251C23.7103 11.375 23.6806 11.5234 23.6229 11.6617C23.5651 11.8 23.4805 11.9255 23.3739 12.0309L15.4306 19.9742C15.2193 20.1839 14.9341 20.3021 14.6364 20.3034H12.8323C12.5312 20.3034 12.2426 20.1838 12.0297 19.971C11.8168 19.7581 11.6973 19.4694 11.6973 19.1684Z" stroke="#505F79" stroke-width="1.5" stroke-linecap="round" stroke-linejoin="round"/>
</svg>
