<svg width="22" height="22" viewBox="0 0 22 22" fill="none" xmlns="http://www.w3.org/2000/svg">
<path d="M1.5 11C1.5 6.522 1.5 4.282 2.891 2.891C4.282 1.5 6.521 1.5 11 1.5C15.478 1.5 17.718 1.5 19.109 2.891C20.5 4.282 20.5 6.521 20.5 11M1.5 11C1.5 15.479 1.5 17.718 2.891 19.109C4.282 20.5 6.522 20.5 11 20.5C15.479 20.5 17.718 20.5 19.109 19.109C20.5 17.718 20.5 15.478 20.5 11M1.5 11H20.5M12 6H16" stroke="#5E6C84" stroke-width="1.5" stroke-linecap="round" stroke-linejoin="round"/>
<path d="M7.25 7.25C7.94036 7.25 8.5 6.69036 8.5 6C8.5 5.30964 7.94036 4.75 7.25 4.75C6.55964 4.75 6 5.30964 6 6C6 6.69036 6.55964 7.25 7.25 7.25Z" stroke="#5E6C84" stroke-width="1.5" stroke-linecap="round" stroke-linejoin="round"/>
<path d="M7.25 17.25C7.94036 17.25 8.5 16.6904 8.5 16C8.5 15.3096 7.94036 14.75 7.25 14.75C6.55964 14.75 6 15.3096 6 16C6 16.6904 6.55964 17.25 7.25 17.25Z" stroke="#5E6C84" stroke-width="1.5" stroke-linecap="round" stroke-linejoin="round"/>
<path d="M12 16H16" stroke="#5E6C84" stroke-width="1.5" stroke-linecap="round" stroke-linejoin="round"/>
</svg>
