<svg width="39" height="38" viewBox="0 0 39 38" fill="none" xmlns="http://www.w3.org/2000/svg">
<path d="M6 31.0801H3.5L6 33.5801V31.0801Z" fill="#006C36"/>
<path d="M33.3008 31.0801H35.8008L33.3008 33.5801V31.0801Z" fill="#006C36"/>
<path d="M6.85357 2.21162C7.41188 1.59227 8.16322 1.25 8.94042 1.25H26.4133L33.33 8.92294V33.0872C33.33 33.9743 33.0121 34.8206 32.453 35.4408C31.8947 36.0601 31.1434 36.4024 30.3662 36.4024H8.94042C8.16322 36.4024 7.41188 36.0601 6.85357 35.4408C6.29448 34.8206 5.97656 33.9743 5.97656 33.0872V4.56524C5.97656 3.67809 6.29448 2.83184 6.85357 2.21162Z" fill="#EBFAF3" stroke="#00A251" stroke-width="0.5"/>
<path d="M3.5 18.8262H35.81V31.0817H3.5V18.8262Z" fill="#008743"/>
<path d="M27.9535 28.0749H26.8796C26.7984 28.0749 26.7322 28.0538 26.6811 28.0117C26.6329 27.9696 26.5923 27.9215 26.5592 27.8673L25.5801 26.2564C25.565 26.3076 25.547 26.3557 25.5259 26.4008C25.5079 26.446 25.4868 26.4881 25.4628 26.5272L24.5964 27.8673C24.5633 27.9185 24.5227 27.9666 24.4746 28.0117C24.4264 28.0538 24.3663 28.0749 24.2941 28.0749H23.2969L24.8852 25.6879L23.36 23.4453H24.434C24.5152 23.4453 24.5753 23.4573 24.6145 23.4814C24.6536 23.5025 24.6882 23.5386 24.7182 23.5897L25.6884 25.1329C25.7215 25.0306 25.7681 24.9298 25.8283 24.8306L26.6089 23.6123C26.6751 23.501 26.7608 23.4453 26.8661 23.4453H27.8904L26.3697 25.6383L27.9535 28.0749Z" fill="white"/>
<path d="M22.6814 24.3477C22.6513 24.3958 22.6197 24.4304 22.5867 24.4515C22.5536 24.4695 22.5115 24.4786 22.4603 24.4786C22.4062 24.4786 22.3475 24.4635 22.2843 24.4334C22.2242 24.4033 22.1535 24.3703 22.0723 24.3342C21.991 24.2951 21.8978 24.2605 21.7925 24.2304C21.6902 24.2003 21.5684 24.1853 21.427 24.1853C21.2074 24.1853 21.0344 24.2319 20.9081 24.3251C20.7848 24.4184 20.7231 24.5402 20.7231 24.6906C20.7231 24.7899 20.7547 24.8741 20.8178 24.9433C20.884 25.0095 20.9698 25.0682 21.075 25.1193C21.1833 25.1704 21.3052 25.2171 21.4405 25.2592C21.5759 25.2983 21.7128 25.3419 21.8512 25.39C21.9925 25.4382 22.1309 25.4938 22.2663 25.557C22.4017 25.6171 22.522 25.6954 22.6273 25.7916C22.7356 25.8849 22.8213 25.9977 22.8845 26.13C22.9506 26.2624 22.9837 26.4218 22.9837 26.6083C22.9837 26.8309 22.9431 27.037 22.8619 27.2265C22.7837 27.413 22.6664 27.5755 22.5099 27.7138C22.3535 27.8492 22.1595 27.956 21.9279 28.0342C21.6992 28.1094 21.4345 28.147 21.1337 28.147C20.9743 28.147 20.8178 28.132 20.6644 28.1019C20.514 28.0748 20.3681 28.0357 20.2267 27.9846C20.0884 27.9334 19.959 27.8733 19.8387 27.8041C19.7214 27.7349 19.6176 27.6597 19.5273 27.5785L19.7845 27.1543C19.8176 27.1032 19.8567 27.0641 19.9019 27.037C19.947 27.0099 20.0041 26.9964 20.0733 26.9964C20.1425 26.9964 20.2072 27.0159 20.2674 27.055C20.3305 27.0942 20.4027 27.1363 20.4839 27.1814C20.5652 27.2265 20.6599 27.2686 20.7682 27.3077C20.8795 27.3468 21.0194 27.3664 21.1879 27.3664C21.3202 27.3664 21.433 27.3514 21.5263 27.3213C21.6225 27.2882 21.7007 27.2461 21.7609 27.1949C21.8241 27.1438 21.8692 27.0851 21.8963 27.019C21.9264 26.9498 21.9414 26.8791 21.9414 26.8069C21.9414 26.6986 21.9083 26.6098 21.8421 26.5407C21.779 26.4715 21.6932 26.4113 21.5849 26.3602C21.4796 26.309 21.3578 26.2639 21.2194 26.2248C21.0841 26.1827 20.9442 26.1376 20.7998 26.0894C20.6584 26.0413 20.5185 25.9856 20.3802 25.9225C20.2448 25.8563 20.123 25.7736 20.0147 25.6743C19.9094 25.575 19.8236 25.4532 19.7575 25.3088C19.6943 25.1644 19.6627 24.9899 19.6627 24.7854C19.6627 24.5959 19.7003 24.4154 19.7755 24.2439C19.8507 24.0724 19.9605 23.9235 20.1049 23.7972C20.2523 23.6678 20.4343 23.5656 20.6509 23.4904C20.8705 23.4122 21.1232 23.373 21.409 23.373C21.7278 23.373 22.0181 23.4257 22.2798 23.531C22.5415 23.6363 22.7596 23.7746 22.9341 23.9461L22.6814 24.3477Z" fill="white"/>
<path d="M18.7434 21.3691V28.0744H17.6289V21.3691H18.7434Z" fill="white"/>
<path d="M17.0356 28.0749H15.9616C15.8804 28.0749 15.8142 28.0538 15.7631 28.0117C15.715 27.9696 15.6744 27.9215 15.6413 27.8673L14.6621 26.2564C14.6471 26.3076 14.629 26.3557 14.608 26.4008C14.5899 26.446 14.5689 26.4881 14.5448 26.5272L13.6784 27.8673C13.6453 27.9185 13.6047 27.9666 13.5566 28.0117C13.5085 28.0538 13.4483 28.0749 13.3761 28.0749H12.3789L13.9672 25.6879L12.4421 23.4453H13.516C13.5972 23.4453 13.6574 23.4573 13.6965 23.4814C13.7356 23.5025 13.7702 23.5386 13.8003 23.5897L14.7704 25.1329C14.8035 25.0306 14.8501 24.9298 14.9103 24.8306L15.6909 23.6123C15.7571 23.501 15.8428 23.4453 15.9481 23.4453H16.9724L15.4518 25.6383L17.0356 28.0749Z" fill="white"/>
<path d="M10.5977 27.4606C10.5977 27.3674 10.6142 27.2787 10.6473 27.1944C10.6834 27.1102 10.7315 27.038 10.7917 26.9778C10.8518 26.9177 10.924 26.8695 11.0083 26.8334C11.0925 26.7973 11.1827 26.7793 11.279 26.7793C11.3753 26.7793 11.464 26.7973 11.5452 26.8334C11.6295 26.8695 11.7017 26.9177 11.7618 26.9778C11.825 27.038 11.8746 27.1102 11.9107 27.1944C11.9468 27.2787 11.9649 27.3674 11.9649 27.4606C11.9649 27.5569 11.9468 27.6472 11.9107 27.7314C11.8746 27.8126 11.825 27.8833 11.7618 27.9435C11.7017 28.0036 11.6295 28.0502 11.5452 28.0833C11.464 28.1194 11.3753 28.1375 11.279 28.1375C11.1827 28.1375 11.0925 28.1194 11.0083 28.0833C10.924 28.0502 10.8518 28.0036 10.7917 27.9435C10.7315 27.8833 10.6834 27.8126 10.6473 27.7314C10.6142 27.6472 10.5977 27.5569 10.5977 27.4606Z" fill="white"/>
</svg>
