<svg width="32" height="32" viewBox="0 0 32 32" fill="none" xmlns="http://www.w3.org/2000/svg">
<path d="M19 16C19 16.7956 18.6839 17.5587 18.1213 18.1213C17.5587 18.6839 16.7956 19 16 19C15.2044 19 14.4413 18.6839 13.8787 18.1213C13.3161 17.5587 13 16.7956 13 16C13 15.2044 13.3161 14.4413 13.8787 13.8787C14.4413 13.3161 15.2044 13 16 13C16.7956 13 17.5587 13.3161 18.1213 13.8787C18.6839 14.4413 19 15.2044 19 16Z" stroke="#505F79" stroke-width="1.5" stroke-linecap="round" stroke-linejoin="round"/>
<path d="M6.66246 17.4136C6.17665 16.5345 6.17665 15.4655 6.66246 14.5864C8.50544 11.2511 11.8929 9 16 9C20.1071 9 23.4946 11.2511 25.3375 14.5864C25.8234 15.4655 25.8234 16.5345 25.3375 17.4136C23.4946 20.7489 20.1071 23 16 23C11.8929 23 8.50544 20.7489 6.66246 17.4136Z" stroke="#505F79" stroke-width="1.5" stroke-linecap="round" stroke-linejoin="round"/>
</svg>
