<svg width="22" height="16" viewBox="0 0 22 16" fill="none" xmlns="http://www.w3.org/2000/svg">
<path fill-rule="evenodd" clip-rule="evenodd" d="M2 0.5H20C20.3978 0.5 20.7794 0.658035 21.0607 0.93934C21.342 1.22064 21.5 1.60218 21.5 2V14C21.5 14.3978 21.342 14.7794 21.0607 15.0607C20.7794 15.342 20.3978 15.5 20 15.5H2C1.60218 15.5 1.22064 15.342 0.93934 15.0607C0.658035 14.7794 0.5 14.3978 0.5 14V2C0.5 1.60218 0.658035 1.22064 0.93934 0.93934C1.22064 0.658035 1.60218 0.5 2 0.5ZM20 2H2V4.25H20V2ZM2 14H20V5.75H2V14Z" fill="#5E6C84"/>
<path d="M3.5 11H11V12.5H3.5V11Z" fill="#5E6C84"/>
<path fill-rule="evenodd" clip-rule="evenodd" d="M3.5 11V12.5H11V11H3.5Z" fill="#5E6C84"/>
</svg>
