<svg width="18" height="18" viewBox="0 0 18 18" fill="none" xmlns="http://www.w3.org/2000/svg">
<path d="M0 2.625C0 1.176 1.176 0 2.625 0H10.875C12.3255 0 13.5 1.176 13.5 2.625V3H14.073C14.4911 3.00001 14.9009 3.11651 15.2564 3.33642C15.612 3.55633 15.8993 3.87095 16.086 4.245L17.763 7.5975C17.9191 7.91005 18.0002 8.25465 18 8.604V13.5C18 14.0967 17.7629 14.669 17.341 15.091C16.919 15.5129 16.3467 15.75 15.75 15.75H14.9055C14.7398 16.3946 14.3643 16.9659 13.8383 17.3737C13.3123 17.7816 12.6656 18.003 12 18.003C11.3344 18.003 10.6877 17.7816 10.1617 17.3737C9.63567 16.9659 9.26025 16.3946 9.0945 15.75H7.4055C7.23444 16.4141 6.84102 16.9996 6.29077 17.4088C5.74051 17.8181 5.06664 18.0265 4.3814 17.9993C3.69616 17.9722 3.04092 17.711 2.52482 17.2594C2.00871 16.8078 1.66291 16.1931 1.545 15.5175C1.08456 15.3097 0.693881 14.9734 0.419831 14.549C0.145781 14.1246 6.78689e-06 13.6302 0 13.125V2.625ZM9.0945 14.25C9.2608 13.6059 9.63647 13.0354 10.1624 12.6281C10.6884 12.2208 11.3348 11.9998 12 12V2.625C12 2.32663 11.8815 2.04048 11.6705 1.8295C11.4595 1.61853 11.1734 1.5 10.875 1.5H2.625C2.32663 1.5 2.04048 1.61853 1.8295 1.8295C1.61853 2.04048 1.5 2.32663 1.5 2.625V13.125C1.5 13.3875 1.59 13.629 1.74 13.821C1.9857 13.2443 2.40589 12.759 2.94154 12.4334C3.47719 12.1078 4.10139 11.9581 4.72647 12.0054C5.35155 12.0528 5.9461 12.2947 6.4266 12.6973C6.90711 13.0999 7.24944 13.6429 7.4055 14.25H9.0945ZM13.5 12.402C13.8453 12.6012 14.1474 12.8672 14.3888 13.1845C14.6301 13.5018 14.8058 13.864 14.9055 14.25H15.75C15.9489 14.25 16.1397 14.171 16.2803 14.0303C16.421 13.8897 16.5 13.6989 16.5 13.5V9H13.5V12.402ZM13.5 7.5H16.0365L14.7435 4.914C14.6812 4.78958 14.5854 4.68496 14.467 4.61185C14.3486 4.53873 14.2122 4.5 14.073 4.5H13.5V7.5ZM4.5 13.5C4.10218 13.5 3.72064 13.658 3.43934 13.9393C3.15804 14.2206 3 14.6022 3 15C3 15.3978 3.15804 15.7794 3.43934 16.0607C3.72064 16.342 4.10218 16.5 4.5 16.5C4.89782 16.5 5.27936 16.342 5.56066 16.0607C5.84196 15.7794 6 15.3978 6 15C6 14.6022 5.84196 14.2206 5.56066 13.9393C5.27936 13.658 4.89782 13.5 4.5 13.5ZM10.5 15C10.5 15.3978 10.658 15.7794 10.9393 16.0607C11.2206 16.342 11.6022 16.5 12 16.5C12.3978 16.5 12.7794 16.342 13.0607 16.0607C13.342 15.7794 13.5 15.3978 13.5 15C13.5 14.6022 13.342 14.2206 13.0607 13.9393C12.7794 13.658 12.3978 13.5 12 13.5C11.6022 13.5 11.2206 13.658 10.9393 13.9393C10.658 14.2206 10.5 14.6022 10.5 15Z" fill="#5E6C84"/>
</svg>
