<svg width="20" height="20" viewBox="0 0 20 20" fill="none" xmlns="http://www.w3.org/2000/svg">
<path d="M14.1673 11.6654V16.6654V11.6654ZM11.6673 14.1654H16.6673H11.6673ZM5.00065 8.33203H6.66732C7.10935 8.33203 7.53327 8.15644 7.84583 7.84388C8.15839 7.53131 8.33398 7.10739 8.33398 6.66536V4.9987C8.33398 4.55667 8.15839 4.13275 7.84583 3.82019C7.53327 3.50763 7.10935 3.33203 6.66732 3.33203H5.00065C4.55862 3.33203 4.1347 3.50763 3.82214 3.82019C3.50958 4.13275 3.33398 4.55667 3.33398 4.9987V6.66536C3.33398 7.10739 3.50958 7.53131 3.82214 7.84388C4.1347 8.15644 4.55862 8.33203 5.00065 8.33203ZM13.334 8.33203H15.0007C15.4427 8.33203 15.8666 8.15644 16.1792 7.84388C16.4917 7.53131 16.6673 7.10739 16.6673 6.66536V4.9987C16.6673 4.55667 16.4917 4.13275 16.1792 3.82019C15.8666 3.50763 15.4427 3.33203 15.0007 3.33203H13.334C12.892 3.33203 12.468 3.50763 12.1555 3.82019C11.8429 4.13275 11.6673 4.55667 11.6673 4.9987V6.66536C11.6673 7.10739 11.8429 7.53131 12.1555 7.84388C12.468 8.15644 12.892 8.33203 13.334 8.33203ZM5.00065 16.6654H6.66732C7.10935 16.6654 7.53327 16.4898 7.84583 16.1772C8.15839 15.8646 8.33398 15.4407 8.33398 14.9987V13.332C8.33398 12.89 8.15839 12.4661 7.84583 12.1535C7.53327 11.841 7.10935 11.6654 6.66732 11.6654H5.00065C4.55862 11.6654 4.1347 11.841 3.82214 12.1535C3.50958 12.4661 3.33398 12.89 3.33398 13.332V14.9987C3.33398 15.4407 3.50958 15.8646 3.82214 16.1772C4.1347 16.4898 4.55862 16.6654 5.00065 16.6654Z" fill="white"/>
<path d="M14.1673 11.6654V16.6654M11.6673 14.1654H16.6673M5.00065 8.33203H6.66732C7.10935 8.33203 7.53327 8.15644 7.84583 7.84388C8.15839 7.53131 8.33398 7.10739 8.33398 6.66536V4.9987C8.33398 4.55667 8.15839 4.13275 7.84583 3.82019C7.53327 3.50763 7.10935 3.33203 6.66732 3.33203H5.00065C4.55862 3.33203 4.1347 3.50763 3.82214 3.82019C3.50958 4.13275 3.33398 4.55667 3.33398 4.9987V6.66536C3.33398 7.10739 3.50958 7.53131 3.82214 7.84388C4.1347 8.15644 4.55862 8.33203 5.00065 8.33203ZM13.334 8.33203H15.0007C15.4427 8.33203 15.8666 8.15644 16.1792 7.84388C16.4917 7.53131 16.6673 7.10739 16.6673 6.66536V4.9987C16.6673 4.55667 16.4917 4.13275 16.1792 3.82019C15.8666 3.50763 15.4427 3.33203 15.0007 3.33203H13.334C12.892 3.33203 12.468 3.50763 12.1555 3.82019C11.8429 4.13275 11.6673 4.55667 11.6673 4.9987V6.66536C11.6673 7.10739 11.8429 7.53131 12.1555 7.84388C12.468 8.15644 12.892 8.33203 13.334 8.33203ZM5.00065 16.6654H6.66732C7.10935 16.6654 7.53327 16.4898 7.84583 16.1772C8.15839 15.8646 8.33398 15.4407 8.33398 14.9987V13.332C8.33398 12.89 8.15839 12.4661 7.84583 12.1535C7.53327 11.841 7.10935 11.6654 6.66732 11.6654H5.00065C4.55862 11.6654 4.1347 11.841 3.82214 12.1535C3.50958 12.4661 3.33398 12.89 3.33398 13.332V14.9987C3.33398 15.4407 3.50958 15.8646 3.82214 16.1772C4.1347 16.4898 4.55862 16.6654 5.00065 16.6654Z" stroke="#42526E" stroke-width="2" stroke-linecap="round" stroke-linejoin="round"/>
</svg>
