<svg width="24" height="24" viewBox="0 0 24 24" fill="none" xmlns="http://www.w3.org/2000/svg">
<path d="M5.25 3C5.05109 3 4.86032 3.07902 4.71967 3.21967C4.57902 3.36032 4.5 3.55109 4.5 3.75V11.25C4.5 11.4489 4.57902 11.6397 4.71967 11.7803C4.86032 11.921 5.05109 12 5.25 12H12.75C12.9489 12 13.1397 11.921 13.2803 11.7803C13.421 11.6397 13.5 11.4489 13.5 11.25V3.75C13.5 3.55109 13.421 3.36032 13.2803 3.21967C13.1397 3.07902 12.9489 3 12.75 3H5.25ZM6 21V13.5H8.694C9.444 13.5 10.0635 13.647 10.5495 13.9395C11.037 14.232 11.4 14.658 11.637 15.2145C11.8785 15.771 12 16.4445 12 17.2305C12 18.0225 11.88 18.7005 11.637 19.263C11.4187 19.7999 11.0338 20.2526 10.539 20.5545C10.053 20.8515 9.438 21 8.694 21H6ZM8.499 14.709H7.461V19.7865H8.499C8.8425 19.7865 9.1395 19.734 9.3915 19.632C9.63597 19.5325 9.84935 19.3693 10.0095 19.1595C10.1715 18.9465 10.2915 18.6825 10.371 18.3675C10.455 18.0525 10.4955 17.6835 10.4955 17.2575C10.4955 16.6935 10.4235 16.2225 10.2795 15.8475C10.1619 15.4985 9.93189 15.1983 9.6255 14.994C9.333 14.8035 8.9565 14.709 8.499 14.709Z" fill="#2E9245"/>
<path d="M4.5 0C3.70435 0 2.94129 0.316071 2.37868 0.87868C1.81607 1.44129 1.5 2.20435 1.5 3V22.5H0.75C0.551088 22.5 0.360322 22.579 0.21967 22.7197C0.0790176 22.8603 0 23.0511 0 23.25C0 23.4489 0.0790176 23.6397 0.21967 23.7803C0.360322 23.921 0.551088 24 0.75 24H17.25C17.4489 24 17.6397 23.921 17.7803 23.7803C17.921 23.6397 18 23.4489 18 23.25C18 23.0511 17.921 22.8603 17.7803 22.7197C17.6397 22.579 17.4489 22.5 17.25 22.5H16.5V16.5C16.8978 16.5 17.2794 16.658 17.5607 16.9393C17.842 17.2206 18 17.6022 18 18V18.75C18 19.3467 18.2371 19.919 18.659 20.341C19.081 20.7629 19.6533 21 20.25 21C20.8467 21 21.419 20.7629 21.841 20.341C22.2629 19.919 22.5 19.3467 22.5 18.75V12H23.25C23.4489 12 23.6397 11.921 23.7803 11.7803C23.921 11.6397 24 11.4489 24 11.25V6.486C24 5.562 24 4.347 23.559 3.3645C23.314 2.79764 22.8975 2.32184 22.368 2.004C21.801 1.6665 21.096 1.5 20.25 1.5C20.0511 1.5 19.8603 1.57902 19.7197 1.71967C19.579 1.86032 19.5 2.05109 19.5 2.25C19.5 2.44891 19.579 2.63968 19.7197 2.78033C19.8603 2.92098 20.0511 3 20.25 3C20.904 3 21.324 3.129 21.6 3.2925C21.8651 3.45275 22.0722 3.69343 22.191 3.9795C22.4115 4.4715 22.476 5.0985 22.4925 5.8125H20.25C20.0511 5.8125 19.8603 5.89152 19.7197 6.03217C19.579 6.17282 19.5 6.36359 19.5 6.5625V11.25C19.5 11.4489 19.579 11.6397 19.7197 11.7803C19.8603 11.921 20.0511 12 20.25 12H21V18.75C21 18.9489 20.921 19.1397 20.7803 19.2803C20.6397 19.421 20.4489 19.5 20.25 19.5C20.0511 19.5 19.8603 19.421 19.7197 19.2803C19.579 19.1397 19.5 18.9489 19.5 18.75V18C19.5 17.2044 19.1839 16.4413 18.6213 15.8787C18.0587 15.3161 17.2956 15 16.5 15V3C16.5 2.20435 16.1839 1.44129 15.6213 0.87868C15.0587 0.316071 14.2956 0 13.5 0L4.5 0ZM15 3V22.5H3V3C3 2.60218 3.15804 2.22064 3.43934 1.93934C3.72064 1.65804 4.10218 1.5 4.5 1.5H13.5C13.8978 1.5 14.2794 1.65804 14.5607 1.93934C14.842 2.22064 15 2.60218 15 3Z" fill="#2E9245"/>
</svg>
