<svg width="56" height="56" viewBox="0 0 56 56" fill="none" xmlns="http://www.w3.org/2000/svg">
<g filter="url(#filter0_d_541_360977)">
<rect x="5.66406" y="2.5" width="44" height="44" rx="12" fill="#66A0D5"/>
</g>
<path d="M34.5397 28.3394V20.6619C34.9662 20.5526 35.3562 20.3324 35.6701 20.0237C35.9839 19.7149 36.2105 19.3286 36.3268 18.9039C36.4431 18.4793 36.4449 18.0314 36.3321 17.6058C36.2193 17.1803 35.9959 16.7921 35.6846 16.4808C35.3733 16.1694 34.9851 15.946 34.5595 15.8333C34.1339 15.7205 33.6861 15.7223 33.2614 15.8386C32.8368 15.9549 32.4505 16.1814 32.1417 16.4953C31.833 16.8092 31.6128 17.1992 31.5035 17.6257H23.826C23.7167 17.1992 23.4965 16.8092 23.1877 16.4953C22.879 16.1814 22.4926 15.9549 22.068 15.8386C21.6433 15.7223 21.1955 15.7205 20.7699 15.8333C20.3443 15.946 19.9562 16.1694 19.6448 16.4808C19.3335 16.7921 19.1101 17.1803 18.9973 17.6058C18.8845 18.0314 18.8864 18.4793 19.0026 18.9039C19.1189 19.3286 19.3455 19.7149 19.6594 20.0237C19.9732 20.3324 20.3632 20.5526 20.7897 20.6619V28.3394C20.3632 28.4487 19.9732 28.6689 19.6594 28.9777C19.3455 29.2864 19.1189 29.6727 19.0026 30.0974C18.8864 30.522 18.8845 30.9699 18.9973 31.3955C19.1101 31.8211 19.3335 32.2092 19.6448 32.5205C19.9562 32.8319 20.3443 33.0553 20.7699 33.1681C21.1955 33.2808 21.6433 33.279 22.068 33.1627C22.4926 33.0464 22.879 32.8199 23.1877 32.506C23.4965 32.1921 23.7167 31.8022 23.826 31.3757H31.5035C31.6128 31.8022 31.833 32.1921 32.1417 32.506C32.4505 32.8199 32.8368 33.0464 33.2614 33.1627C33.6861 33.279 34.1339 33.2808 34.5595 33.1681C34.9851 33.0553 35.3733 32.8319 35.6846 32.5205C35.9959 32.2092 36.2193 31.8211 36.3321 31.3955C36.4449 30.9699 36.4431 30.522 36.3268 30.0974C36.2105 29.6727 35.9839 29.2864 35.6701 28.9777C35.3562 28.6689 34.9662 28.4487 34.5397 28.3394ZM33.9147 17.0007C34.1619 17.0007 34.4036 17.074 34.6092 17.2113C34.8147 17.3487 34.975 17.5439 35.0696 17.7723C35.1642 18.0007 35.1889 18.252 35.1407 18.4945C35.0925 18.737 34.9734 18.9597 34.7986 19.1345C34.6238 19.3094 34.4011 19.4284 34.1586 19.4766C33.9161 19.5249 33.6648 19.5001 33.4364 19.4055C33.208 19.3109 33.0127 19.1507 32.8754 18.9451C32.738 18.7396 32.6647 18.4979 32.6647 18.2507C32.665 17.9192 32.7969 17.6015 33.0312 17.3671C33.2655 17.1328 33.5833 17.001 33.9147 17.0007ZM20.1647 18.2507C20.1647 18.0034 20.238 17.7618 20.3754 17.5562C20.5127 17.3506 20.708 17.1904 20.9364 17.0958C21.1648 17.0012 21.4161 16.9764 21.6586 17.0247C21.9011 17.0729 22.1238 17.192 22.2986 17.3668C22.4734 17.5416 22.5925 17.7643 22.6407 18.0068C22.6889 18.2493 22.6642 18.5006 22.5696 18.729C22.475 18.9574 22.3147 19.1526 22.1092 19.29C21.9036 19.4273 21.6619 19.5007 21.4147 19.5007C21.0833 19.5003 20.7656 19.3685 20.5312 19.1342C20.2969 18.8998 20.1651 18.5821 20.1647 18.2507ZM21.4147 32.0007C21.1675 32.0007 20.9258 31.9273 20.7203 31.79C20.5147 31.6526 20.3545 31.4574 20.2599 31.229C20.1653 31.0006 20.1405 30.7493 20.1887 30.5068C20.237 30.2643 20.356 30.0416 20.5308 29.8668C20.7057 29.692 20.9284 29.5729 21.1709 29.5247C21.4133 29.4764 21.6647 29.5012 21.8931 29.5958C22.1215 29.6904 22.3167 29.8506 22.4541 30.0562C22.5914 30.2618 22.6647 30.5034 22.6647 30.7507C22.6644 31.0821 22.5326 31.3998 22.2982 31.6342C22.0639 31.8685 21.7461 32.0003 21.4147 32.0007ZM31.5035 30.1257H23.826C23.714 29.696 23.4895 29.3039 23.1755 28.9899C22.8615 28.6759 22.4694 28.4514 22.0397 28.3394V20.6619C22.4694 20.5499 22.8614 20.3253 23.1754 20.0113C23.4894 19.6974 23.714 19.3053 23.826 18.8757H31.5035C31.6154 19.3054 31.84 19.6974 32.154 20.0114C32.468 20.3254 32.86 20.55 33.2897 20.6619V28.3394C32.86 28.4513 32.4679 28.6758 32.1539 28.9898C31.8399 29.3038 31.6154 29.6959 31.5035 30.1257ZM33.9147 32.0007C33.6675 32.0007 33.4258 31.9273 33.2203 31.79C33.0147 31.6526 32.8545 31.4574 32.7599 31.229C32.6653 31.0006 32.6405 30.7493 32.6887 30.5068C32.737 30.2643 32.856 30.0416 33.0308 29.8668C33.2057 29.692 33.4284 29.5729 33.6709 29.5247C33.9133 29.4764 34.1647 29.5012 34.3931 29.5958C34.6215 29.6904 34.8167 29.8506 34.9541 30.0562C35.0914 30.2618 35.1647 30.5034 35.1647 30.7507C35.1642 31.082 35.0324 31.3997 34.7981 31.634C34.5637 31.8683 34.2461 32.0002 33.9147 32.0007Z" fill="white"/>
<defs>
<filter id="filter0_d_541_360977" x="0.164062" y="0.5" width="55" height="55" filterUnits="userSpaceOnUse" color-interpolation-filters="sRGB">
<feFlood flood-opacity="0" result="BackgroundImageFix"/>
<feColorMatrix in="SourceAlpha" type="matrix" values="0 0 0 0 0 0 0 0 0 0 0 0 0 0 0 0 0 0 127 0" result="hardAlpha"/>
<feOffset dy="3.5"/>
<feGaussianBlur stdDeviation="2.75"/>
<feColorMatrix type="matrix" values="0 0 0 0 0 0 0 0 0 0 0 0 0 0 0 0 0 0 0.02 0"/>
<feBlend mode="normal" in2="BackgroundImageFix" result="effect1_dropShadow_541_360977"/>
<feBlend mode="normal" in="SourceGraphic" in2="effect1_dropShadow_541_360977" result="shape"/>
</filter>
</defs>
</svg>
