<svg width="20" height="20" viewBox="0 0 20 20" fill="none" xmlns="http://www.w3.org/2000/svg">
<path d="M16.8757 13.8394V6.16191C17.3022 6.05261 17.6921 5.83241 18.006 5.52365C18.3199 5.21489 18.5464 4.82858 18.6627 4.40393C18.779 3.97928 18.7808 3.53143 18.6681 3.10584C18.5553 2.68025 18.3319 2.29209 18.0205 1.98077C17.7092 1.66944 17.3211 1.44605 16.8955 1.33326C16.4699 1.22047 16.022 1.22231 15.5974 1.33858C15.1727 1.45486 14.7864 1.68144 14.4777 1.99531C14.1689 2.30918 13.9487 2.69916 13.8394 3.12566H6.16191C6.05261 2.69916 5.83241 2.30918 5.52365 1.99531C5.21489 1.68144 4.82858 1.45486 4.40393 1.33858C3.97928 1.22231 3.53143 1.22047 3.10584 1.33326C2.68025 1.44605 2.29209 1.66944 1.98077 1.98077C1.66944 2.29209 1.44605 2.68025 1.33326 3.10584C1.22047 3.53143 1.22231 3.97928 1.33858 4.40393C1.45486 4.82858 1.68144 5.21489 1.99531 5.52365C2.30918 5.83241 2.69916 6.05261 3.12566 6.16191V13.8394C2.69916 13.9487 2.30918 14.1689 1.99531 14.4777C1.68144 14.7864 1.45486 15.1727 1.33858 15.5974C1.22231 16.022 1.22047 16.4699 1.33326 16.8955C1.44605 17.3211 1.66944 17.7092 1.98077 18.0205C2.29209 18.3319 2.68025 18.5553 3.10584 18.6681C3.53143 18.7808 3.97928 18.779 4.40393 18.6627C4.82858 18.5464 5.21489 18.3199 5.52365 18.006C5.83241 17.6921 6.05261 17.3022 6.16191 16.8757H13.8394C13.9487 17.3022 14.1689 17.6921 14.4777 18.006C14.7864 18.3199 15.1727 18.5464 15.5974 18.6627C16.022 18.779 16.4699 18.7808 16.8955 18.6681C17.3211 18.5553 17.7092 18.3319 18.0205 18.0205C18.3319 17.7092 18.5553 17.3211 18.6681 16.8955C18.7808 16.4699 18.779 16.022 18.6627 15.5974C18.5464 15.1727 18.3199 14.7864 18.006 14.4777C17.6921 14.1689 17.3022 13.9487 16.8757 13.8394ZM16.2507 2.50066C16.4979 2.50066 16.7396 2.57397 16.9451 2.71132C17.1507 2.84867 17.3109 3.04389 17.4055 3.2723C17.5001 3.50071 17.5249 3.75204 17.4766 3.99452C17.4284 4.237 17.3094 4.45972 17.1345 4.63454C16.9597 4.80936 16.737 4.92841 16.4945 4.97664C16.252 5.02487 16.0007 5.00012 15.7723 4.90551C15.5439 4.8109 15.3487 4.65068 15.2113 4.44512C15.074 4.23956 15.0007 3.99788 15.0007 3.75066C15.001 3.41924 15.1328 3.10149 15.3671 2.86714C15.6015 2.63279 15.9192 2.50099 16.2507 2.50066ZM2.50066 3.75066C2.50066 3.50343 2.57397 3.26176 2.71132 3.05619C2.84867 2.85063 3.04389 2.69042 3.2723 2.59581C3.50071 2.5012 3.75204 2.47644 3.99452 2.52468C4.237 2.57291 4.45972 2.69196 4.63454 2.86677C4.80936 3.04159 4.92841 3.26432 4.97664 3.50679C5.02487 3.74927 5.00012 4.0006 4.90551 4.22901C4.8109 4.45742 4.65068 4.65264 4.44512 4.78999C4.23956 4.92735 3.99788 5.00066 3.75066 5.00066C3.41924 5.00033 3.10149 4.86852 2.86714 4.63417C2.63279 4.39983 2.50099 4.08208 2.50066 3.75066ZM3.75066 17.5007C3.50343 17.5007 3.26176 17.4273 3.05619 17.29C2.85063 17.1526 2.69042 16.9574 2.59581 16.729C2.5012 16.5006 2.47644 16.2493 2.52468 16.0068C2.57291 15.7643 2.69196 15.5416 2.86677 15.3668C3.04159 15.192 3.26432 15.0729 3.50679 15.0247C3.74927 14.9764 4.0006 15.0012 4.22901 15.0958C4.45742 15.1904 4.65264 15.3506 4.78999 15.5562C4.92735 15.7618 5.00066 16.0034 5.00066 16.2507C5.00033 16.5821 4.86852 16.8998 4.63417 17.1342C4.39983 17.3685 4.08208 17.5003 3.75066 17.5007ZM13.8394 15.6257H6.16191C6.04995 15.196 5.8254 14.8039 5.51141 14.4899C5.19742 14.1759 4.80536 13.9514 4.37566 13.8394V6.16191C4.80533 6.04989 5.19736 5.82532 5.51134 5.51134C5.82532 5.19736 6.04989 4.80533 6.16191 4.37566H13.8394C13.9514 4.80536 14.1759 5.19742 14.4899 5.51141C14.8039 5.8254 15.196 6.04995 15.6257 6.16191V13.8394C15.1959 13.9513 14.8038 14.1758 14.4898 14.4898C14.1758 14.8038 13.9513 15.1959 13.8394 15.6257ZM16.2507 17.5007C16.0034 17.5007 15.7618 17.4273 15.5562 17.29C15.3506 17.1526 15.1904 16.9574 15.0958 16.729C15.0012 16.5006 14.9764 16.2493 15.0247 16.0068C15.0729 15.7643 15.192 15.5416 15.3668 15.3668C15.5416 15.192 15.7643 15.0729 16.0068 15.0247C16.2493 14.9764 16.5006 15.0012 16.729 15.0958C16.9574 15.1904 17.1526 15.3506 17.29 15.5562C17.4273 15.7618 17.5007 16.0034 17.5007 16.2507C17.5002 16.582 17.3683 16.8997 17.134 17.134C16.8997 17.3683 16.582 17.5002 16.2507 17.5007Z" fill="#505F79"/>
</svg>
