<svg width="112" height="60" viewBox="0 0 112 60" fill="none" xmlns="http://www.w3.org/2000/svg">
<path d="M111 60.0003V38.8892C106.188 38.8892 102.062 32.6827 97.25 32.6827C92.4375 32.6827 88.3125 32.6827 83.5 32.6827C78.6875 32.6827 74.5625 26.5099 69.75 26.5099C64.9375 26.5099 60.8125 20.6177 56 20.6177C51.1875 20.6177 47.0625 17.5312 42.25 17.5312C37.4375 17.5312 34.73 21.667 29.9175 21.667C22.5464 21.667 24.5238 28.8892 19.7113 28.8892C14.8988 28.8892 5.81251 32.2226 1.00001 32.2226C1.00001 32.2226 1.00001 47.3741 1.00001 60.0003" fill="url(#paint0_linear_238_73133)"/>
<path d="M111 38.888C106.188 38.888 102.062 32.2963 97.25 32.2963C92.4375 32.2963 88.3125 32.7768 83.5 32.7768C78.6875 32.7768 74.5625 26.2538 69.75 26.2538C64.9375 26.2538 60.8125 20.4861 56 20.4861C51.1875 20.4861 47.0625 17.4648 42.25 17.4648C37.4375 17.4648 33.029 21.6657 28.2165 21.6657C23.404 21.6657 23.9568 28.8879 19.1443 28.8879C14.3318 28.8879 5.8125 32.2212 1.00001 32.2212" stroke="#22C55E" stroke-linecap="round"/>
<defs>
<linearGradient id="paint0_linear_238_73133" x1="56" y1="17.5312" x2="56" y2="60.0003" gradientUnits="userSpaceOnUse">
<stop stop-color="#01B574" stop-opacity="0.32"/>
<stop offset="1" stop-color="#01B574" stop-opacity="0.08"/>
</linearGradient>
</defs>
</svg>
