<svg width="20" height="20" viewBox="0 0 20 20" fill="none" xmlns="http://www.w3.org/2000/svg">
<g clip-path="url(#clip0_1413_41395)">
<path fill-rule="evenodd" clip-rule="evenodd" d="M7.3749 0.5C6.81131 0.5 6.27081 0.723883 5.8723 1.1224C5.47378 1.52091 5.2499 2.06141 5.2499 2.625V10.223L4.3699 9.196C4.02464 8.79595 3.53903 8.54365 3.01321 8.49112C2.4874 8.43859 1.96147 8.58983 1.54389 8.91366C1.12631 9.23749 0.848911 9.70922 0.768906 10.2316C0.6889 10.7539 0.812386 11.287 1.1139 11.721L3.8709 15.659C4.6729 16.989 5.6369 17.965 6.8369 18.6C8.0379 19.236 9.4179 19.5 10.9999 19.5C12.5599 19.5 14.2359 19.244 15.5409 18.374C16.9009 17.468 17.7499 15.969 17.7499 13.75C17.75 13.7233 17.7486 13.6966 17.7459 13.67V10.125C17.7459 9.84586 17.6909 9.56945 17.584 9.31157C17.4772 9.05368 17.3206 8.81938 17.1231 8.62204C16.9257 8.42471 16.6913 8.2682 16.4334 8.16147C16.1755 8.05474 15.899 7.99987 15.6199 8H15.2449C15.1589 8 15.0749 8.006 14.9919 8.018C14.9747 7.67482 14.8746 7.34093 14.7 7.04497C14.5254 6.74901 14.2816 6.49982 13.9896 6.31879C13.6975 6.13776 13.3659 6.03028 13.0232 6.00559C12.6805 5.98089 12.3369 6.03971 12.0219 6.177C11.7978 5.72708 11.4214 5.37118 10.9596 5.17253C10.4979 4.97389 9.98069 4.94535 9.4999 5.092V2.625C9.4999 2.06141 9.27602 1.52091 8.8775 1.1224C8.47899 0.723883 7.93848 0.5 7.3749 0.5ZM16.2499 13.827C16.2472 13.8014 16.2459 13.7757 16.2459 13.75V10.125C16.2459 9.95924 16.1801 9.80027 16.0628 9.68306C15.9456 9.56585 15.7867 9.5 15.6209 9.5H15.2459C15.1796 9.5 15.116 9.52634 15.0691 9.57322C15.0222 9.62011 14.9959 9.6837 14.9959 9.75V10.25C14.9959 10.4489 14.9169 10.6397 14.7762 10.7803C14.6356 10.921 14.4448 11 14.2459 11C14.047 11 13.8562 10.921 13.7156 10.7803C13.5749 10.6397 13.4959 10.4489 13.4959 10.25V8.124C13.4959 7.95864 13.4302 7.80005 13.3133 7.68312C13.1964 7.56619 13.0378 7.5005 12.8724 7.5005C12.707 7.5005 12.5484 7.56619 12.4315 7.68312C12.3146 7.80005 12.2489 7.95864 12.2489 8.124L12.2499 8.748C12.2501 8.77572 12.2488 8.80343 12.2459 8.831V9.35C12.2459 9.54891 12.1669 9.73968 12.0262 9.88033C11.8856 10.021 11.6948 10.1 11.4959 10.1C11.297 10.1 11.1062 10.021 10.9656 9.88033C10.8249 9.73968 10.7459 9.54891 10.7459 9.35V7.125C10.7459 6.95924 10.6801 6.80027 10.5628 6.68306C10.4456 6.56585 10.2867 6.5 10.1209 6.5C9.95514 6.5 9.79617 6.56585 9.67896 6.68306C9.56175 6.80027 9.4959 6.95924 9.4959 7.125V9.75C9.4959 9.94891 9.41688 10.1397 9.27623 10.2803C9.13558 10.421 8.94481 10.5 8.7459 10.5C8.54699 10.5 8.35622 10.421 8.21557 10.2803C8.07492 10.1397 7.9959 9.94891 7.9959 9.75V7.125C7.9959 7.04 8.0009 6.957 8.0099 6.875C8.0031 6.83368 7.99976 6.79187 7.9999 6.75V2.625C7.9999 2.45924 7.93405 2.30027 7.81684 2.18306C7.69963 2.06585 7.54066 2 7.3749 2C7.20914 2 7.05017 2.06585 6.93296 2.18306C6.81575 2.30027 6.7499 2.45924 6.7499 2.625V12.27C6.74522 12.4614 6.66717 12.6436 6.5319 12.779C6.4585 12.8532 6.37039 12.9112 6.27324 12.9493C6.17608 12.9874 6.07203 13.0047 5.96777 13.0002C5.86351 12.9957 5.76134 12.9694 5.66785 12.923C5.57436 12.8767 5.4916 12.8113 5.4249 12.731L3.2309 10.171C3.13666 10.0616 3.00398 9.99259 2.8603 9.97823C2.71662 9.96388 2.57292 10.0053 2.4589 10.0939C2.34488 10.1825 2.26926 10.3115 2.24767 10.4543C2.22608 10.597 2.26017 10.7427 2.3429 10.861L5.1099 14.814C5.12317 14.832 5.13552 14.8507 5.1469 14.87C5.8409 16.025 6.6219 16.79 7.5379 17.275C8.4619 17.764 9.5819 18 10.9999 18C12.4399 18 13.7649 17.756 14.7089 17.126C15.5869 16.541 16.2309 15.56 16.2489 13.826" fill="#DFE1E6"/>
<path fill-rule="evenodd" clip-rule="evenodd" d="M4.75009 2.625C4.75009 1.92881 5.02665 1.26113 5.51894 0.768845C6.01122 0.276562 6.6789 0 7.37509 0C8.07129 0 8.73897 0.276562 9.23125 0.768845C9.72353 1.26113 10.0001 1.92881 10.0001 2.625V4.503L10.1201 4.5C10.5334 4.4996 10.9409 4.59696 11.3093 4.78414C11.6778 4.97132 11.9967 5.243 12.2401 5.577C12.5753 5.4942 12.9235 5.47826 13.2649 5.53011C13.6063 5.58195 13.9341 5.70055 14.2296 5.87914C14.5251 6.05773 14.7825 6.29279 14.9871 6.57091C15.1917 6.84902 15.3395 7.16473 15.4221 7.5H15.6221C16.3183 7.5 16.986 7.77656 17.4782 8.26884C17.9705 8.76113 18.2471 9.42881 18.2471 10.125V13.646C18.2501 13.68 18.2511 13.716 18.2511 13.75C18.2511 16.114 17.3351 17.78 15.8191 18.79C14.3931 19.74 12.6001 20 11.0001 20C9.36409 20 7.89709 19.727 6.60309 19.042L6.83709 18.6C8.03809 19.236 9.41809 19.5 11.0001 19.5C12.5601 19.5 14.2361 19.244 15.5411 18.374C16.9011 17.468 17.7501 15.969 17.7501 13.75C17.7502 13.7233 17.7489 13.6966 17.7461 13.67V10.125C17.7461 9.84586 17.6911 9.56945 17.5842 9.31157C17.4774 9.05368 17.3208 8.81938 17.1233 8.62204C16.9259 8.42471 16.6915 8.2682 16.4336 8.16147C16.1757 8.05474 15.8992 7.99987 15.6201 8H15.2451C15.1591 8 15.0751 8.006 14.9921 8.018C14.9659 7.47378 14.7311 6.96054 14.3366 6.58479C13.942 6.20904 13.4179 5.99963 12.8731 6C12.5701 6 12.2831 6.063 12.0231 6.177C11.7989 5.72686 11.4224 5.37081 10.9604 5.17215C10.4985 4.97348 9.98102 4.94509 9.50009 5.092V2.625C9.50009 2.06141 9.27621 1.52091 8.87769 1.1224C8.47918 0.723883 7.93868 0.5 7.37509 0.5C6.81151 0.5 6.27101 0.723883 5.87249 1.1224C5.47398 1.52091 5.25009 2.06141 5.25009 2.625V10.223L4.37009 9.196C4.02483 8.79595 3.53922 8.54365 3.01341 8.49112C2.48759 8.43859 1.96167 8.58983 1.54408 8.91366C1.1265 9.23749 0.849105 9.70922 0.7691 10.2316C0.689095 10.7539 0.812581 11.287 1.11409 11.721L3.87109 15.659C4.67309 16.989 5.63709 17.965 6.83709 18.6L6.60309 19.042C5.31209 18.359 4.28909 17.316 3.45109 15.932L0.704093 12.007C0.327455 11.4678 0.172492 10.8045 0.271267 10.1543C0.370042 9.50409 0.714995 8.91672 1.23475 8.51373C1.75451 8.11074 2.4093 7.92298 3.06363 7.9893C3.71796 8.05561 4.32176 8.37093 4.75009 8.87V2.625Z" fill="#DFE1E6"/>
</g>
<defs>
<clipPath id="clip0_1413_41395">
<rect width="20" height="20" fill="white"/>
</clipPath>
</defs>
</svg>
