<svg width="20" height="21" viewBox="0 0 20 21" fill="none" xmlns="http://www.w3.org/2000/svg">
<path d="M5.83398 11.9167C5.37565 11.9167 4.98343 11.7536 4.65732 11.4275C4.33121 11.1014 4.16787 10.7089 4.16732 10.25C4.16676 9.79111 4.3301 9.39889 4.65732 9.07333C4.98454 8.74778 5.37676 8.58444 5.83398 8.58333C6.29121 8.58222 6.68371 8.74556 7.01148 9.07333C7.33926 9.40111 7.50232 9.79333 7.50065 10.25C7.49898 10.7067 7.33593 11.0992 7.01148 11.4275C6.68704 11.7558 6.29454 11.9189 5.83398 11.9167ZM5.83398 15.25C4.4451 15.25 3.26454 14.7639 2.29232 13.7917C1.3201 12.8194 0.833984 11.6389 0.833984 10.25C0.833984 8.86111 1.3201 7.68056 2.29232 6.70833C3.26454 5.73611 4.4451 5.25 5.83398 5.25C6.76454 5.25 7.60843 5.47917 8.36565 5.9375C9.12287 6.39583 9.72343 7 10.1673 7.75H17.5007L20.0007 10.25L16.2507 14L14.584 12.75L12.9173 14L11.1465 12.75H10.1673C9.72287 13.5 9.12232 14.1042 8.36565 14.5625C7.60898 15.0208 6.7651 15.25 5.83398 15.25ZM5.83398 13.5833C6.61176 13.5833 7.29593 13.3472 7.88648 12.875C8.47704 12.4028 8.86926 11.8056 9.06315 11.0833H11.6673L12.8757 11.9375L14.584 10.6667L16.0632 11.8125L17.6257 10.25L16.7923 9.41667H9.06315C8.86871 8.69444 8.47648 8.09722 7.88648 7.625C7.29648 7.15278 6.61232 6.91667 5.83398 6.91667C4.91732 6.91667 4.1326 7.24306 3.47982 7.89583C2.82704 8.54861 2.50065 9.33333 2.50065 10.25C2.50065 11.1667 2.82704 11.9514 3.47982 12.6042C4.1326 13.2569 4.91732 13.5833 5.83398 13.5833Z" fill="#EAB308"/>
</svg>
