<svg width="24" height="24" viewBox="0 0 24 24" fill="none" xmlns="http://www.w3.org/2000/svg">
<path d="M13.389 1.99219C11.5326 1.99219 9.96708 3.32873 9.96708 5.03906C9.96708 5.90297 10.3668 6.67125 11.0014 7.2203L11.3986 6.43889C11.0294 6.05442 10.8108 5.56387 10.8108 5.03906C10.8108 3.84984 11.9316 2.83594 13.3889 2.83594C14.8462 2.83594 15.967 3.84984 15.967 5.03906C15.967 5.85483 15.4395 6.58809 14.6378 6.96816L14.2871 7.97859C14.3757 7.95715 14.4635 7.93245 14.5502 7.90453L14.9795 8.65514C14.4955 8.99559 14.027 9.41761 13.5248 9.94289L17.3381 18.3519C19.6942 18.4605 21.9676 17.2112 23.139 15.1639L18.0845 7.43719C17.1392 7.62595 16.3787 7.86159 15.6997 8.21522L15.3205 7.55222C16.2138 7.00777 16.8108 6.09487 16.8108 5.03911C16.8108 3.32878 15.2453 1.99223 13.389 1.99223V1.99219ZM7.63898 2.27095C7.5143 2.27236 7.38333 2.29298 7.25686 2.33414C6.96764 2.42808 6.72295 2.62167 6.61655 2.83055L6.60305 2.85727L3.56067 7.18369C3.46059 7.39238 3.44902 7.69683 3.53925 7.97916C3.63159 8.26777 3.82261 8.50908 4.01747 8.60831L10.7526 12.0377C10.9434 12.135 11.249 12.1504 11.5329 12.0577C11.8116 11.9668 12.0484 11.7818 12.1612 11.5659L13.35 8.08495C13.3523 8.08495 13.3546 8.08509 13.357 8.08514L13.6536 7.23061C13.6495 7.23098 13.6454 7.23108 13.6414 7.23145L13.8713 6.55809L13.8849 6.53147C13.9913 6.32259 14.004 6.01022 13.9107 5.72137C13.8174 5.43253 13.6247 5.18911 13.4216 5.08566L11.9179 4.32005C11.6112 4.70339 11.5171 5.25136 11.9017 5.76708L12.0006 5.93264L12.4829 6.18577L12.0959 6.9458L12.089 6.94252L11.7085 7.69111C11.7106 7.69219 11.7127 7.69313 11.7148 7.69416L11.4194 8.27428L6.65733 5.84953L7.52948 4.13681L7.72083 3.76088L9.16711 4.49738C9.24005 4.03753 9.39783 3.59513 9.65156 3.16594L8.06747 2.35945C7.94962 2.29945 7.7993 2.26922 7.63898 2.27095ZM17.8544 8.42939L18.9832 10.4835L15.6146 12.3345L14.6889 10.6503L14.4857 10.2806L17.8544 8.42944V8.42939ZM17.5213 9.5752L15.6316 10.6137L15.9477 11.1888L17.8373 10.1504L17.5213 9.5752ZM5.36733 10.2425L4.38905 12.1641L7.64723 13.8231L8.62566 11.9016L5.36733 10.2425ZM19.2992 11.0586L20.428 13.1125L17.0594 14.9636L16.1339 13.2794L15.9307 12.9097L19.2993 11.0585L19.2992 11.0586ZM18.9661 12.2043L17.0764 13.2428L17.3925 13.818L19.2822 12.7795L18.9662 12.2043H18.9661ZM4.67452 13.2562H4.67442L0.861328 20.7448L1.14834 21.6274L4.77009 14.5147L5.52187 14.8976L1.90022 22.0102L2.94905 21.6692L3.55692 21.4715L3.22945 20.4611L4.23708 20.1344L3.90914 19.1262L4.91789 18.7981L4.66617 18.0245L6.59602 14.2346L4.67452 13.2562Z" fill="#2E9245"/>
</svg>
