<svg width="20" height="21" viewBox="0 0 20 21" fill="none" xmlns="http://www.w3.org/2000/svg">
<path d="M10.0542 12.3709L10.5125 12.8293L16.4757 18.7924L16.9435 18.3245L2.33398 3.71492L1.86609 4.18281L3.67087 5.98759L4.12917 6.44589L3.56955 6.77286C2.23348 7.55349 1.33398 9.00923 1.33398 10.6661C1.33398 13.1483 3.35173 15.1661 5.83386 15.1661L10.0542 12.3709ZM10.0542 12.3709L9.72723 12.9307M10.0542 12.3709L9.72723 12.9307M9.72723 12.9307C9.32999 13.6108 8.76155 14.1751 8.07848 14.5673M9.72723 12.9307L8.07848 14.5673M8.07848 14.5673C7.39544 14.9595 6.62161 15.1659 5.83398 15.1661L8.07848 14.5673ZM9.37933 12.1323L9.50702 11.8237L9.27087 11.5876L7.84587 10.1626L7.44079 9.75751L6.74262 9.05934L6.33754 8.65426L4.91254 7.22926L4.67639 6.99311L4.36781 7.1208C2.97863 7.69563 2.00065 9.06568 2.00065 10.6661C2.00065 12.784 3.71618 14.4995 5.83398 14.4995C7.43445 14.4995 8.8045 13.5215 9.37933 12.1323ZM5.90205 9.50105L6.84236 9.65777L6.99908 10.5981C6.99908 10.5981 6.99908 10.5981 6.99908 10.5981C6.99913 10.5985 6.99965 10.6025 7.00004 10.612C7.00058 10.6248 7.00065 10.6394 7.00065 10.6661C7.00065 11.3067 6.47451 11.8328 5.83398 11.8328C5.19346 11.8328 4.66732 11.3067 4.66732 10.6661C4.66732 10.0256 5.19346 9.49948 5.83398 9.49948C5.86071 9.49948 5.8753 9.49955 5.88817 9.50009C5.89769 9.50048 5.90165 9.501 5.90203 9.50105C5.90204 9.50105 5.90205 9.50105 5.90205 9.50105ZM15.792 12.6159L16.139 12.8766L16.4459 12.5697L17.9959 11.0197L18.3494 10.6661L17.9959 10.3126L17.1625 9.47926L17.0161 9.33281H16.809H11.7328L11.0661 8.66615H17.2935L19.2935 10.6661L16.2016 13.7581L16.0032 13.6115L14.3109 11.9126L14.5837 11.708L15.792 12.6159Z" stroke="#EF4444"/>
</svg>
