<svg width="20" height="20" viewBox="0 0 20 20" fill="none" xmlns="http://www.w3.org/2000/svg">
<rect width="20" height="20" rx="10" fill="#F0FDF4"/>
<path d="M12.0736 8.27334C11.6912 8.27334 11.3823 7.96439 11.3823 7.58198C11.3823 7.19958 11.6912 6.89062 12.0736 6.89062H15.5304C15.9128 6.89062 16.2218 7.19958 16.2218 7.58198V11.0388C16.2218 11.4212 15.9128 11.7301 15.5304 11.7301C15.148 11.7301 14.8391 11.4212 14.8391 11.0388V9.25205L11.1792 12.9098C10.9091 13.1798 10.4727 13.1798 10.2027 12.9098L7.90605 10.6348L4.95762 13.6011C4.68756 13.8712 4.24984 13.8712 3.97983 13.6011C3.70985 13.3311 3.70985 12.8946 3.97983 12.6246L7.43722 9.16779C7.70728 8.89772 8.1437 8.89772 8.41376 9.16779L10.6909 11.4428L13.8604 8.2539L12.0736 8.27334Z" fill="#65A30D"/>
</svg>
