<svg width="21" height="22" viewBox="0 0 21 22" fill="none" xmlns="http://www.w3.org/2000/svg">
<path fill-rule="evenodd" clip-rule="evenodd" d="M4.91788 1.89052C3.84018 2.02741 3.21161 2.28601 2.75496 2.71727C2.30498 3.14221 2.03954 3.7186 1.89752 4.71666C1.75178 5.74083 1.75 7.0921 1.75 9V13C1.75 14.9079 1.75178 16.2592 1.89752 17.2833C2.03954 18.2814 2.30496 18.8578 2.75494 19.2827C3.21159 19.714 3.84018 19.9726 4.91788 20.1095C6.01298 20.2486 7.45395 20.25 9.47 20.25C9.47501 20.25 9.48001 20.25 9.485 20.2501C9.48999 20.25 9.49499 20.25 9.5 20.25H11C11.4142 20.25 11.75 20.5858 11.75 21C11.75 21.4142 11.4142 21.75 11 21.75H9.5C9.49499 21.75 9.48999 21.75 9.485 21.7499C9.48001 21.75 9.47501 21.75 9.47 21.75H9.41612C7.46579 21.75 5.92949 21.75 4.72887 21.5975C3.49982 21.4414 2.50939 21.114 1.72505 20.3733C0.935033 19.6272 0.580455 18.6751 0.412481 17.4947C0.249967 16.3526 0.249982 14.8945 0.25 13.0593V8.9407C0.249982 7.10553 0.249967 5.64739 0.412481 4.50534C0.580456 3.3249 0.935037 2.37278 1.72506 1.62672C2.50941 0.885977 3.49982 0.55859 4.72887 0.402478C5.92949 0.249977 7.4658 0.249987 9.41614 0.25H10.5839C12.5347 0.249987 14.071 0.249977 15.2715 0.40248C16.5005 0.558601 17.4906 0.886023 18.275 1.62673C19.065 2.37279 19.4195 3.32491 19.5875 4.50534C19.75 5.6474 19.75 7.10554 19.75 8.94073V9C19.75 9.41421 19.4142 9.75 19 9.75C18.5858 9.75 18.25 9.41421 18.25 9C18.25 7.0921 18.2482 5.74083 18.1025 4.71666C17.9605 3.7186 17.695 3.14222 17.2451 2.71728C16.7884 2.28599 16.16 2.0274 15.0825 1.89052C13.9875 1.75143 12.5466 1.75 10.53 1.75H9.47C7.45395 1.75 6.01298 1.75142 4.91788 1.89052ZM5.25 6C5.25 5.58579 5.58579 5.25 6 5.25H14C14.4142 5.25 14.75 5.58579 14.75 6C14.75 6.41421 14.4142 6.75 14 6.75H6C5.58579 6.75 5.25 6.41421 5.25 6ZM5.25 11C5.25 10.5858 5.58579 10.25 6 10.25H11C11.4142 10.25 11.75 10.5858 11.75 11C11.75 11.4142 11.4142 11.75 11 11.75H6C5.58579 11.75 5.25 11.4142 5.25 11Z" fill="#5E6C84"/>
<path fill-rule="evenodd" clip-rule="evenodd" d="M16.1857 13.7875L13.7544 14.4048C13.8582 17.0461 14.663 18.4927 15.3671 19.2704C15.7305 19.6717 16.0827 19.9125 16.3332 20.0504C16.3926 20.0831 16.4464 20.11 16.4932 20.1319C16.54 20.11 16.5937 20.0831 16.6531 20.0504C16.9036 19.9125 17.2559 19.6717 17.6192 19.2704C18.3233 18.4927 19.1281 17.0461 19.2319 14.4048L16.8006 13.7875C16.5987 13.7362 16.3876 13.7362 16.1857 13.7875ZM16.4932 20.9355C16.3002 21.6603 16.2991 21.66 16.2991 21.66L16.2978 21.6597L16.2951 21.6589L16.2886 21.6571L16.2722 21.6524C16.2596 21.6487 16.2438 21.6439 16.225 21.6378C16.1876 21.6257 16.1381 21.6086 16.0785 21.5854C15.9592 21.539 15.7985 21.4683 15.6099 21.3645C15.2324 21.1567 14.7436 20.8166 14.2552 20.2772C13.2676 19.1864 12.3411 17.3476 12.2505 14.3159L12.2503 14.3089C12.2441 14.0061 12.3407 13.7102 12.5242 13.4693C12.7077 13.2286 12.9672 13.057 13.2606 12.9826L15.8166 12.3336C16.2607 12.2209 16.7256 12.2209 17.1697 12.3336L19.7269 12.9829C20.3235 13.1354 20.7544 13.6812 20.7358 14.3154C20.6453 17.3471 19.7187 19.1864 18.7311 20.2772C18.2427 20.8166 17.7539 21.1567 17.3764 21.3645C17.1879 21.4683 17.0271 21.539 16.9079 21.5854C16.8482 21.6086 16.7988 21.6257 16.7613 21.6378C16.7426 21.6439 16.7268 21.6487 16.7142 21.6524L16.6977 21.6571L16.6913 21.6589L16.6885 21.6597L16.6873 21.66C16.6873 21.66 16.6861 21.6603 16.4932 20.9355ZM16.4932 20.9355L16.6861 21.6603C16.5597 21.694 16.4267 21.694 16.3002 21.6603L16.4932 20.9355Z" fill="#5E6C84"/>
</svg>
