<svg width="38" height="38" viewBox="0 0 38 38" fill="none" xmlns="http://www.w3.org/2000/svg">
<path d="M5.5 31.0801H3L5.5 33.5801V31.0801Z" fill="#0C608A"/>
<path d="M32.8008 31.0801H35.3008L32.8008 33.5801V31.0801Z" fill="#0C608A"/>
<path d="M6.35357 2.21162C6.91188 1.59227 7.66322 1.25 8.44042 1.25H25.9133L32.83 8.92294V33.0872C32.83 33.9743 32.5121 34.8206 31.953 35.4408C31.3947 36.0601 30.6434 36.4024 29.8662 36.4024H8.44042C7.66322 36.4024 6.91188 36.0601 6.35357 35.4408C5.79448 34.8206 5.47656 33.9743 5.47656 33.0872V4.56524C5.47656 3.67809 5.79448 2.83184 6.35357 2.21162Z" fill="#E7F6FE" stroke="#1291D0" stroke-width="0.5"/>
<path d="M3 18.8262H35.31V31.0817H3V18.8262Z" fill="#0F78AD"/>
<path d="M23.7949 24.5312C23.9333 24.5312 24.0536 24.5132 24.1559 24.4771C24.2582 24.438 24.3424 24.3854 24.4086 24.3192C24.4778 24.253 24.5289 24.1733 24.562 24.08C24.5981 23.9868 24.6162 23.8845 24.6162 23.7732C24.6162 23.5446 24.547 23.3641 24.4086 23.2317C24.2732 23.0964 24.0687 23.0287 23.7949 23.0287C23.5212 23.0287 23.3151 23.0964 23.1767 23.2317C23.0414 23.3641 22.9737 23.5446 22.9737 23.7732C22.9737 23.8815 22.9902 23.9823 23.0233 24.0755C23.0594 24.1688 23.1106 24.25 23.1767 24.3192C23.2459 24.3854 23.3317 24.438 23.4339 24.4771C23.5392 24.5132 23.6596 24.5312 23.7949 24.5312ZM25.0538 27.1664C25.0538 27.0762 25.0268 27.0025 24.9726 26.9453C24.9185 26.8882 24.8448 26.8445 24.7515 26.8145C24.6583 26.7814 24.5485 26.7573 24.4221 26.7423C24.2988 26.7272 24.1664 26.7167 24.0251 26.7107C23.8867 26.7016 23.7423 26.6941 23.5919 26.6881C23.4445 26.6821 23.3001 26.6701 23.1587 26.652C23.0354 26.7212 22.9346 26.8024 22.8564 26.8957C22.7812 26.9889 22.7436 27.0972 22.7436 27.2206C22.7436 27.3018 22.7631 27.377 22.8022 27.4462C22.8443 27.5184 22.909 27.58 22.9963 27.6312C23.0865 27.6823 23.2023 27.7214 23.3437 27.7485C23.4851 27.7786 23.6581 27.7936 23.8626 27.7936C24.0702 27.7936 24.2492 27.7771 24.3996 27.744C24.55 27.7139 24.6733 27.6703 24.7696 27.6131C24.8688 27.559 24.941 27.4928 24.9862 27.4146C25.0313 27.3394 25.0538 27.2567 25.0538 27.1664ZM26.1639 22.4872V22.9023C26.1639 23.0347 26.0841 23.1159 25.9247 23.146L25.5096 23.2227C25.5728 23.3821 25.6043 23.5566 25.6043 23.7461C25.6043 23.9747 25.5577 24.1823 25.4645 24.3688C25.3742 24.5523 25.2479 24.7087 25.0854 24.8381C24.923 24.9674 24.7305 25.0682 24.5079 25.1404C24.2883 25.2096 24.0506 25.2442 23.7949 25.2442C23.7047 25.2442 23.6174 25.2397 23.5332 25.2306C23.449 25.2216 23.3663 25.2096 23.285 25.1946C23.1407 25.2818 23.0685 25.3796 23.0685 25.4878C23.0685 25.5811 23.1106 25.6503 23.1948 25.6954C23.282 25.7375 23.3963 25.7676 23.5377 25.7857C23.6791 25.8037 23.8401 25.8157 24.0205 25.8218C24.201 25.8248 24.386 25.8338 24.5756 25.8488C24.7651 25.8639 24.9501 25.8909 25.1306 25.93C25.311 25.9661 25.472 26.0248 25.6134 26.106C25.7548 26.1872 25.8676 26.2986 25.9518 26.4399C26.039 26.5783 26.0826 26.7573 26.0826 26.9769C26.0826 27.1814 26.0315 27.38 25.9292 27.5725C25.83 27.765 25.6841 27.9365 25.4915 28.0869C25.302 28.2373 25.0674 28.3576 24.7876 28.4479C24.5109 28.5411 24.195 28.5878 23.8401 28.5878C23.4911 28.5878 23.1873 28.5532 22.9286 28.484C22.6699 28.4178 22.4548 28.3276 22.2833 28.2133C22.1119 28.102 21.984 27.9726 21.8998 27.8252C21.8156 27.6778 21.7734 27.5244 21.7734 27.3649C21.7734 27.1484 21.8381 26.9679 21.9675 26.8235C22.0998 26.6761 22.2803 26.5588 22.5089 26.4715C22.3856 26.4083 22.2878 26.3241 22.2156 26.2188C22.1434 26.1135 22.1073 25.9752 22.1073 25.8037C22.1073 25.7345 22.1194 25.6638 22.1434 25.5916C22.1705 25.5164 22.2081 25.4427 22.2562 25.3705C22.3074 25.2983 22.3706 25.2306 22.4458 25.1675C22.521 25.1013 22.6097 25.0426 22.712 24.9915C22.4773 24.8652 22.2923 24.6967 22.157 24.4861C22.0246 24.2756 21.9584 24.0289 21.9584 23.7461C21.9584 23.5175 22.0036 23.3114 22.0938 23.1279C22.1871 22.9414 22.3149 22.7835 22.4773 22.6542C22.6428 22.5218 22.8368 22.421 23.0594 22.3518C23.285 22.2826 23.5302 22.248 23.7949 22.248C23.9935 22.248 24.18 22.2691 24.3544 22.3112C24.5289 22.3503 24.6884 22.409 24.8327 22.4872H26.1639Z" fill="white"/>
<path d="M18.0872 25.7592C18.2135 25.9126 18.3504 26.0209 18.4978 26.0841C18.6482 26.1472 18.8106 26.1788 18.9851 26.1788C19.1536 26.1788 19.3055 26.1472 19.4409 26.0841C19.5762 26.0209 19.6905 25.9246 19.7838 25.7953C19.8801 25.6659 19.9538 25.5035 20.0049 25.308C20.056 25.1094 20.0816 24.8763 20.0816 24.6086C20.0816 24.3378 20.059 24.1092 20.0139 23.9227C19.9718 23.7332 19.9101 23.5798 19.8289 23.4625C19.7477 23.3451 19.6484 23.2594 19.5311 23.2053C19.4168 23.1511 19.2859 23.124 19.1385 23.124C18.9069 23.124 18.7099 23.1737 18.5474 23.2729C18.385 23.3692 18.2316 23.5061 18.0872 23.6836V25.7592ZM18.0285 22.9616C18.218 22.748 18.4331 22.575 18.6738 22.4427C18.9144 22.3103 19.1972 22.2441 19.5221 22.2441C19.7748 22.2441 20.0049 22.2968 20.2125 22.4021C20.423 22.5074 20.6035 22.6608 20.7539 22.8623C20.9073 23.0609 21.0247 23.3075 21.1059 23.6023C21.1901 23.8941 21.2322 24.2295 21.2322 24.6086C21.2322 24.9545 21.1856 25.2749 21.0923 25.5697C20.9991 25.8645 20.8652 26.1202 20.6908 26.3368C20.5193 26.5533 20.3102 26.7233 20.0636 26.8466C19.8199 26.967 19.5461 27.0271 19.2423 27.0271C18.9836 27.0271 18.7625 26.988 18.579 26.9098C18.3955 26.8286 18.2316 26.7173 18.0872 26.5759V28.4711H16.9727V22.3299H17.654C17.7984 22.3299 17.8932 22.3976 17.9383 22.5329L18.0285 22.9616Z" fill="white"/>
<path d="M15.8376 22.3297V27.1172C15.8376 27.3187 15.8106 27.5082 15.7564 27.6857C15.7053 27.8632 15.621 28.0181 15.5037 28.1505C15.3894 28.2859 15.2375 28.3911 15.048 28.4664C14.8615 28.5446 14.6329 28.5837 14.3621 28.5837C14.2568 28.5837 14.1591 28.5762 14.0688 28.5611C13.9786 28.5491 13.8853 28.528 13.7891 28.4979L13.8297 27.8978C13.8387 27.8376 13.8628 27.7985 13.9019 27.7805C13.941 27.7654 14.0162 27.7579 14.1275 27.7579C14.2388 27.7579 14.332 27.7459 14.4072 27.7218C14.4855 27.7008 14.5471 27.6647 14.5922 27.6135C14.6374 27.5654 14.669 27.5007 14.687 27.4195C14.7081 27.3383 14.7186 27.2375 14.7186 27.1172V22.3297H15.8376ZM15.991 20.9805C15.991 21.0768 15.9715 21.167 15.9324 21.2513C15.8933 21.3355 15.8406 21.4092 15.7745 21.4724C15.7113 21.5355 15.6346 21.5867 15.5443 21.6258C15.4571 21.6619 15.3638 21.6799 15.2646 21.6799C15.1683 21.6799 15.0781 21.6619 14.9938 21.6258C14.9096 21.5867 14.8359 21.5355 14.7727 21.4724C14.7096 21.4092 14.6584 21.3355 14.6193 21.2513C14.5832 21.167 14.5652 21.0768 14.5652 20.9805C14.5652 20.8812 14.5832 20.788 14.6193 20.7008C14.6584 20.6135 14.7096 20.5383 14.7727 20.4751C14.8359 20.412 14.9096 20.3623 14.9938 20.3262C15.0781 20.2871 15.1683 20.2676 15.2646 20.2676C15.3638 20.2676 15.4571 20.2871 15.5443 20.3262C15.6346 20.3623 15.7113 20.412 15.7745 20.4751C15.8406 20.5383 15.8933 20.6135 15.9324 20.7008C15.9715 20.788 15.991 20.8812 15.991 20.9805Z" fill="white"/>
<path d="M12.3789 26.3454C12.3789 26.2522 12.3955 26.1634 12.4285 26.0792C12.4646 25.995 12.5128 25.9228 12.5729 25.8626C12.6331 25.8024 12.7053 25.7543 12.7895 25.7182C12.8738 25.6821 12.964 25.6641 13.0603 25.6641C13.1565 25.6641 13.2453 25.6821 13.3265 25.7182C13.4107 25.7543 13.4829 25.8024 13.5431 25.8626C13.6062 25.9228 13.6559 25.995 13.692 26.0792C13.7281 26.1634 13.7461 26.2522 13.7461 26.3454C13.7461 26.4417 13.7281 26.5319 13.692 26.6161C13.6559 26.6974 13.6062 26.7681 13.5431 26.8282C13.4829 26.8884 13.4107 26.935 13.3265 26.9681C13.2453 27.0042 13.1565 27.0223 13.0603 27.0223C12.964 27.0223 12.8738 27.0042 12.7895 26.9681C12.7053 26.935 12.6331 26.8884 12.5729 26.8282C12.5128 26.7681 12.4646 26.6974 12.4285 26.6161C12.3955 26.5319 12.3789 26.4417 12.3789 26.3454Z" fill="white"/>
</svg>
