<svg width="14" height="13" viewBox="0 0 14 13" fill="none" xmlns="http://www.w3.org/2000/svg">
<path d="M6.51982 12.0399C6.27492 12.0399 6.0299 11.9465 5.84327 11.7595L1.05775 6.97401C0.683877 6.60014 0.683877 5.99448 1.05775 5.62061L5.84327 0.835089C6.21713 0.46122 6.8228 0.46122 7.19667 0.835089C7.57054 1.20896 7.57054 1.81463 7.19667 2.18849L3.0877 6.29731L7.19727 10.4069C7.57114 10.7807 7.57114 11.3864 7.19727 11.7603C7.01033 11.9472 6.76508 12.0399 6.51982 12.0399Z" fill="#7A869A"/>
<path opacity="0.8" d="M12.262 12.0399C12.0171 12.0399 11.7721 11.9465 11.5855 11.7595L6.79993 6.97401C6.42606 6.60014 6.42606 5.99448 6.79993 5.62061L11.5855 0.835089C11.9593 0.46122 12.565 0.46122 12.9389 0.835089C13.3127 1.20896 13.3127 1.81463 12.9389 2.18849L8.83139 6.29731L12.941 10.4069C13.3148 10.7807 13.3148 11.3864 12.941 11.7603C12.7525 11.9472 12.5073 12.0399 12.262 12.0399Z" fill="#7A869A"/>
</svg>
