<svg width="22" height="22" viewBox="0 0 22 22" fill="none" xmlns="http://www.w3.org/2000/svg">
<path fill-rule="evenodd" clip-rule="evenodd" d="M11 1.75C7.4966 1.75 4.75 4.38101 4.75 7.515C4.75 10.8422 6.85481 14.6991 10.0137 16.0499C10.3257 16.1822 10.6611 16.2503 11 16.2503C11.3389 16.2503 11.6743 16.1822 11.9863 16.0499C15.1452 14.699 17.25 10.8432 17.25 7.515C17.25 4.38101 14.5034 1.75 11 1.75ZM3.25 7.515C3.25 3.45299 6.7714 0.25 11 0.25C15.2286 0.25 18.75 3.45299 18.75 7.515C18.75 11.3264 16.3872 15.8001 12.5748 17.4296L12.573 17.4304C12.0754 17.6415 11.5405 17.7503 11 17.7503C10.4595 17.7503 9.92459 17.6415 9.42705 17.4304L9.42523 17.4296C5.61272 15.8001 3.25 11.3254 3.25 7.515Z" fill="#5E6C84"/>
<path fill-rule="evenodd" clip-rule="evenodd" d="M11 6.75C10.6685 6.75 10.3505 6.8817 10.1161 7.11612C9.8817 7.35054 9.75 7.66848 9.75 8C9.75 8.33152 9.8817 8.64946 10.1161 8.88388C10.3505 9.1183 10.6685 9.25 11 9.25C11.3315 9.25 11.6495 9.1183 11.8839 8.88388C12.1183 8.64946 12.25 8.33152 12.25 8C12.25 7.66848 12.1183 7.35054 11.8839 7.11612C11.6495 6.8817 11.3315 6.75 11 6.75ZM9.05546 6.05546C9.57118 5.53973 10.2707 5.25 11 5.25C11.7293 5.25 12.4288 5.53973 12.9445 6.05546C13.4603 6.57118 13.75 7.27065 13.75 8C13.75 8.72935 13.4603 9.42882 12.9445 9.94454C12.4288 10.4603 11.7293 10.75 11 10.75C10.2707 10.75 9.57118 10.4603 9.05546 9.94454C8.53973 9.42882 8.25 8.72935 8.25 8C8.25 7.27065 8.53973 6.57118 9.05546 6.05546Z" fill="#5E6C84"/>
<path fill-rule="evenodd" clip-rule="evenodd" d="M2.59639 13.9971C2.87415 14.3044 2.85021 14.7786 2.54292 15.0564C1.97525 15.5695 1.75 16.0623 1.75 16.5C1.75 17.2635 2.47397 18.2047 4.23666 18.9979C5.92894 19.7595 8.31945 20.25 11 20.25C13.6805 20.25 16.0711 19.7595 17.7633 18.9979C19.526 18.2047 20.25 17.2635 20.25 16.5C20.25 16.0623 20.0247 15.5695 19.4571 15.0564C19.1498 14.7786 19.1259 14.3044 19.4036 13.9971C19.6814 13.6898 20.1556 13.6659 20.4629 13.9436C21.2272 14.6345 21.75 15.5017 21.75 16.5C21.75 18.2215 20.2355 19.5303 18.3789 20.3658C16.4519 21.233 13.8425 21.75 11 21.75C8.15755 21.75 5.54806 21.233 3.62109 20.3658C1.76453 19.5303 0.25 18.2215 0.25 16.5C0.25 15.5017 0.77275 14.6345 1.53708 13.9436C1.84436 13.6659 2.31863 13.6898 2.59639 13.9971Z" fill="#5E6C84"/>
</svg>
