<svg width="24" height="24" viewBox="0 0 24 24" fill="none" xmlns="http://www.w3.org/2000/svg">
<path d="M23 12C23 18.0751 18.0751 23 12 23C5.92487 23 1 18.0751 1 12C1 5.92487 5.92487 1 12 1C18.0751 1 23 5.92487 23 12ZM3.75 12C3.75 16.5563 7.44365 20.25 12 20.25C16.5563 20.25 20.25 16.5563 20.25 12C20.25 7.44365 16.5563 3.75 12 3.75C7.44365 3.75 3.75 7.44365 3.75 12Z" fill="#2E9245" fill-opacity="0.09"/>
<path d="M23.0007 12C23.0007 13.7359 22.5899 15.4472 21.8018 16.9939C21.0137 18.5406 19.8708 19.8788 18.4664 20.8992C17.062 21.9195 15.4361 22.593 13.7215 22.8646C12.007 23.1361 10.2525 22.998 8.60156 22.4616L9.45136 19.8462C10.6896 20.2485 12.0054 20.3521 13.2913 20.1484C14.5772 19.9448 15.7967 19.4396 16.85 18.6744C17.9033 17.9091 18.7605 16.9055 19.3516 15.7454C19.9426 14.5854 20.2507 13.3019 20.2507 12H23.0007Z" fill="#2E9245"/>
<path d="M0.99925 12C0.99925 10.2641 1.41009 8.55282 2.19818 7.0061C2.98627 5.45939 4.12923 4.12116 5.53361 3.10081C6.938 2.08047 8.56393 1.40698 10.2785 1.13543C11.993 0.863871 13.7475 1.00195 15.3984 1.53838L14.5486 4.15378C13.3104 3.75146 11.9946 3.6479 10.7087 3.85157C9.42276 4.05524 8.20331 4.56035 7.15002 5.32561C6.09673 6.09087 5.23951 7.09454 4.64845 8.25458C4.05738 9.41461 3.74925 10.6981 3.74925 12H0.99925Z" fill="#2E9245"/>
</svg>
