<svg width="21" height="20" viewBox="0 0 21 20" fill="none" xmlns="http://www.w3.org/2000/svg">
<path d="M17.4537 9.22087L17.5034 9.66536H17.9506H18.834C19.0162 9.66536 19.1673 9.81651 19.1673 9.9987C19.1673 10.1809 19.0162 10.332 18.834 10.332H17.9506H17.5034L17.4537 10.7765C17.2776 12.3537 16.5703 13.8241 15.4482 14.9462C14.326 16.0684 12.8556 16.7756 11.2785 16.9518L10.834 17.0014V17.4487V18.332C10.834 18.5142 10.6828 18.6654 10.5007 18.6654C10.3185 18.6654 10.1673 18.5142 10.1673 18.332V17.4487V17.0014L9.72282 16.9518C8.14566 16.7756 6.67527 16.0684 5.55312 14.9462C4.43096 13.8241 3.72373 12.3537 3.54756 10.7765L3.49791 10.332H3.05065H2.16732C1.98513 10.332 1.83398 10.1809 1.83398 9.9987C1.83398 9.81651 1.98513 9.66536 2.16732 9.66536H3.05065H3.49791L3.54756 9.22087C3.72373 7.6437 4.43096 6.17332 5.55312 5.05116C6.67527 3.929 8.14566 3.22178 9.72282 3.04561L10.1673 2.99596V2.5487V1.66536C10.1673 1.48317 10.3185 1.33203 10.5007 1.33203C10.6828 1.33203 10.834 1.48317 10.834 1.66536V2.5487V2.99596L11.2785 3.04561C12.8556 3.22178 14.326 3.929 15.4482 5.05116C16.5703 6.17332 17.2776 7.6437 17.4537 9.22087ZM7.66732 9.9987C7.66732 8.43317 8.93513 7.16536 10.5007 7.16536C12.0662 7.16536 13.334 8.43317 13.334 9.9987C13.334 11.5642 12.0662 12.832 10.5007 12.832C8.93513 12.832 7.66732 11.5642 7.66732 9.9987ZM4.16732 9.9987C4.16732 13.4998 6.99951 16.332 10.5007 16.332C14.0018 16.332 16.834 13.4998 16.834 9.9987C16.834 6.49756 14.0018 3.66536 10.5007 3.66536C6.99951 3.66536 4.16732 6.49756 4.16732 9.9987Z" stroke="#42526E"/>
</svg>
