<svg width="594" height="280" viewBox="0 0 594 280" fill="none" xmlns="http://www.w3.org/2000/svg">
<path d="M30.0375 181.288C28.9282 177.875 27.9468 174.547 27.0935 171.304L22.9975 157.224C21.6322 152.616 20.5655 149.16 19.7975 146.856C19.1148 144.296 18.5602 142.376 18.1335 141.096L5.0775 96.936H31.1895L55.1255 185H31.1895L30.0375 181.288ZM50.1335 145.96L63.0615 96.936H88.6615L75.6055 141.096L70.8695 157.224C69.3335 162.173 67.9255 166.867 66.6455 171.304C65.7922 174.547 64.8108 177.875 63.7015 181.288L62.5495 185H60.7575L50.1335 145.96ZM97.6325 96.936H123.233V185H97.6325V96.936ZM200.555 117.16C197.739 116.819 192.789 116.349 185.707 115.752C181.781 115.581 178.624 115.496 176.235 115.496C173.163 115.496 170.261 115.581 167.531 115.752V95.912H170.731C177.728 95.912 184.981 96.3813 192.491 97.32C194.88 97.6613 197.568 98.1307 200.555 98.728V117.16ZM179.435 159.016C179.435 157.224 179.307 155.944 179.051 155.176C178.795 154.323 178.368 153.768 177.771 153.512C177.173 153.171 176.149 152.915 174.699 152.744L158.955 150.824C149.653 149.8 143.381 146.771 140.139 141.736C138.688 139.603 137.707 137 137.195 133.928C136.683 130.856 136.427 127.101 136.427 122.664C136.427 113.192 138.859 106.365 143.723 102.184C147.648 98.7707 153.792 96.7653 162.155 96.168V121.896C162.155 123.005 162.197 123.944 162.283 124.712C162.368 125.48 162.539 126.077 162.795 126.504C163.051 127.016 163.477 127.4 164.075 127.656C164.672 127.827 165.568 127.955 166.763 128.04L184.427 130.216C188.096 130.728 191.083 131.368 193.387 132.136C195.691 132.904 197.653 134.099 199.275 135.72C203.115 139.731 205.035 146.856 205.035 157.096C205.035 167.933 202.645 175.528 197.867 179.88C195.733 181.843 193.131 183.293 190.059 184.232C187.072 185.085 183.531 185.64 179.435 185.896V159.016ZM172.651 186.024C164.117 186.024 156.181 185.64 148.843 184.872C144.491 184.445 141.205 184.019 138.987 183.592V164.904C144.021 165.331 149.781 165.757 156.267 166.184C160.363 166.355 163.264 166.44 164.971 166.44C169.579 166.44 172.608 166.312 174.059 166.056V186.024H172.651ZM211.09 96.936H283.154V117.416H211.09V96.936ZM234.258 122.536H259.858V185H234.258V122.536ZM306.851 96.936H309.027L319.139 132.008L304.419 185H278.819L306.851 96.936ZM335.651 169.384H314.275L319.651 149.672H329.891L314.787 96.936H338.211L366.243 185H340.131L335.651 169.384ZM408.008 96.936H433.608V185H408.008V96.936ZM485.714 152.488C485.714 148.136 485.671 145.235 485.586 143.784C485.5 141.736 485.244 140.2 484.818 139.176C484.391 138.067 483.708 137.384 482.77 137.128C481.746 136.872 480.338 136.744 478.546 136.744H476.754V118.696H478.546C485.97 118.696 491.772 119.293 495.954 120.488C500.135 121.597 503.25 123.475 505.298 126.12C507.175 128.509 508.37 131.709 508.882 135.72C509.479 139.645 509.778 145.235 509.778 152.488C509.778 159.229 509.564 164.477 509.138 168.232C508.796 171.901 507.9 174.931 506.45 177.32C504.828 179.965 502.396 181.971 499.154 183.336C495.911 184.616 491.431 185.427 485.714 185.768V152.488ZM478.546 186.024C471.122 186.024 465.319 185.469 461.138 184.36C456.956 183.251 453.842 181.373 451.794 178.728C449.916 176.339 448.679 173.181 448.082 169.256C447.57 165.331 447.314 159.741 447.314 152.488C447.314 145.832 447.527 140.627 447.954 136.872C448.38 133.117 449.319 130.003 450.77 127.528C452.306 124.797 454.695 122.792 457.938 121.512C461.18 120.147 465.66 119.293 471.378 118.952V152.488C471.378 156.84 471.42 159.699 471.506 161.064C471.591 163.112 471.847 164.648 472.274 165.672C472.7 166.696 473.426 167.336 474.45 167.592C475.303 167.848 476.668 167.976 478.546 167.976H480.338V186.024H478.546ZM516.34 96.936H588.404V117.416H516.34V96.936ZM539.508 122.536H565.108V185H539.508V122.536Z" fill="#2E9245"/>
</svg>
