<svg width="22" height="22" viewBox="0 0 22 22" fill="none" xmlns="http://www.w3.org/2000/svg">
<path fill-rule="evenodd" clip-rule="evenodd" d="M4.91788 1.89052C3.84018 2.02741 3.21161 2.28601 2.75496 2.71727C2.30498 3.14221 2.03954 3.7186 1.89752 4.71666C1.75178 5.74083 1.75 7.0921 1.75 9V13C1.75 14.9079 1.75178 16.2592 1.89752 17.2833C2.03954 18.2814 2.30496 18.8578 2.75494 19.2827C3.21159 19.714 3.84018 19.9726 4.91788 20.1095C6.01298 20.2486 7.45395 20.25 9.47 20.25H10.53C10.9442 20.25 11.28 20.5858 11.28 21C11.28 21.4142 10.9442 21.75 10.53 21.75H9.41612C7.46579 21.75 5.92949 21.75 4.72887 21.5975C3.49982 21.4414 2.5094 21.114 1.72505 20.3733C0.935033 19.6272 0.580456 18.6751 0.412481 17.4947C0.249967 16.3526 0.249982 14.8945 0.25 13.0593V8.94071C0.249982 7.10553 0.249967 5.64739 0.412481 4.50534C0.580457 3.3249 0.935037 2.37278 1.72506 1.62672C2.50941 0.885977 3.49982 0.55859 4.72887 0.402478C5.92949 0.249977 7.4658 0.249987 9.41614 0.25H10.5839C12.5347 0.249987 14.071 0.249977 15.2715 0.40248C16.5005 0.558601 17.4906 0.886023 18.275 1.62673C19.065 2.37279 19.4195 3.32491 19.5875 4.50534C19.75 5.6474 19.75 7.10554 19.75 8.94073V9.5C19.75 9.91421 19.4142 10.25 19 10.25C18.5858 10.25 18.25 9.91421 18.25 9.5V9C18.25 7.0921 18.2482 5.74083 18.1025 4.71666C17.9605 3.7186 17.695 3.14222 17.2451 2.71728C16.7884 2.28599 16.16 2.0274 15.0825 1.89052C13.9875 1.75143 12.5466 1.75 10.53 1.75H9.47C7.45395 1.75 6.01298 1.75142 4.91788 1.89052ZM5.25 6C5.25 5.58579 5.58579 5.25 6 5.25H14C14.4142 5.25 14.75 5.58579 14.75 6C14.75 6.41421 14.4142 6.75 14 6.75H6C5.58579 6.75 5.25 6.41421 5.25 6ZM5.25 11C5.25 10.5858 5.58579 10.25 6 10.25H11C11.4142 10.25 11.75 10.5858 11.75 11C11.75 11.4142 11.4142 11.75 11 11.75H6C5.58579 11.75 5.25 11.4142 5.25 11Z" fill="#5E6C84"/>
<path fill-rule="evenodd" clip-rule="evenodd" d="M17 11.25C17.4142 11.25 17.75 11.5858 17.75 12V12.6018C18.5919 12.7535 19.3455 13.1563 19.9227 13.7299L20.5945 13.2981C20.9429 13.0741 21.407 13.175 21.6309 13.5235C21.8549 13.8719 21.754 14.336 21.4055 14.5599L20.7688 14.9692C20.9755 15.4501 21.0837 15.9706 21.0837 16.499C21.0837 17.028 20.9753 17.5485 20.7682 18.0294L21.4055 18.4391C21.754 18.663 21.8549 19.1271 21.6309 19.4755C21.407 19.824 20.9429 19.9249 20.5945 19.7009L19.921 19.268C19.6237 19.5636 19.2819 19.8129 18.9068 20.0062C18.5416 20.1945 18.1516 20.3263 17.75 20.3984V21C17.75 21.4142 17.4142 21.75 17 21.75C16.5858 21.75 16.25 21.4142 16.25 21V20.3994C15.8484 20.3273 15.4584 20.1955 15.0932 20.0072C14.7179 19.8137 14.3759 19.5642 14.0784 19.2684L13.4055 19.7009C13.0571 19.9249 12.593 19.824 12.3691 19.4755C12.1451 19.1271 12.246 18.663 12.5945 18.4391L13.2318 18.0294C13.0247 17.5485 12.9163 17.028 12.9163 16.499C12.9163 15.9706 13.0245 15.4506 13.2311 14.9701L12.5945 14.5609C12.246 14.337 12.1451 13.8729 12.3691 13.5245C12.593 13.176 13.0571 13.0751 13.4055 13.2991L14.079 13.732C14.3763 13.4364 14.7181 13.1871 15.0932 12.9938C15.4584 12.8055 15.8484 12.6737 16.25 12.6016V12C16.25 11.5858 16.5858 11.25 17 11.25ZM17.0486 14.0354C17.0307 14.0366 17.0128 14.0371 16.9947 14.037C16.5725 14.034 16.1559 14.1336 15.7806 14.327C15.4127 14.5166 15.0954 14.791 14.8545 15.1272C14.8436 15.144 14.832 15.1603 14.82 15.176C14.557 15.5668 14.4163 16.0274 14.4163 16.499C14.4163 16.9833 14.5647 17.456 14.8415 17.8534C14.848 17.8628 14.8543 17.8723 14.8604 17.882C15.1005 18.2145 15.4157 18.4859 15.7806 18.674C16.1456 18.8622 16.5498 18.9615 16.9602 18.964C16.9751 18.9633 16.9901 18.9629 17.0053 18.963C17.4275 18.966 17.8441 18.8664 18.2194 18.673C18.5873 18.4834 18.9046 18.2091 19.1455 17.8728C19.1497 17.8663 19.1541 17.8598 19.1585 17.8534C19.4353 17.456 19.5837 16.9833 19.5837 16.499C19.5837 16.0271 19.4428 15.5656 19.18 15.1749C19.1671 15.1581 19.1547 15.1407 19.1431 15.1225C19.1412 15.1197 19.1394 15.1168 19.1376 15.1139C18.6837 14.479 17.9232 14.0508 17.0486 14.0354Z" fill="#5E6C84"/>
</svg>
