<svg width="20" height="20" viewBox="0 0 20 20" fill="none" xmlns="http://www.w3.org/2000/svg">
<path d="M10 15.4173L7.5 14.1673M7.5 14.1673L2.5 16.6673V5.83398L7.5 3.33398M7.5 14.1673V3.33398M7.5 3.33398L12.5 5.83398M12.5 5.83398L17.5 3.33398V10.0007M12.5 5.83398V11.2507M15.8342 17.5007C15.3921 17.5007 14.9682 17.3251 14.6557 17.0125C14.3431 16.6999 14.1675 16.276 14.1675 15.834C14.1675 15.392 14.3431 14.968 14.6557 14.6555C14.9682 14.3429 15.3921 14.1673 15.8342 14.1673M15.8342 17.5007C16.2762 17.5007 16.7001 17.3251 17.0127 17.0125C17.3252 16.6999 17.5008 16.276 17.5008 15.834C17.5008 15.392 17.3252 14.968 17.0127 14.6555C16.7001 14.3429 16.2762 14.1673 15.8342 14.1673M15.8342 17.5007V18.7507M15.8342 14.1673V12.9173M18.36 14.3757L17.2775 15.0007M14.3917 16.6673L13.3083 17.2923M13.3083 14.3757L14.3917 15.0007M17.2775 16.6673L18.3608 17.2923" stroke="#42526E" stroke-width="1.5" stroke-linecap="round" stroke-linejoin="round"/>
</svg>
