<svg width="20" height="22" viewBox="0 0 20 22" fill="none" xmlns="http://www.w3.org/2000/svg">
<path d="M10 0C7.82984 0 5.74857 0.869194 4.21404 2.41637C2.67951 3.96354 1.81741 6.06196 1.81741 8.25V12.6518L0.0645229 17.0775C0.00962124 17.2165 -0.0107059 17.3669 0.00531545 17.5156C0.0213368 17.6644 0.0732196 17.8069 0.156436 17.9308C0.239652 18.0546 0.351672 18.1561 0.482719 18.2262C0.613766 18.2964 0.759856 18.3332 0.908238 18.3333H6.3633C6.3633 20.3647 7.98527 22 10 22C12.0147 22 13.6367 20.3647 13.6367 18.3333H19.0918C19.2401 18.3332 19.3862 18.2964 19.5173 18.2262C19.6483 18.1561 19.7603 18.0546 19.8436 17.9308C19.9268 17.8069 19.9787 17.6644 19.9947 17.5156C20.0107 17.3669 19.9904 17.2165 19.9355 17.0775L18.1826 12.65V8.25C18.1826 6.06196 17.3205 3.96354 15.786 2.41637C14.2514 0.869194 12.1702 0 10 0ZM11.8184 18.3333C11.8184 19.3527 11.011 20.1667 10 20.1667C8.989 20.1667 8.18165 19.3527 8.18165 18.3333H11.8184ZM3.63577 8.25C3.63577 6.54819 4.30628 4.91609 5.49981 3.71273C6.69333 2.50937 8.3121 1.83333 10 1.83333C11.6879 1.83333 13.3067 2.50937 14.5002 3.71273C15.6937 4.91609 16.3642 6.54819 16.3642 8.25V12.8297C16.3645 12.9459 16.3867 13.061 16.4297 13.1688L17.7498 16.5H2.25018L3.57031 13.1688C3.61325 13.061 3.63547 12.9459 3.63577 12.8297V8.25Z" fill="#5E6C84"/>
</svg>
