<svg width="16" height="18" viewBox="0 0 16 18" fill="none" xmlns="http://www.w3.org/2000/svg">
<path d="M15.1069 12.5213C14.4326 11.7211 13.5093 10.5881 13.5093 9.43222V5.75121C13.5093 2.58007 11.0784 0 7.97196 0C4.86497 0 2.45305 2.58009 2.45305 5.75121V9.43222C2.45305 10.5687 1.45117 11.6428 0.81593 12.4762C0.244493 13.2251 -0.206443 13.8167 0.0980447 14.4081C0.365843 14.9284 1.03635 14.9952 1.59042 14.9952H4.90107C4.90193 16.6547 6.28137 18 7.98263 18C9.68417 18 11.0636 16.6547 11.0645 14.9952H14.4528C14.8053 14.9952 15.6292 14.9952 15.9129 14.4103C16.1992 13.8181 15.741 13.2739 15.1069 12.5213L15.1069 12.5213ZM7.98205 16.819C6.94899 16.819 6.11093 16.0025 6.10948 14.9952H9.85462C9.85317 16.0025 9.01569 16.819 7.98205 16.819ZM14.4528 13.795H1.5904C1.502 13.795 1.42806 13.7922 1.36711 13.7885C1.48613 13.6087 1.66089 13.379 1.80302 13.1921C2.50706 12.269 3.68341 10.966 3.68341 9.43247V5.75146C3.68341 3.24183 5.54384 1.20036 7.97196 1.20036C10.4001 1.20036 12.2793 3.24183 12.2793 5.75146V9.43247C12.2793 11.0182 13.3641 12.3435 14.1565 13.2834C14.29 13.4419 14.4497 13.6315 14.5739 13.7936C14.5372 13.7944 14.4968 13.795 14.4529 13.795L14.4528 13.795Z" fill="#42526E"/>
</svg>
