<svg width="14" height="14" viewBox="0 0 14 14" fill="none" xmlns="http://www.w3.org/2000/svg">
<path d="M4.2 1.4V12.6H1.4V1.4H4.2ZM4.2 0H1.4C1.0287 0 0.672601 0.1475 0.41005 0.41005C0.1475 0.672601 0 1.0287 0 1.4V12.6C0 12.9713 0.1475 13.3274 0.41005 13.5899C0.672601 13.8525 1.0287 14 1.4 14H4.2C4.5713 14 4.9274 13.8525 5.18995 13.5899C5.4525 13.3274 5.6 12.9713 5.6 12.6V1.4C5.6 1.0287 5.4525 0.672601 5.18995 0.41005C4.9274 0.1475 4.5713 0 4.2 0ZM12.6 1.4V12.6H9.8V1.4H12.6ZM12.6 0H9.8C9.4287 0 9.0726 0.1475 8.81005 0.41005C8.5475 0.672601 8.4 1.0287 8.4 1.4V12.6C8.4 12.9713 8.5475 13.3274 8.81005 13.5899C9.0726 13.8525 9.4287 14 9.8 14H12.6C12.9713 14 13.3274 13.8525 13.5899 13.5899C13.8525 13.3274 14 12.9713 14 12.6V1.4C14 1.0287 13.8525 0.672601 13.5899 0.41005C13.3274 0.1475 12.9713 0 12.6 0Z" fill="#2E9245"/>
</svg>
