<svg width="38" height="38" viewBox="0 0 38 38" fill="none" xmlns="http://www.w3.org/2000/svg">
<path d="M5.5 31.0801H3L5.5 33.5801V31.0801Z" fill="#9A0E0E"/>
<path d="M32.8008 31.0801H35.3008L32.8008 33.5801V31.0801Z" fill="#9A0E0E"/>
<path d="M6.35357 2.21162C6.91188 1.59227 7.66322 1.25 8.44042 1.25H25.9133L32.83 8.92294V33.0872C32.83 33.9743 32.5121 34.8206 31.953 35.4408C31.3947 36.0601 30.6434 36.4024 29.8662 36.4024H8.44042C7.66322 36.4024 6.91188 36.0601 6.35357 35.4408C5.79448 34.8206 5.47656 33.9743 5.47656 33.0872V4.56524C5.47656 3.67809 5.79448 2.83184 6.35357 2.21162Z" fill="#FFF5F5" stroke="#D92D20" stroke-width="0.5"/>
<path d="M3 18.8262H35.31V31.0817H3V18.8262Z" fill="#B42318"/>
<path d="M24.0498 28.075V24.2847L23.6482 24.2216C23.5609 24.2035 23.4902 24.1734 23.4361 24.1313C23.3849 24.0862 23.3594 24.023 23.3594 23.9418V23.4861H24.0498V23.1431C24.0498 22.8784 24.0889 22.6408 24.1671 22.4302C24.2483 22.2196 24.3626 22.0406 24.51 21.8932C24.6604 21.7458 24.8424 21.633 25.056 21.5548C25.2696 21.4766 25.5102 21.4375 25.7779 21.4375C25.9915 21.4375 26.1901 21.4661 26.3736 21.5232L26.351 22.0828C26.348 22.1249 26.336 22.1595 26.3149 22.1865C26.2938 22.2106 26.2653 22.2302 26.2292 22.2452C26.1961 22.2572 26.157 22.2663 26.1119 22.2723C26.0667 22.2753 26.0186 22.2768 25.9675 22.2768C25.8351 22.2768 25.7163 22.2918 25.611 22.3219C25.5087 22.349 25.4215 22.3986 25.3493 22.4708C25.2771 22.54 25.2214 22.6332 25.1823 22.7506C25.1462 22.8649 25.1282 23.0078 25.1282 23.1792V23.4861H26.333V24.2802H25.1643V28.075H24.0498Z" fill="white"/>
<path d="M21.5122 24.627C21.3859 24.4736 21.2475 24.3653 21.0971 24.3021C20.9497 24.2389 20.7903 24.2074 20.6188 24.2074C20.4503 24.2074 20.2984 24.2389 20.1631 24.3021C20.0277 24.3653 19.9119 24.4615 19.8156 24.5909C19.7194 24.7172 19.6457 24.8797 19.5945 25.0782C19.5434 25.2737 19.5178 25.5054 19.5178 25.7731C19.5178 26.0438 19.5389 26.274 19.581 26.4635C19.6261 26.65 19.6893 26.8034 19.7705 26.9237C19.8517 27.041 19.951 27.1268 20.0683 27.1809C20.1856 27.2321 20.3165 27.2576 20.4609 27.2576C20.6925 27.2576 20.8895 27.2095 21.052 27.1132C21.2144 27.017 21.3678 26.8801 21.5122 26.7026V24.627ZM22.6268 21.3691V28.0744H21.9454C21.798 28.0744 21.7048 28.0067 21.6656 27.8713L21.5709 27.4246C21.3844 27.6382 21.1693 27.8111 20.9256 27.9435C20.685 28.0759 20.4037 28.142 20.0818 28.142C19.8292 28.142 19.5975 28.0894 19.387 27.9841C19.1764 27.8788 18.9944 27.7269 18.841 27.5284C18.6906 27.3268 18.5732 27.0787 18.489 26.7839C18.4078 26.489 18.3672 26.1521 18.3672 25.7731C18.3672 25.4302 18.4138 25.1113 18.5071 24.8165C18.6003 24.5217 18.7342 24.266 18.9087 24.0494C19.0831 23.8328 19.2922 23.6644 19.5359 23.544C19.7795 23.4207 20.0533 23.359 20.3571 23.359C20.6158 23.359 20.8369 23.3997 21.0204 23.4809C21.2039 23.5621 21.3678 23.6719 21.5122 23.8103V21.3691H22.6268Z" fill="white"/>
<path d="M14.5911 26.8744C14.7174 27.0278 14.8543 27.1361 15.0017 27.1993C15.1521 27.2625 15.3146 27.2941 15.489 27.2941C15.6575 27.2941 15.8094 27.2625 15.9448 27.1993C16.0801 27.1361 16.1944 27.0399 16.2877 26.9105C16.384 26.7812 16.4577 26.6187 16.5088 26.4232C16.5599 26.2247 16.5855 25.9915 16.5855 25.7238C16.5855 25.4531 16.5629 25.2244 16.5178 25.0379C16.4757 24.8484 16.414 24.695 16.3328 24.5777C16.2516 24.4604 16.1523 24.3746 16.035 24.3205C15.9207 24.2663 15.7898 24.2393 15.6424 24.2393C15.4108 24.2393 15.2138 24.2889 15.0513 24.3882C14.8889 24.4844 14.7355 24.6213 14.5911 24.7988V26.8744ZM14.5324 24.0768C14.7219 23.8632 14.937 23.6903 15.1777 23.5579C15.4183 23.4256 15.7011 23.3594 16.026 23.3594C16.2787 23.3594 16.5088 23.412 16.7164 23.5173C16.9269 23.6226 17.1074 23.776 17.2578 23.9776C17.4113 24.1761 17.5286 24.4228 17.6098 24.7176C17.694 25.0094 17.7361 25.3448 17.7361 25.7238C17.7361 26.0697 17.6895 26.3901 17.5963 26.6849C17.503 26.9797 17.3691 27.2354 17.1947 27.452C17.0232 27.6686 16.8141 27.8385 16.5675 27.9619C16.3238 28.0822 16.0501 28.1424 15.7462 28.1424C15.4875 28.1424 15.2664 28.1033 15.0829 28.0251C14.8994 27.9438 14.7355 27.8325 14.5911 27.6911V29.5863H13.4766V23.4451H14.1579C14.3023 23.4451 14.3971 23.5128 14.4422 23.6482L14.5324 24.0768Z" fill="white"/>
<path d="M11.1719 27.4606C11.1719 27.3674 11.1884 27.2787 11.2215 27.1944C11.2576 27.1102 11.3057 27.038 11.3659 26.9778C11.4261 26.9177 11.4983 26.8695 11.5825 26.8334C11.6667 26.7973 11.757 26.7793 11.8532 26.7793C11.9495 26.7793 12.0382 26.7973 12.1194 26.8334C12.2037 26.8695 12.2759 26.9177 12.336 26.9778C12.3992 27.038 12.4488 27.1102 12.4849 27.1944C12.521 27.2787 12.5391 27.3674 12.5391 27.4606C12.5391 27.5569 12.521 27.6472 12.4849 27.7314C12.4488 27.8126 12.3992 27.8833 12.336 27.9435C12.2759 28.0036 12.2037 28.0502 12.1194 28.0833C12.0382 28.1194 11.9495 28.1375 11.8532 28.1375C11.757 28.1375 11.6667 28.1194 11.5825 28.0833C11.4983 28.0502 11.4261 28.0036 11.3659 27.9435C11.3057 27.8833 11.2576 27.8126 11.2215 27.7314C11.1884 27.6472 11.1719 27.5569 11.1719 27.4606Z" fill="white"/>
</svg>
