<svg width="12" height="14" viewBox="0 0 12 14" fill="none" xmlns="http://www.w3.org/2000/svg">
<path d="M10.7584 4.66579L3.73172 0.356502C3.3515 0.121715 2.91994 -0.00127956 2.48088 1.00375e-05C2.04182 0.00129963 1.6109 0.126828 1.23188 0.363844C0.852872 0.600861 0.539272 0.940923 0.322937 1.34949C0.106601 1.75805 -0.004763 2.22057 0.000156181 2.69005V11.3398C0.000156181 12.0453 0.262254 12.7219 0.72879 13.2208C1.19533 13.7197 1.82809 14 2.48787 14C2.92463 13.9992 3.35354 13.8758 3.73172 13.6422L10.7584 9.3329C11.136 9.09922 11.4494 8.76349 11.6674 8.35937C11.8853 7.95525 12 7.49695 12 7.03046C12 6.56396 11.8853 6.10567 11.6674 5.70155C11.4494 5.29743 11.136 4.9617 10.7584 4.72802V4.66579ZM10.031 7.92499L3.00432 12.2965C2.84683 12.392 2.66889 12.4421 2.48787 12.4421C2.30684 12.4421 2.12891 12.392 1.97141 12.2965C1.81436 12.1995 1.68396 12.0601 1.5933 11.8921C1.50264 11.7242 1.45493 11.5337 1.45496 11.3398V2.65894C1.45493 2.46502 1.50264 2.27451 1.5933 2.10656C1.68396 1.93861 1.81436 1.79914 1.97141 1.70218C2.12944 1.60788 2.30692 1.55709 2.48787 1.55439C2.66865 1.55836 2.84585 1.60907 3.00432 1.70218L10.031 6.04259C10.1881 6.13951 10.3186 6.27895 10.4093 6.44691C10.5 6.61486 10.5478 6.80539 10.5478 6.99934C10.5478 7.1933 10.5 7.38383 10.4093 7.55178C10.3186 7.71973 10.1881 7.85918 10.031 7.9561V7.92499Z" fill="#2E9245"/>
</svg>
