<svg width="38" height="38" viewBox="0 0 38 38" fill="none" xmlns="http://www.w3.org/2000/svg">
<path d="M5.5 31.0801H3L5.5 33.5801V31.0801Z" fill="#0C608A"/>
<path d="M32.8008 31.0801H35.3008L32.8008 33.5801V31.0801Z" fill="#0C608A"/>
<path d="M6.35357 2.21162C6.91188 1.59227 7.66322 1.25 8.44042 1.25H25.9133L32.83 8.92294V33.0872C32.83 33.9743 32.5121 34.8206 31.953 35.4408C31.3947 36.0601 30.6434 36.4024 29.8662 36.4024H8.44042C7.66322 36.4024 6.91188 36.0601 6.35357 35.4408C5.79448 34.8206 5.47656 33.9743 5.47656 33.0872V4.56524C5.47656 3.67809 5.79448 2.83184 6.35357 2.21162Z" fill="#E7F6FE" stroke="#1291D0" stroke-width="0.5"/>
<path d="M3 18.8262H35.31V31.0817H3V18.8262Z" fill="#0F78AD"/>
<path d="M25.7559 24.5312C25.8942 24.5312 26.0146 24.5132 26.1168 24.4771C26.2191 24.438 26.3034 24.3854 26.3695 24.3192C26.4387 24.253 26.4899 24.1733 26.523 24.08C26.5591 23.9868 26.5771 23.8845 26.5771 23.7732C26.5771 23.5446 26.5079 23.3641 26.3695 23.2317C26.2342 23.0964 26.0296 23.0287 25.7559 23.0287C25.4821 23.0287 25.2761 23.0964 25.1377 23.2317C25.0023 23.3641 24.9346 23.5446 24.9346 23.7732C24.9346 23.8815 24.9512 23.9823 24.9843 24.0755C25.0204 24.1688 25.0715 24.25 25.1377 24.3192C25.2069 24.3854 25.2926 24.438 25.3949 24.4771C25.5002 24.5132 25.6205 24.5312 25.7559 24.5312ZM27.0148 27.1664C27.0148 27.0762 26.9877 27.0025 26.9336 26.9453C26.8794 26.8882 26.8057 26.8445 26.7125 26.8145C26.6192 26.7814 26.5094 26.7573 26.3831 26.7423C26.2597 26.7272 26.1274 26.7167 25.986 26.7107C25.8476 26.7016 25.7032 26.6941 25.5528 26.6881C25.4054 26.6821 25.261 26.6701 25.1196 26.652C24.9963 26.7212 24.8955 26.8024 24.8173 26.8957C24.7421 26.9889 24.7045 27.0972 24.7045 27.2206C24.7045 27.3018 24.7241 27.377 24.7632 27.4462C24.8053 27.5184 24.87 27.58 24.9572 27.6312C25.0474 27.6823 25.1633 27.7214 25.3046 27.7485C25.446 27.7786 25.619 27.7936 25.8236 27.7936C26.0311 27.7936 26.2101 27.7771 26.3605 27.744C26.5109 27.7139 26.6343 27.6703 26.7305 27.6131C26.8298 27.559 26.902 27.4928 26.9471 27.4146C26.9922 27.3394 27.0148 27.2567 27.0148 27.1664ZM28.1248 22.4872V22.9023C28.1248 23.0347 28.0451 23.1159 27.8857 23.146L27.4705 23.2227C27.5337 23.3821 27.5653 23.5566 27.5653 23.7461C27.5653 23.9747 27.5187 24.1823 27.4254 24.3688C27.3352 24.5523 27.2088 24.7087 27.0464 24.8381C26.8839 24.9674 26.6914 25.0682 26.4688 25.1404C26.2492 25.2096 26.0116 25.2442 25.7559 25.2442C25.6656 25.2442 25.5784 25.2397 25.4942 25.2306C25.4099 25.2216 25.3272 25.2096 25.246 25.1946C25.1016 25.2818 25.0294 25.3796 25.0294 25.4878C25.0294 25.5811 25.0715 25.6503 25.1557 25.6954C25.243 25.7375 25.3573 25.7676 25.4987 25.7857C25.6401 25.8037 25.801 25.8157 25.9815 25.8218C26.162 25.8248 26.347 25.8338 26.5365 25.8488C26.726 25.8639 26.911 25.8909 27.0915 25.93C27.272 25.9661 27.4329 26.0248 27.5743 26.106C27.7157 26.1872 27.8285 26.2986 27.9127 26.4399C28 26.5783 28.0436 26.7573 28.0436 26.9769C28.0436 27.1814 27.9924 27.38 27.8902 27.5725C27.7909 27.765 27.645 27.9365 27.4525 28.0869C27.263 28.2373 27.0283 28.3576 26.7486 28.4479C26.4718 28.5411 26.156 28.5878 25.801 28.5878C25.452 28.5878 25.1482 28.5532 24.8895 28.484C24.6308 28.4178 24.4157 28.3276 24.2443 28.2133C24.0728 28.102 23.9449 27.9726 23.8607 27.8252C23.7765 27.6778 23.7344 27.5244 23.7344 27.3649C23.7344 27.1484 23.7991 26.9679 23.9284 26.8235C24.0608 26.6761 24.2413 26.5588 24.4699 26.4715C24.3465 26.4083 24.2488 26.3241 24.1766 26.2188C24.1044 26.1135 24.0683 25.9752 24.0683 25.8037C24.0683 25.7345 24.0803 25.6638 24.1044 25.5916C24.1315 25.5164 24.1691 25.4427 24.2172 25.3705C24.2683 25.2983 24.3315 25.2306 24.4067 25.1675C24.4819 25.1013 24.5706 25.0426 24.6729 24.9915C24.4383 24.8652 24.2533 24.6967 24.1179 24.4861C23.9856 24.2756 23.9194 24.0289 23.9194 23.7461C23.9194 23.5175 23.9645 23.3114 24.0547 23.1279C24.148 22.9414 24.2758 22.7835 24.4383 22.6542C24.6037 22.5218 24.7978 22.421 25.0204 22.3518C25.246 22.2826 25.4911 22.248 25.7559 22.248C25.9544 22.248 26.1409 22.2691 26.3154 22.3112C26.4899 22.3503 26.6493 22.409 26.7937 22.4872H28.1248Z" fill="white"/>
<path d="M20.0111 22.8986C20.1043 22.8053 20.2021 22.7196 20.3044 22.6414C20.4097 22.5601 20.5195 22.4924 20.6338 22.4383C20.7511 22.3811 20.8759 22.3375 21.0083 22.3074C21.1407 22.2744 21.285 22.2578 21.4415 22.2578C21.6942 22.2578 21.9183 22.3014 22.1138 22.3887C22.3093 22.4729 22.4718 22.5932 22.6011 22.7496C22.7335 22.9031 22.8327 23.0881 22.8989 23.3047C22.9681 23.5182 23.0027 23.7544 23.0027 24.0131V26.9596H21.8882V24.0131C21.8882 23.7303 21.8235 23.5122 21.6942 23.3588C21.5648 23.2024 21.3678 23.1242 21.103 23.1242C20.9105 23.1242 20.73 23.1678 20.5616 23.255C20.3931 23.3423 20.2337 23.4611 20.0833 23.6115V26.9596H18.9688V22.33H19.6501C19.7945 22.33 19.8893 22.3977 19.9344 22.5331L20.0111 22.8986Z" fill="white"/>
<path d="M14.9544 25.7592C15.0807 25.9126 15.2176 26.0209 15.365 26.0841C15.5154 26.1472 15.6778 26.1788 15.8523 26.1788C16.0208 26.1788 16.1727 26.1472 16.308 26.0841C16.4434 26.0209 16.5577 25.9246 16.651 25.7953C16.7472 25.6659 16.8209 25.5035 16.8721 25.308C16.9232 25.1094 16.9488 24.8763 16.9488 24.6086C16.9488 24.3378 16.9262 24.1092 16.8811 23.9227C16.839 23.7332 16.7773 23.5798 16.6961 23.4625C16.6149 23.3451 16.5156 23.2594 16.3983 23.2053C16.284 23.1511 16.1531 23.124 16.0057 23.124C15.7741 23.124 15.5771 23.1737 15.4146 23.2729C15.2522 23.3692 15.0988 23.5061 14.9544 23.6836V25.7592ZM14.8957 22.9616C15.0852 22.748 15.3003 22.575 15.541 22.4427C15.7816 22.3103 16.0644 22.2441 16.3893 22.2441C16.642 22.2441 16.8721 22.2968 17.0796 22.4021C17.2902 22.5074 17.4707 22.6608 17.6211 22.8623C17.7745 23.0609 17.8919 23.3075 17.9731 23.6023C18.0573 23.8941 18.0994 24.2295 18.0994 24.6086C18.0994 24.9545 18.0528 25.2749 17.9595 25.5697C17.8663 25.8645 17.7324 26.1202 17.5579 26.3368C17.3865 26.5533 17.1774 26.7233 16.9307 26.8466C16.6871 26.967 16.4133 27.0271 16.1095 27.0271C15.8508 27.0271 15.6297 26.988 15.4462 26.9098C15.2627 26.8286 15.0988 26.7173 14.9544 26.5759V28.4711H13.8398V22.3299H14.5212C14.6656 22.3299 14.7603 22.3976 14.8055 22.5329L14.8957 22.9616Z" fill="white"/>
<path d="M11.5352 26.3454C11.5352 26.2522 11.5517 26.1634 11.5848 26.0792C11.6209 25.995 11.669 25.9228 11.7292 25.8626C11.7893 25.8024 11.8615 25.7543 11.9458 25.7182C12.03 25.6821 12.1202 25.6641 12.2165 25.6641C12.3128 25.6641 12.4015 25.6821 12.4827 25.7182C12.567 25.7543 12.6392 25.8024 12.6993 25.8626C12.7625 25.9228 12.8121 25.995 12.8482 26.0792C12.8843 26.1634 12.9024 26.2522 12.9024 26.3454C12.9024 26.4417 12.8843 26.5319 12.8482 26.6161C12.8121 26.6974 12.7625 26.7681 12.6993 26.8282C12.6392 26.8884 12.567 26.935 12.4827 26.9681C12.4015 27.0042 12.3128 27.0223 12.2165 27.0223C12.1202 27.0223 12.03 27.0042 11.9458 26.9681C11.8615 26.935 11.7893 26.8884 11.7292 26.8282C11.669 26.7681 11.6209 26.6974 11.5848 26.6161C11.5517 26.5319 11.5352 26.4417 11.5352 26.3454Z" fill="white"/>
</svg>
