<svg width="18" height="18" viewBox="0 0 18 18" fill="none" xmlns="http://www.w3.org/2000/svg">
<path d="M12.4686 10.7349H5.53106C5.05181 10.7349 4.66406 11.1226 4.66406 11.6019V15.0706C4.66406 15.5491 5.05181 15.9376 5.53106 15.9376H12.4686C12.9478 15.9376 13.3356 15.5491 13.3356 15.0706V11.6019C13.3356 11.1226 12.9478 10.7349 12.4686 10.7349Z" stroke="#42526E" stroke-width="1.5" stroke-linecap="round" stroke-linejoin="round"/>
<path d="M13.3358 13.3357H15.0705C15.3004 13.3357 15.521 13.2443 15.6836 13.0818C15.8462 12.9192 15.9375 12.6986 15.9375 12.4687V8.13294C15.9376 7.90517 15.8928 7.67961 15.8057 7.46914C15.7186 7.25868 15.5909 7.06743 15.4299 6.90634C15.2689 6.74524 15.0777 6.61745 14.8672 6.53026C14.6568 6.44307 14.4313 6.39819 14.2035 6.39819H3.79725C3.56941 6.39809 3.34379 6.4429 3.13327 6.53004C2.92276 6.61719 2.73148 6.74496 2.57038 6.90607C2.40927 7.06718 2.28149 7.25845 2.19435 7.46897C2.1072 7.67948 2.0624 7.9051 2.0625 8.13294V12.4687C2.0625 12.6986 2.15384 12.9192 2.31644 13.0818C2.47903 13.2443 2.69956 13.3357 2.9295 13.3357H4.665" stroke="#42526E" stroke-width="1.5" stroke-linecap="round" stroke-linejoin="round"/>
<path d="M12.4685 6.39825V2.9295C12.4685 2.69956 12.3772 2.47903 12.2146 2.31644C12.052 2.15384 11.8315 2.0625 11.6015 2.0625H6.39727C6.16733 2.0625 5.94681 2.15384 5.78421 2.31644C5.62162 2.47903 5.53027 2.69956 5.53027 2.9295V6.39825" stroke="#42526E" stroke-width="1.5" stroke-linecap="round" stroke-linejoin="round"/>
</svg>
