<svg width="112" height="60" viewBox="0 0 112 60" fill="none" xmlns="http://www.w3.org/2000/svg">
<path d="M1 60.0009V39.4173C5.8125 39.4173 9.9375 32.6832 14.75 32.6832C19.5625 32.6832 23.6875 38.5755 28.5 38.5755C33.3125 38.5755 37.4375 26.5104 42.25 26.5104C47.0625 26.5104 51.1875 20.6182 56 20.6182C60.8125 20.6182 64.9375 17.5317 69.75 17.5317C74.5625 17.5317 78.6875 14.4453 83.5 14.4453C88.3125 14.4453 92.4375 20.6182 97.25 20.6182C102.062 20.6182 106.187 29.5968 111 29.5968C111 29.5968 111 47.3746 111 60.0009" fill="url(#paint0_linear_206_49340)"/>
<path d="M1 38.8898C5.8125 38.8898 9.9375 32.298 14.75 32.298C19.5625 32.298 23.6875 38.0658 28.5 38.0658C33.3125 38.0658 37.4375 26.2555 42.25 26.2555C47.0625 26.2555 51.1875 20.4878 56 20.4878C60.8125 20.4878 64.9375 17.4665 69.75 17.4665C74.5625 17.4665 78.6875 14.4453 83.5 14.4453C88.3125 14.4453 92.4375 20.4878 97.25 20.4878C102.062 20.4878 106.187 29.2768 111 29.2768" stroke="#A424B4" stroke-linecap="round"/>
<defs>
<linearGradient id="paint0_linear_206_49340" x1="56" y1="14.4453" x2="56" y2="60.0009" gradientUnits="userSpaceOnUse">
<stop stop-color="#6418C3" stop-opacity="0.32"/>
<stop offset="1" stop-color="#6418C3" stop-opacity="0.08"/>
</linearGradient>
</defs>
</svg>
