<svg width="112" height="48" viewBox="0 0 112 48" fill="none" xmlns="http://www.w3.org/2000/svg">
<path d="M110.668 48.0009V36.4453C105.855 36.4453 101.73 33.7786 96.918 33.7786C92.1055 33.7786 87.697 30.2231 82.8845 30.2231C78.072 30.2231 74.2305 21.2085 69.418 21.2085C64.6055 21.2085 60.4805 16.4947 55.668 16.4947C50.8555 16.4947 46.7305 14.0256 41.918 14.0256C37.1055 14.0256 32.9805 18.6675 28.168 18.6675C23.3555 18.6675 19.2305 16.4947 14.418 16.4947C9.60548 16.4947 5.48048 8.44531 0.667976 8.44531C0.667976 8.44531 0.667976 37.8999 0.667976 48.0009" fill="url(#paint0_linear_773_56433)"/>
<path d="M110.668 36.4453C105.855 36.4453 101.73 33.7786 96.918 33.7786C92.1055 33.7786 87.9805 30.4528 83.168 30.4528C78.3555 30.4528 74.2305 21.0046 69.418 21.0046C64.6055 21.0046 60.4805 16.3904 55.668 16.3904C50.8555 16.3904 46.7305 13.9734 41.918 13.9734C37.1055 13.9734 32.9805 18.6675 28.168 18.6675C23.3555 18.6675 19.2305 16.3904 14.418 16.3904C9.60548 16.3904 5.48047 8.44531 0.667974 8.44531" stroke="#EF4444" stroke-linecap="round"/>
<defs>
<linearGradient id="paint0_linear_773_56433" x1="55.668" y1="8.44531" x2="55.668" y2="48.0009" gradientUnits="userSpaceOnUse">
<stop stop-color="#EF4444" stop-opacity="0.32"/>
<stop offset="1" stop-color="#EF4444" stop-opacity="0.08"/>
</linearGradient>
</defs>
</svg>
