<svg width="18" height="20" viewBox="0 0 18 20" fill="none" xmlns="http://www.w3.org/2000/svg">
<path fill-rule="evenodd" clip-rule="evenodd" d="M11.186 0.00396454C11.6002 0.00396454 11.936 0.339751 11.936 0.753965V4.34996C11.936 4.63748 12.0505 4.9143 12.2553 5.11863C12.4616 5.32389 12.7407 5.43908 13.0317 5.43896H17.157C17.5712 5.43896 17.907 5.77475 17.907 6.18896C17.907 6.60318 17.5712 6.93896 17.157 6.93896H13.0323C13.0322 6.93896 13.0324 6.93896 13.0323 6.93896C12.3444 6.93915 11.6843 6.66677 11.1968 6.18145C10.7098 5.6958 10.436 5.03634 10.436 4.34996V0.753965C10.436 0.339751 10.7718 0.00396454 11.186 0.00396454Z" fill="#5E6C84"/>
<path fill-rule="evenodd" clip-rule="evenodd" d="M5.15612 1.50245C4.22018 1.46763 3.30871 1.80587 2.62206 2.44282L2.62118 2.44364C2.2821 2.75717 2.00842 3.1347 1.81591 3.55448C1.62516 3.97043 1.51785 4.41971 1.5 4.87689V15.1228C1.51833 15.5831 1.627 16.0355 1.81986 16.454C2.01446 16.8763 2.29091 17.2558 2.6332 17.5705C2.97741 17.8859 3.38055 18.1302 3.81946 18.2893C4.25854 18.4485 4.72477 18.5194 5.19133 18.4978C5.20288 18.4972 5.21444 18.497 5.226 18.497H12.816C12.8253 18.497 12.8346 18.4971 12.8439 18.4975C13.7798 18.5323 14.6913 18.1941 15.3779 17.5571L15.3788 17.5563C15.7178 17.2428 15.9915 16.8652 16.184 16.4454C16.3748 16.0295 16.4821 15.5802 16.5 15.123V6.57731C16.4926 6.26823 16.4207 5.96407 16.2889 5.68432C16.1561 5.40239 15.9655 5.15156 15.7294 4.94814C15.7233 4.94286 15.7173 4.93749 15.7113 4.93202L12.7537 2.21225C12.2457 1.75366 11.5849 1.50077 10.9004 1.50296L10.898 1.50296H5.184C5.1747 1.50296 5.16541 1.50279 5.15612 1.50245ZM5.19739 0.00296459C3.86936 -0.0426137 2.57697 0.438871 1.60238 1.3427C1.11819 1.79052 0.727371 2.32971 0.452446 2.92921C0.177438 3.5289 0.0238282 4.17708 0.000470221 4.83641C0.00015676 4.84526 0 4.85411 0 4.86296V15.137C0 15.146 0.000163198 15.155 0.000489473 15.1641C0.0244606 15.8272 0.179816 16.4791 0.457551 17.0818C0.735287 17.6845 1.12988 18.2261 1.61846 18.6751L1.61922 18.6758C2.10925 19.125 2.68323 19.4729 3.30816 19.6995C3.92744 19.924 4.58465 20.0251 5.24267 19.997H12.8026C14.1307 20.0425 15.4231 19.561 16.3976 18.6572C16.8818 18.2094 17.2726 17.6702 17.5475 17.0707C17.8225 16.471 17.9761 15.8229 17.9995 15.1636C17.9998 15.1547 18 15.1458 18 15.137V6.56896L17.9998 6.55338C17.989 6.03139 17.8684 5.51752 17.6459 5.04518C17.4253 4.5767 17.1093 4.15947 16.7182 3.82016L13.7667 1.1059L13.7621 1.10173C12.977 0.391658 11.9554 -0.000113272 10.8968 0.00296459H10.898V0.752965L10.8956 0.00296841C10.896 0.0029671 10.8964 0.00296578 10.8968 0.00296459M3.897 5.64796C3.897 5.23375 4.23279 4.89796 4.647 4.89796H7.912C8.32621 4.89796 8.662 5.23375 8.662 5.64796C8.662 6.06218 8.32621 6.39796 7.912 6.39796H4.647C4.23279 6.39796 3.897 6.06218 3.897 5.64796ZM3.897 10.001C3.897 9.58675 4.23279 9.25097 4.647 9.25097H13.353C13.7672 9.25097 14.103 9.58675 14.103 10.001C14.103 10.4152 13.7672 10.751 13.353 10.751H4.647C4.23279 10.751 3.897 10.4152 3.897 10.001ZM3.897 14.354C3.897 13.9398 4.23279 13.604 4.647 13.604H13.353C13.7672 13.604 14.103 13.9398 14.103 14.354C14.103 14.7682 13.7672 15.104 13.353 15.104H4.647C4.23279 15.104 3.897 14.7682 3.897 14.354Z" fill="#5E6C84"/>
</svg>
