<svg width="16" height="16" viewBox="0 0 16 16" fill="none" xmlns="http://www.w3.org/2000/svg">
<rect width="16" height="16" fill="white" fill-opacity="0.01"/>
<path d="M9.55578 10.48C8.60469 11.2025 7.41534 11.5362 6.22808 11.4138C5.04082 11.2914 3.94421 10.722 3.15988 9.82065C2.37554 8.91929 1.96197 7.7532 2.00275 6.55805C2.04353 5.36291 2.53563 4.22784 3.37957 3.38225C4.22352 2.53667 5.35639 2.04362 6.54921 2.00276C7.74204 1.9619 8.90587 2.37627 9.80549 3.16213C10.7051 3.94799 11.2734 5.04673 11.3956 6.23629C11.5177 7.42586 11.1846 8.61752 10.4636 9.57046L12.7304 11.8417C12.9813 12.0931 13.1843 12.348 12.7304 12.7513C12.2765 13.1546 12.0736 13.0027 11.8226 12.7513L9.55578 10.48ZM6.70999 10.1514C7.61851 10.1514 8.48981 9.78975 9.13223 9.14609C9.77465 8.50242 10.1356 7.62942 10.1356 6.71914C10.1356 5.80886 9.77465 4.93586 9.13223 4.29219C8.48981 3.64853 7.61851 3.28692 6.70999 3.28692C5.80147 3.28692 4.93017 3.64853 4.28775 4.29219C3.64533 4.93586 3.28442 5.80886 3.28442 6.71914C3.28442 7.62942 3.64533 8.50242 4.28775 9.14609C4.93017 9.78975 5.80147 10.1514 6.70999 10.1514Z" fill="#7A869A"/>
</svg>
