<svg width="22" height="22" viewBox="0 0 22 22" fill="none" xmlns="http://www.w3.org/2000/svg">
<path d="M10.9982 7.25284C10.0036 7.25284 9.04979 7.64793 8.34653 8.35119C7.64327 9.05445 7.24818 10.0083 7.24818 11.0028C7.24818 11.9974 7.64327 12.9512 8.34653 13.6545C9.04979 14.3578 10.0036 14.7528 10.9982 14.7528C11.9927 14.7528 12.9466 14.3578 13.6498 13.6545C14.3531 12.9512 14.7482 11.9974 14.7482 11.0028C14.7482 10.0083 14.3531 9.05445 13.6498 8.35119C12.9466 7.64793 11.9927 7.25284 10.9982 7.25284ZM8.74818 11.0028C8.74818 10.4061 8.98523 9.83381 9.40719 9.41185C9.82914 8.9899 10.4014 8.75284 10.9982 8.75284C11.5949 8.75284 12.1672 8.9899 12.5892 9.41185C13.0111 9.83381 13.2482 10.4061 13.2482 11.0028C13.2482 11.5996 13.0111 12.1719 12.5892 12.5938C12.1672 13.0158 11.5949 13.2528 10.9982 13.2528C10.4014 13.2528 9.82914 13.0158 9.40719 12.5938C8.98523 12.1719 8.74818 11.5996 8.74818 11.0028ZM8.62818 21.2238C9.40443 21.4091 10.2002 21.5028 10.9982 21.5028C11.7954 21.5016 12.5898 21.4072 13.3652 21.2216C13.588 21.1691 13.789 21.0489 13.9408 20.8776C14.0925 20.7062 14.1875 20.4921 14.2127 20.2646L14.3882 18.6671C14.4051 18.4928 14.4633 18.3251 14.5579 18.1778C14.6524 18.0304 14.7807 17.9077 14.9321 17.8198C15.0835 17.7318 15.2537 17.6812 15.4286 17.672C15.6034 17.6629 15.7779 17.6955 15.9377 17.7671L17.4039 18.4091C17.6138 18.5015 17.8473 18.5262 18.0719 18.4798C18.2965 18.4335 18.501 18.3183 18.6572 18.1503C19.7406 16.983 20.5493 15.5883 21.0242 14.0681C21.0923 13.8482 21.0902 13.6126 21.0183 13.3939C20.9464 13.1753 20.8082 12.9844 20.6229 12.8478L19.3262 11.8916C19.1845 11.7884 19.0693 11.6531 18.99 11.4969C18.9106 11.3406 18.8694 11.1678 18.8696 10.9925C18.8698 10.8173 18.9115 10.6446 18.9912 10.4885C19.071 10.3324 19.1865 10.1975 19.3284 10.0946L20.6184 9.14209C20.8048 9.00588 20.9438 8.81474 21.0161 8.5955C21.0883 8.37626 21.0901 8.1399 21.0212 7.91959C20.5472 6.39889 19.738 5.00389 18.6534 3.83734C18.4966 3.66967 18.2917 3.55475 18.0668 3.50841C17.842 3.46207 17.6083 3.48659 17.3979 3.57859L15.9384 4.22059C15.7785 4.29033 15.6043 4.32144 15.4301 4.31142C15.2559 4.30139 15.0865 4.25052 14.9355 4.1629C14.7846 4.07529 14.6564 3.95339 14.5614 3.80706C14.4663 3.66074 14.4069 3.49409 14.3882 3.32059L14.2112 1.73059C14.1864 1.50039 14.0901 1.28373 13.9358 1.11112C13.7815 0.938508 13.5769 0.818626 13.3509 0.768344C12.5808 0.596255 11.7948 0.505011 11.0057 0.496094C10.2119 0.505493 9.42123 0.596725 8.64618 0.768344C8.42015 0.817766 8.21541 0.937094 8.061 1.10941C7.9066 1.28172 7.81035 1.49827 7.78593 1.72834L7.60818 3.31984C7.58876 3.4936 7.52892 3.6604 7.43346 3.80688C7.338 3.95336 7.20956 4.07545 7.05843 4.16337C6.9073 4.25129 6.73769 4.3026 6.56317 4.31318C6.38865 4.32377 6.21407 4.29335 6.05343 4.22434L4.59393 3.58159C4.38334 3.49215 4.15041 3.46936 3.92648 3.51629C3.70256 3.56322 3.49838 3.67762 3.34143 3.84409C2.25665 5.01177 1.44688 6.40736 0.971428 7.92859C0.903758 8.14834 0.906098 8.3837 0.978124 8.60206C1.05015 8.82042 1.1883 9.01098 1.37343 9.14734L2.66718 10.1013C2.80811 10.205 2.92268 10.3404 3.00165 10.4966C3.08061 10.6527 3.12175 10.8252 3.12175 11.0002C3.12175 11.1752 3.08061 11.3477 3.00165 11.5039C2.92268 11.66 2.80811 11.7954 2.66718 11.8991L1.37343 12.8553C1.1876 12.992 1.04905 13.1832 0.977118 13.4024C0.905187 13.6215 0.90346 13.8577 0.972178 14.0778C1.44741 15.6001 2.25718 16.9967 3.34218 18.1653C3.44532 18.2762 3.57038 18.3645 3.70943 18.4245C3.84848 18.4846 3.99848 18.5151 4.14993 18.5141C4.30218 18.5141 4.45293 18.4826 4.59318 18.4218L6.05943 17.7776C6.21935 17.7085 6.39326 17.6779 6.56717 17.6882C6.74107 17.6985 6.91014 17.7495 7.06076 17.837C7.21139 17.9246 7.33939 18.0462 7.43446 18.1922C7.52953 18.3382 7.58903 18.5044 7.60818 18.6776L7.78443 20.2721C7.81002 20.4984 7.90478 20.7112 8.05577 20.8817C8.20676 21.0521 8.40665 21.1711 8.62818 21.2238ZM12.7539 19.8251C11.5967 20.0625 10.4034 20.0625 9.24618 19.8251L9.09993 18.5201C9.02843 17.8817 8.72401 17.2921 8.24493 16.8641C7.86984 16.5338 7.40901 16.3163 6.91561 16.2367C6.42222 16.1571 5.91637 16.2186 5.45643 16.4141L4.25193 16.9391C3.47492 16.0494 2.87698 15.018 2.49093 13.9016L3.55893 13.1126C3.88888 12.8695 4.15709 12.5522 4.34194 12.1864C4.52678 11.8206 4.62308 11.4165 4.62308 11.0066C4.62308 10.5967 4.52678 10.1926 4.34194 9.8268C4.15709 9.46099 3.88888 9.14373 3.55893 8.90059L2.49318 8.11309C2.87968 6.99781 3.47759 5.9675 4.25418 5.07859L5.45418 5.60359C5.78493 5.74965 6.14262 5.82476 6.50418 5.82409C7.14804 5.82207 7.76871 5.58348 8.24814 5.1537C8.72757 4.72391 9.03232 4.13291 9.10443 3.49309L9.24993 2.18284C9.83043 2.07034 10.4199 2.01034 11.0102 2.00284C11.5967 2.01034 12.1817 2.07034 12.7577 2.18284L12.8972 3.48784C12.9667 4.12808 13.2704 4.72002 13.7499 5.14984C14.1253 5.48214 14.5873 5.70089 15.0822 5.78056C15.5772 5.86024 16.0845 5.79756 16.5452 5.59984L17.7452 5.07484C18.5229 5.96351 19.1213 6.99418 19.5077 8.11009L18.4404 8.89459C18.1088 9.13688 17.839 9.45403 17.653 9.82023C17.467 10.1864 17.3701 10.5914 17.3701 11.0021C17.3701 11.4128 17.467 11.8177 17.653 12.184C17.839 12.5502 18.1088 12.8673 18.4404 13.1096L19.5069 13.8971C19.1202 15.0109 18.5232 16.0401 17.7482 16.9286L16.5482 16.4036C16.1727 16.2365 15.7629 16.1606 15.3525 16.1822C14.942 16.2037 14.5425 16.3221 14.1866 16.5277C13.8306 16.7332 13.5284 17.0201 13.3046 17.3648C13.0807 17.7095 12.9416 18.1023 12.8987 18.5111L12.7539 19.8251Z" fill="#5E6C84"/>
</svg>
