<svg width="56" height="56" viewBox="0 0 56 56" fill="none" xmlns="http://www.w3.org/2000/svg">
<g filter="url(#filter0_d_541_360941)">
<rect x="6.33203" y="2.5" width="44" height="44" rx="12" fill="#F97316"/>
</g>
<g clip-path="url(#clip0_541_360941)">
<path d="M29.4142 17.125L36.6092 29.5867C36.7189 29.7767 36.7767 29.9922 36.7767 30.2117C36.7767 30.4311 36.7189 30.6466 36.6092 30.8367C36.4995 31.0267 36.3417 31.1845 36.1517 31.2942C35.9617 31.4039 35.7461 31.4617 35.5267 31.4617H21.1367C20.9173 31.4617 20.7017 31.4039 20.5117 31.2942C20.3217 31.1845 20.1639 31.0267 20.0542 30.8367C19.9445 30.6466 19.8867 30.4311 19.8867 30.2117C19.8867 29.9922 19.9445 29.7767 20.0542 29.5867L27.2492 17.125C27.73 16.2917 28.9325 16.2917 29.4142 17.125ZM28.3317 18.5833L21.8584 29.795H34.805L28.3317 18.5833ZM28.3317 27.0017C28.5527 27.0017 28.7647 27.0895 28.9209 27.2457C29.0772 27.402 29.165 27.614 29.165 27.835C29.165 28.056 29.0772 28.268 28.9209 28.4243C28.7647 28.5805 28.5527 28.6683 28.3317 28.6683C28.1107 28.6683 27.8987 28.5805 27.7424 28.4243C27.5862 28.268 27.4984 28.056 27.4984 27.835C27.4984 27.614 27.5862 27.402 27.7424 27.2457C27.8987 27.0895 28.1107 27.0017 28.3317 27.0017ZM28.3317 21.1683C28.5527 21.1683 28.7647 21.2561 28.9209 21.4124C29.0772 21.5687 29.165 21.7807 29.165 22.0017V25.335C29.165 25.556 29.0772 25.768 28.9209 25.9243C28.7647 26.0805 28.5527 26.1683 28.3317 26.1683C28.1107 26.1683 27.8987 26.0805 27.7424 25.9243C27.5862 25.768 27.4984 25.556 27.4984 25.335V22.0017C27.4984 21.7807 27.5862 21.5687 27.7424 21.4124C27.8987 21.2561 28.1107 21.1683 28.3317 21.1683Z" fill="white"/>
</g>
<defs>
<filter id="filter0_d_541_360941" x="0.832031" y="0.5" width="55" height="55" filterUnits="userSpaceOnUse" color-interpolation-filters="sRGB">
<feFlood flood-opacity="0" result="BackgroundImageFix"/>
<feColorMatrix in="SourceAlpha" type="matrix" values="0 0 0 0 0 0 0 0 0 0 0 0 0 0 0 0 0 0 127 0" result="hardAlpha"/>
<feOffset dy="3.5"/>
<feGaussianBlur stdDeviation="2.75"/>
<feColorMatrix type="matrix" values="0 0 0 0 0 0 0 0 0 0 0 0 0 0 0 0 0 0 0.02 0"/>
<feBlend mode="normal" in2="BackgroundImageFix" result="effect1_dropShadow_541_360941"/>
<feBlend mode="normal" in="SourceGraphic" in2="effect1_dropShadow_541_360941" result="shape"/>
</filter>
<clipPath id="clip0_541_360941">
<rect width="20" height="20" fill="white" transform="translate(18.332 14.5)"/>
</clipPath>
</defs>
</svg>
