<svg width="20" height="20" viewBox="0 0 20 20" fill="none" xmlns="http://www.w3.org/2000/svg">
<path fill-rule="evenodd" clip-rule="evenodd" d="M8.83268 10.4987C8.45768 10.7487 8.2599 11.1306 8.23935 11.6445C8.21879 12.1584 8.3749 12.582 8.70768 12.9154C9.04102 13.2487 9.47157 13.412 9.99935 13.4054C10.5271 13.3987 10.916 13.2076 11.166 12.832L15.8327 5.83203L8.83268 10.4987ZM9.99935 4.9987C10.4999 4.99926 10.9966 5.05842 11.4893 5.1762C11.9821 5.29398 12.4577 5.47092 12.916 5.70703L14.4993 4.70703C14.1861 4.49175 13.8627 4.30171 13.5293 4.13693C13.1538 3.95132 12.7655 3.79774 12.3643 3.6762C11.6071 3.44676 10.8188 3.33203 9.99935 3.33203C8.85935 3.33148 7.78268 3.55009 6.76935 3.98787C5.75602 4.42564 4.87102 5.02314 4.11435 5.78037C3.35768 6.53648 2.76046 7.41814 2.32268 8.42537C1.8849 9.43259 1.66602 10.5126 1.66602 11.6654C1.66602 12.4426 1.76324 13.182 1.95768 13.8837C2.15213 14.5854 2.4299 15.2487 2.79102 15.8737C2.94379 16.1237 3.15213 16.3181 3.41602 16.457C3.6799 16.5959 3.95768 16.6654 4.24935 16.6654H15.7493C16.041 16.6654 16.3188 16.5959 16.5827 16.457C16.8466 16.3181 17.0549 16.1237 17.2077 15.8737C17.5827 15.2209 17.8674 14.5334 18.0618 13.8112C18.2563 13.089 18.3466 12.332 18.3327 11.5404C18.3193 10.7487 18.191 9.98481 17.9477 9.2487C17.8244 8.87573 17.6788 8.51345 17.5111 8.16187C17.3477 7.81956 17.1632 7.4874 16.9577 7.16537L15.9577 8.7487C16.1932 9.19314 16.3702 9.65148 16.4885 10.1237C16.6069 10.5959 16.666 11.082 16.666 11.582C16.6666 12.1931 16.5938 12.7834 16.4477 13.3529C16.3016 13.9223 16.0688 14.4709 15.7493 14.9987H4.24935C3.95824 14.4987 3.73268 13.964 3.57268 13.3945C3.41268 12.8251 3.33268 12.2487 3.33268 11.6654C3.33213 9.81759 3.98129 8.24453 5.28018 6.9462C6.57907 5.64787 8.15213 4.9987 9.99935 4.9987ZM12.2271 9.43758L9.38738 11.3307C9.31926 11.3762 9.24838 11.4387 9.23855 11.6845C9.22801 11.948 9.29873 12.0918 9.41496 12.2084C9.53398 12.3274 9.69325 12.4092 9.98672 12.4054C10.2491 12.4021 10.2996 12.3289 10.3336 12.2779L12.2271 9.43758Z" fill="#A855F7"/>
</svg>
