<svg width="56" height="56" viewBox="0 0 56 56" fill="none" xmlns="http://www.w3.org/2000/svg">
<g filter="url(#filter0_d_541_360950)">
<rect x="5.66406" y="2.5" width="44" height="44" rx="12" fill="#EF4444"/>
</g>
<path d="M26.3698 27.4154C26.7031 27.7487 27.1337 27.912 27.6615 27.9054C28.1892 27.8987 28.5781 27.7076 28.8281 27.332L33.4948 20.332L26.4948 24.9987C26.1198 25.2487 25.922 25.6306 25.9015 26.1445C25.8809 26.6584 26.037 27.082 26.3698 27.4154ZM27.6615 17.832C28.4809 17.832 29.2692 17.9465 30.0265 18.1754C30.7837 18.4043 31.4953 18.7481 32.1615 19.207L30.5781 20.207C30.1198 19.9709 29.6442 19.794 29.1515 19.6762C28.6587 19.5584 28.162 19.4993 27.6615 19.4987C25.8142 19.4987 24.2412 20.1481 22.9423 21.447C21.6434 22.7459 20.9942 24.3187 20.9948 26.1654C20.9948 26.7487 21.0748 27.3251 21.2348 27.8945C21.3948 28.464 21.6203 28.9987 21.9115 29.4987H33.4115C33.7309 28.9709 33.9637 28.4223 34.1098 27.8529C34.2559 27.2834 34.3287 26.6931 34.3281 26.082C34.3281 25.582 34.269 25.0959 34.1506 24.6237C34.0323 24.1515 33.8553 23.6931 33.6198 23.2487L34.6198 21.6654C35.0365 22.3181 35.3665 23.0126 35.6098 23.7487C35.8531 24.4848 35.9815 25.2487 35.9948 26.0404C36.0087 26.832 35.9184 27.589 35.724 28.3112C35.5295 29.0334 35.2448 29.7209 34.8698 30.3737C34.717 30.6237 34.5087 30.8181 34.2448 30.957C33.9809 31.0959 33.7031 31.1654 33.4115 31.1654H21.9115C21.6198 31.1654 21.342 31.0959 21.0781 30.957C20.8142 30.8181 20.6059 30.6237 20.4531 30.3737C20.092 29.7487 19.8142 29.0856 19.6198 28.3845C19.4253 27.6834 19.3281 26.9437 19.3281 26.1654C19.3281 25.0126 19.547 23.9329 19.9848 22.9262C20.4226 21.9195 21.0198 21.0376 21.7765 20.2804C22.5331 19.5231 23.4181 18.9259 24.4315 18.4887C25.4448 18.0515 26.5215 17.8326 27.6615 17.832Z" fill="white"/>
<defs>
<filter id="filter0_d_541_360950" x="0.164062" y="0.5" width="55" height="55" filterUnits="userSpaceOnUse" color-interpolation-filters="sRGB">
<feFlood flood-opacity="0" result="BackgroundImageFix"/>
<feColorMatrix in="SourceAlpha" type="matrix" values="0 0 0 0 0 0 0 0 0 0 0 0 0 0 0 0 0 0 127 0" result="hardAlpha"/>
<feOffset dy="3.5"/>
<feGaussianBlur stdDeviation="2.75"/>
<feColorMatrix type="matrix" values="0 0 0 0 0 0 0 0 0 0 0 0 0 0 0 0 0 0 0.02 0"/>
<feBlend mode="normal" in2="BackgroundImageFix" result="effect1_dropShadow_541_360950"/>
<feBlend mode="normal" in="SourceGraphic" in2="effect1_dropShadow_541_360950" result="shape"/>
</filter>
</defs>
</svg>
