<svg width="20" height="20" viewBox="0 0 20 20" fill="none" xmlns="http://www.w3.org/2000/svg">
<circle cx="10" cy="10" r="9.5" fill="#DC2626" stroke="white"/>
<g clip-path="url(#clip0_2763_25430)">
<path fill-rule="evenodd" clip-rule="evenodd" d="M6 7C6 6.73478 6.10536 6.48043 6.29289 6.29289C6.48043 6.10536 6.73478 6 7 6H13C13.2652 6 13.5196 6.10536 13.7071 6.29289C13.8946 6.48043 14 6.73478 14 7V13C14 13.2652 13.8946 13.5196 13.7071 13.7071C13.5196 13.8946 13.2652 14 13 14H7C6.73478 14 6.48043 13.8946 6.29289 13.7071C6.10536 13.5196 6 13.2652 6 13V7Z" fill="white"/>
</g>
<defs>
<clipPath id="clip0_2763_25430">
<rect width="12" height="12" fill="white" transform="translate(4 4)"/>
</clipPath>
</defs>
</svg>
