<svg width="24" height="24" viewBox="0 0 24 24" fill="none" xmlns="http://www.w3.org/2000/svg">
<g clip-path="url(#clip0_2220_273670)">
<path d="M17.2497 10.179C18.1591 10.179 19.0313 9.81773 19.6743 9.17467M17.2497 10.179C16.3402 10.179 15.4681 9.81773 14.825 9.17467M17.2497 10.179V12.75M19.6743 9.17467C20.3174 8.53161 20.6787 7.65943 20.6787 6.75M19.6743 9.17467L21.4927 10.993M20.6787 6.75C20.6787 5.84057 20.3174 4.96839 19.6743 4.32533M20.6787 6.75H23.2497M19.6743 4.32533C19.0313 3.68227 18.1591 3.321 17.2497 3.321M19.6743 4.32533L21.4927 2.507M17.2497 3.321C16.3402 3.321 15.4681 3.68227 14.825 4.32533M17.2497 3.321V0.75M14.825 4.32533C14.1819 4.96839 13.8207 5.84057 13.8207 6.75M14.825 4.32533L13.0067 2.507M13.8207 6.75C13.8207 7.65943 14.1819 8.53161 14.825 9.17467M13.8207 6.75H11.2497M14.825 9.17467L13.0067 10.993M16.6787 0.75H17.8207M21.0887 2.103L21.8967 2.911M23.2497 6.179V7.321M21.8967 10.589L21.0887 11.397M17.8207 12.75H16.6787M13.4107 11.397L12.6027 10.589M11.2497 7.321V6.179M12.6027 2.911L13.4107 2.103M5.24967 5.25V17.25M8.24967 15.418V3.75C8.24967 2.95435 7.9336 2.19129 7.37099 1.62868C6.80838 1.06607 6.04532 0.75 5.24967 0.75C4.45402 0.75 3.69096 1.06607 3.12835 1.62868C2.56574 2.19129 2.24967 2.95435 2.24967 3.75V15.418C1.69309 15.9193 1.27069 16.5518 1.02088 17.258C0.771074 17.9642 0.701791 18.7217 0.819335 19.4615C0.936879 20.2012 1.23752 20.8999 1.69391 21.4939C2.1503 22.0879 2.74795 22.5583 3.4325 22.8624C4.11705 23.1666 4.86678 23.2947 5.61348 23.2352C6.36019 23.1757 7.08017 22.9305 7.70793 22.5218C8.3357 22.1132 8.85133 21.554 9.20792 20.8953C9.56451 20.2365 9.75074 19.4991 9.74967 18.75C9.74832 18.1203 9.61401 17.498 9.35552 16.9238C9.09703 16.3496 8.72019 15.8365 8.24967 15.418Z" stroke="#2E9245" stroke-width="1.5" stroke-linecap="round" stroke-linejoin="round"/>
<path d="M5.25 20.25C5.64782 20.25 6.02936 20.092 6.31066 19.8107C6.59196 19.5294 6.75 19.1478 6.75 18.75C6.75 18.3522 6.59196 17.9706 6.31066 17.6893C6.02936 17.408 5.64782 17.25 5.25 17.25C4.85218 17.25 4.47064 17.408 4.18934 17.6893C3.90804 17.9706 3.75 18.3522 3.75 18.75C3.75 19.1478 3.90804 19.5294 4.18934 19.8107C4.47064 20.092 4.85218 20.25 5.25 20.25Z" stroke="#2E9245" stroke-width="1.5" stroke-linecap="round" stroke-linejoin="round"/>
</g>
<defs>
<clipPath id="clip0_2220_273670">
<rect width="24" height="24" fill="white"/>
</clipPath>
</defs>
</svg>
