<svg width="20" height="21" viewBox="0 0 20 21" fill="none" xmlns="http://www.w3.org/2000/svg">
<path d="M9.66732 10.4686V5.41406H10.334V9.98573V10.1928L10.4804 10.3393L12.9719 12.8307L12.5007 13.302L9.66732 10.4686ZM10.0007 18.3307C11.0512 18.3307 12.0915 18.1238 13.0621 17.7218C14.0327 17.3197 14.9146 16.7304 15.6575 15.9876C16.4004 15.2447 16.9896 14.3628 17.3917 13.3922C17.7937 12.4216 18.0006 11.3813 18.0006 10.3307C18.0006 9.28015 17.7937 8.23987 17.3917 7.26926C16.9896 6.29866 16.4004 5.41674 15.6575 4.67387C14.9146 3.93101 14.0327 3.34173 13.0621 2.93969C12.0915 2.53765 11.0512 2.33073 10.0007 2.33073C7.87892 2.33073 5.84409 3.17358 4.3438 4.67387C2.84351 6.17417 2.00065 8.209 2.00065 10.3307C2.00065 12.4525 2.84351 14.4873 4.3438 15.9876C5.84409 17.4879 7.87892 18.3307 10.0007 18.3307ZM18.6673 10.3307C18.6673 15.1171 14.787 18.9974 10.0007 18.9974C5.21429 18.9974 1.33398 15.1171 1.33398 10.3307C1.33398 5.54437 5.21429 1.66406 10.0007 1.66406C14.787 1.66406 18.6673 5.54437 18.6673 10.3307Z" fill="white" stroke="#F97316"/>
</svg>
