<svg width="21" height="21" viewBox="0 0 21 21" fill="none" xmlns="http://www.w3.org/2000/svg">
<path d="M6.47068 4.82286L5.97095 5.16271L6.39839 5.58995L6.39914 5.59069L6.39922 5.59078L15.66 14.8515L16.0872 15.2788L16.427 14.7792C17.365 13.3998 17.7926 11.7364 17.6358 10.0757C17.4791 8.41494 16.748 6.8609 15.5685 5.68136C14.3889 4.50183 12.8349 3.7707 11.1742 3.61399C9.51342 3.45728 7.85004 3.88479 6.47068 4.82286ZM5.33788 6.65106L5.01851 6.97048L4.63155 6.65034L4.63072 6.65117L4.2773 7.00476L4.34711 7.07455C3.56624 8.38024 3.21927 9.90428 3.36287 11.4261C3.51958 13.0868 4.25071 14.6409 5.43024 15.8204C6.60978 17 8.16382 17.7311 9.82456 17.8878C11.4853 18.0445 13.1487 17.617 14.528 16.6789L15.0277 16.3391L14.6004 15.9119L5.33788 6.65106ZM10.4988 2.91797H10.4994C14.8257 2.91797 18.3327 6.42495 18.3327 10.7513V10.7519C18.3339 11.7806 18.1318 12.7993 17.7382 13.7497C17.3445 14.7001 16.767 15.5633 16.0387 16.2898L16.0379 16.2907C15.3114 17.0189 14.4481 17.5964 13.4978 17.9901C12.5474 18.3838 11.5286 18.5858 10.4999 18.5846H10.4994C6.173 18.5846 2.66602 15.0777 2.66602 10.7513L2.66602 10.7507C2.66484 9.72206 2.86688 8.70328 3.26055 7.75291C3.65422 6.80254 4.23176 5.93931 4.95999 5.21278L4.96082 5.21195C5.68735 4.48371 6.55059 3.90617 7.50096 3.5125C8.45133 3.11884 9.4701 2.91679 10.4988 2.91797Z" stroke="#EF4444"/>
</svg>
