<svg width="24" height="24" viewBox="0 0 24 24" fill="none" xmlns="http://www.w3.org/2000/svg">
<rect width="24" height="24" transform="translate(0 24) rotate(-90)" fill="white" fill-opacity="0.01"/>
<path fill-rule="evenodd" clip-rule="evenodd" d="M9.69817 13.7057C9.60626 13.7989 9.49673 13.8729 9.37596 13.9235C9.25519 13.974 9.12559 14 8.99467 14C8.86376 14 8.73416 13.974 8.61339 13.9235C8.49262 13.8729 8.38309 13.7989 8.29117 13.7057C8.10461 13.5167 8 13.2618 8 12.9962C8 12.7306 8.10461 12.4757 8.29117 12.2867L11.2312 9.32171C11.3325 9.21951 11.4531 9.1384 11.5859 9.08304C11.7188 9.02769 11.8613 8.99919 12.0052 8.99919C12.1491 8.99919 12.2916 9.02769 12.4244 9.08304C12.5573 9.1384 12.6778 9.21951 12.7792 9.32171L15.7092 12.2767C15.896 12.4658 16.0008 12.7209 16.0008 12.9867C16.0008 13.2525 15.896 13.5076 15.7092 13.6967C15.6173 13.7899 15.5077 13.8639 15.387 13.9145C15.2662 13.965 15.1366 13.991 15.0057 13.991C14.8748 13.991 14.7452 13.965 14.6244 13.9145C14.5036 13.8639 14.3941 13.7899 14.3022 13.6967L12.0052 11.3787L9.69817 13.7057Z" fill="#5E6C84"/>
</svg>
