<svg width="18" height="18" viewBox="0 0 18 18" fill="none" xmlns="http://www.w3.org/2000/svg">
<path d="M5.11524 12L12.8852 12C13.4777 12 13.8377 11.3475 13.5152 10.845L9.63024 4.74C9.5626 4.63312 9.46902 4.54508 9.35821 4.48407C9.24741 4.42306 9.12298 4.39107 8.99649 4.39107C8.87 4.39107 8.74556 4.42306 8.63476 4.48407C8.52395 4.54508 8.43038 4.63312 8.36274 4.74L4.48524 10.845C4.41207 10.9581 4.37079 11.0889 4.36576 11.2235C4.36072 11.3582 4.39212 11.4916 4.45663 11.6099C4.52114 11.7282 4.61638 11.8269 4.7323 11.8955C4.84822 11.9642 4.98051 12.0003 5.11524 12Z" fill="#42526E"/>
</svg>
