<svg width="112" height="60" viewBox="0 0 112 60" fill="none" xmlns="http://www.w3.org/2000/svg">
<path d="M110.668 60.0003V38.8892C105.855 38.8892 101.73 32.6827 96.918 32.6827C92.1055 32.6827 87.9805 32.6827 83.168 32.6827C78.3555 32.6827 74.2305 26.5099 69.418 26.5099C64.6055 26.5099 60.4805 20.6177 55.668 20.6177C50.8555 20.6177 46.7305 17.5312 41.918 17.5312C37.1055 17.5312 34.398 21.667 29.5855 21.667C22.2144 21.667 24.1918 28.8892 19.3793 28.8892C14.5668 28.8892 5.48048 32.2226 0.667976 32.2226C0.667976 32.2226 0.667976 47.3741 0.667976 60.0003" fill="url(#paint0_linear_206_49360)"/>
<path d="M110.668 38.888C105.855 38.888 101.73 32.2963 96.918 32.2963C92.1055 32.2963 87.9805 32.7768 83.168 32.7768C78.3555 32.7768 74.2305 26.2538 69.418 26.2538C64.6055 26.2538 60.4805 20.4861 55.668 20.4861C50.8555 20.4861 46.7305 17.4648 41.918 17.4648C37.1055 17.4648 32.697 21.6657 27.8845 21.6657C23.072 21.6657 23.6248 28.8879 18.8123 28.8879C13.9998 28.8879 5.48047 32.2212 0.667974 32.2212" stroke="#F59E0B" stroke-linecap="round"/>
<defs>
<linearGradient id="paint0_linear_206_49360" x1="55.668" y1="17.5312" x2="55.668" y2="60.0003" gradientUnits="userSpaceOnUse">
<stop stop-color="#F59E0B" stop-opacity="0.32"/>
<stop offset="1" stop-color="#F59E0B" stop-opacity="0.08"/>
</linearGradient>
</defs>
</svg>
