<svg width="24" height="24" viewBox="0 0 24 24" fill="none" xmlns="http://www.w3.org/2000/svg">
<rect x="0.5" y="0.5" width="23" height="23" rx="11.5" fill="white"/>
<rect x="0.5" y="0.5" width="23" height="23" rx="11.5" stroke="#DFE1E6"/>
<path d="M12.867 16.6848C14.1743 15.5879 16.5 13.3469 16.5 11.2904C16.5 10.1525 16.0259 9.06121 15.182 8.25661C14.3381 7.45202 13.1935 7 12 7C10.8065 7 9.66193 7.45202 8.81802 8.25661C7.97411 9.06121 7.5 10.1525 7.5 11.2904C7.5 13.3469 9.825 15.5879 11.133 16.6848C11.3716 16.8878 11.6802 17 12 17C12.3198 17 12.6284 16.8878 12.867 16.6848ZM10.5 11.2904C10.5 10.9111 10.658 10.5473 10.9393 10.2791C11.2206 10.0109 11.6022 9.86023 12 9.86023C12.3978 9.86023 12.7794 10.0109 13.0607 10.2791C13.342 10.5473 13.5 10.9111 13.5 11.2904C13.5 11.6696 13.342 12.0334 13.0607 12.3016C12.7794 12.5698 12.3978 12.7205 12 12.7205C11.6022 12.7205 11.2206 12.5698 10.9393 12.3016C10.658 12.0334 10.5 11.6696 10.5 11.2904Z" fill="#2E9245"/>
</svg>
