<svg width="20" height="20" viewBox="0 0 20 20" fill="none" xmlns="http://www.w3.org/2000/svg">
<path d="M10.5001 5.625V5.62406C10.4999 5.01882 10.6415 4.42196 10.9136 3.88131C11.1856 3.34065 11.5805 2.87124 12.0666 2.51069C12.5527 2.15013 13.1166 1.90846 13.7129 1.80504C14.3092 1.70162 14.9215 1.73932 15.5006 1.91513L15.5009 1.91521C15.5216 1.92147 15.5403 1.93298 15.5552 1.94862L15.9172 1.60373L15.5552 1.94862C15.5701 1.96425 15.5807 1.98348 15.5859 2.00443C15.5912 2.02539 15.5909 2.04734 15.5852 2.06815C15.5794 2.08893 15.5684 2.10788 15.5532 2.12315C15.5531 2.12317 15.5531 2.12319 15.5531 2.12321L12.7866 4.88891L12.6124 5.06298L12.6442 5.30712C12.7119 5.82668 12.9497 6.30924 13.3203 6.67954C13.691 7.04984 14.1738 7.28707 14.6935 7.35423L14.9373 7.38575L15.1112 7.21185L17.876 4.44615C17.876 4.44614 17.8761 4.44613 17.8761 4.44612C17.8913 4.43087 17.9103 4.41983 17.9311 4.41408L17.7979 3.93216L17.9311 4.41408C17.9519 4.40832 17.9739 4.40806 17.9948 4.41331C18.0158 4.41857 18.035 4.42916 18.0506 4.44406C18.0663 4.45895 18.0778 4.47765 18.084 4.49832L18.0841 4.49861C18.2681 5.10448 18.3007 5.74619 18.1793 6.36761C18.0578 6.98903 17.786 7.57122 17.3874 8.06325C16.9889 8.55529 16.4759 8.94217 15.8933 9.19005C15.3106 9.43793 14.6761 9.53926 14.0453 9.48518L14.0446 9.48513C13.1564 9.41009 12.2223 9.54955 11.6924 10.1939C11.6923 10.194 11.6922 10.1941 11.6922 10.1942L5.73485 17.4304C5.73476 17.4305 5.73466 17.4306 5.73457 17.4307C5.53503 17.6718 5.28739 17.8685 5.00748 18.0083C4.72743 18.1482 4.42126 18.2281 4.10857 18.2428C3.79587 18.2575 3.48354 18.2068 3.19158 18.0939C2.89962 17.9809 2.63447 17.8083 2.41309 17.587C2.19171 17.3656 2.01899 17.1005 1.90599 16.8086C1.79299 16.5166 1.7422 16.2043 1.75686 15.8916C1.77153 15.5789 1.85134 15.2727 1.99117 14.9927C2.1309 14.7128 2.32748 14.4652 2.56834 14.2656C2.56853 14.2655 2.56872 14.2653 2.56891 14.2652L9.80456 8.30683L9.80503 8.30644C10.4475 7.77607 10.5884 6.84393 10.5133 5.9546L10.0151 5.99669L10.5134 5.95567C10.5043 5.84568 10.4999 5.73537 10.5001 5.625ZM13.6275 1.31239C14.3007 1.19563 14.992 1.2382 15.6459 1.43669L10.0001 5.62419C9.99987 4.94085 10.1598 4.26698 10.4669 3.65657C10.7741 3.04615 11.2199 2.51617 11.7688 2.10909C12.3176 1.70202 12.9542 1.42916 13.6275 1.31239ZM4.85805 15.1412L4.50449 15.4947L4.85805 15.1412C4.64707 14.9302 4.36092 14.8117 4.06255 14.8117H4.05589C3.75752 14.8117 3.47137 14.9302 3.26039 15.1412L3.61394 15.4947L3.26039 15.1412C3.04941 15.3522 2.93089 15.6383 2.93089 15.9367V15.9434C2.93089 16.2417 3.04941 16.5279 3.26039 16.7389C3.47137 16.9498 3.75752 17.0684 4.05589 17.0684H4.06255C4.36092 17.0684 4.64707 16.9498 4.85805 16.7389C5.06903 16.5279 5.18755 16.2417 5.18755 15.9434V15.9367C5.18755 15.6383 5.06903 15.3522 4.85805 15.1412Z" fill="#2E9245" stroke="#2E9245"/>
<path d="M6.20929 5.71895L7.6537 7.16271L7.11712 7.60424L5.71965 6.20677L5.5732 6.06032H5.36609H4.06279C4.06278 6.06032 4.06277 6.06032 4.06276 6.06032C4.04119 6.06031 4.01999 6.05472 4.00122 6.0441C3.98246 6.03348 3.96678 6.0182 3.95567 5.99974C3.95566 5.99971 3.95564 5.99968 3.95562 5.99965L2.08078 2.87491C2.08077 2.8749 2.08076 2.87489 2.08076 2.87488C2.06644 2.85098 2.06052 2.82299 2.06393 2.79534C2.06734 2.76768 2.0799 2.74195 2.09961 2.72224L2.09965 2.72221L2.72465 2.09721L2.72468 2.09717C2.74439 2.07746 2.77012 2.0649 2.79778 2.06149C2.82544 2.05808 2.85345 2.06401 2.87735 2.07834L6.00209 3.95318C6.0206 3.96429 6.03591 3.97999 6.04654 3.99878C6.05717 4.01755 6.06275 4.03875 6.06276 4.06032C6.06276 4.06033 6.06276 4.06034 6.06276 4.06035V5.36532V5.57249L6.20929 5.71895Z" fill="#2E9245" stroke="#2E9245"/>
<path fill-rule="evenodd" clip-rule="evenodd" d="M10.4634 14.44L13.9492 17.925C14.2104 18.1862 14.5204 18.3934 14.8617 18.5347C15.2029 18.676 15.5686 18.7488 15.938 18.7488C16.3073 18.7488 16.673 18.676 17.0143 18.5347C17.3555 18.3934 17.6655 18.1862 17.9267 17.925C18.1879 17.6639 18.395 17.3538 18.5364 17.0126C18.6777 16.6714 18.7505 16.3056 18.7505 15.9363C18.7505 15.5669 18.6777 15.2012 18.5364 14.86C18.395 14.5187 18.1879 14.2087 17.9267 13.9475L15.1717 11.1934C14.7494 11.2532 14.3217 11.2652 13.8967 11.2292C13.5684 11.2009 13.3284 11.2242 13.1742 11.2642C13.1254 11.2745 13.0785 11.2922 13.035 11.3167L10.4634 14.44ZM13.3084 13.3067C13.4256 13.1897 13.5844 13.1239 13.75 13.1239C13.9157 13.1239 14.0745 13.1897 14.1917 13.3067L15.7542 14.87C15.8156 14.9272 15.8649 14.9962 15.899 15.0729C15.9332 15.1496 15.9516 15.2323 15.953 15.3163C15.9545 15.4002 15.9391 15.4835 15.9076 15.5614C15.8762 15.6392 15.8294 15.7099 15.7701 15.7692C15.7107 15.8286 15.64 15.8754 15.5622 15.9068C15.4844 15.9382 15.401 15.9537 15.3171 15.9522C15.2332 15.9507 15.1504 15.9323 15.0738 15.8982C14.9971 15.864 14.9281 15.8148 14.8709 15.7534L13.3084 14.1909C13.1913 14.0737 13.1256 13.9148 13.1256 13.7492C13.1256 13.5836 13.1913 13.4247 13.3084 13.3075" fill="#2E9245"/>
</svg>
