<svg width="20" height="20" viewBox="0 0 20 20" fill="none" xmlns="http://www.w3.org/2000/svg">
<path d="M10.4996 5.625V5.62406C10.4994 5.01882 10.641 4.42196 10.9131 3.88131C11.1851 3.34065 11.58 2.87124 12.0661 2.51069C12.5523 2.15013 13.1161 1.90846 13.7124 1.80504C14.3087 1.70162 14.921 1.73932 15.5002 1.91513L15.5004 1.91521C15.5211 1.92147 15.5398 1.93298 15.5547 1.94862L15.9167 1.60373L15.5547 1.94862C15.5696 1.96425 15.5802 1.98348 15.5854 2.00443C15.5907 2.02539 15.5904 2.04734 15.5847 2.06815C15.5789 2.08893 15.5679 2.10788 15.5527 2.12315C15.5526 2.12317 15.5526 2.12319 15.5526 2.12321L12.7861 4.88891L12.6119 5.06298L12.6438 5.30712C12.7115 5.82668 12.9492 6.30924 13.3199 6.67954C13.6905 7.04984 14.1733 7.28707 14.693 7.35423L14.9368 7.38575L15.1107 7.21185L17.8755 4.44615C17.8756 4.44614 17.8756 4.44613 17.8756 4.44612C17.8908 4.43087 17.9098 4.41983 17.9306 4.41408L17.7974 3.93216L17.9306 4.41408C17.9514 4.40832 17.9734 4.40806 17.9943 4.41331C18.0153 4.41857 18.0345 4.42916 18.0501 4.44406C18.0658 4.45895 18.0773 4.47765 18.0835 4.49832L18.0836 4.49861C18.2676 5.10448 18.3003 5.74619 18.1788 6.36761C18.0574 6.98903 17.7855 7.57122 17.387 8.06325C16.9884 8.55529 16.4754 8.94217 15.8928 9.19005C15.3101 9.43793 14.6756 9.53926 14.0448 9.48518L14.0442 9.48513C13.1559 9.41009 12.2218 9.54955 11.6919 10.1939C11.6918 10.194 11.6917 10.1941 11.6917 10.1942L5.73436 17.4304C5.73427 17.4305 5.73417 17.4306 5.73408 17.4307C5.53454 17.6718 5.2869 17.8685 5.00699 18.0083C4.72695 18.1482 4.42077 18.2281 4.10808 18.2428C3.79538 18.2575 3.48306 18.2068 3.1911 18.0939C2.89914 17.9809 2.63398 17.8083 2.4126 17.587C2.19122 17.3656 2.0185 17.1005 1.9055 16.8086C1.7925 16.5166 1.74171 16.2043 1.75638 15.8916C1.77104 15.5789 1.85085 15.2727 1.99069 14.9927C2.13041 14.7128 2.32699 14.4652 2.56785 14.2656C2.56804 14.2655 2.56823 14.2653 2.56843 14.2652L9.80407 8.30683L9.80454 8.30644C10.447 7.77607 10.5879 6.84393 10.5128 5.9546L10.0146 5.99669L10.5129 5.95567C10.5038 5.84568 10.4994 5.73537 10.4996 5.625ZM13.627 1.31239C14.3003 1.19563 14.9915 1.2382 15.6454 1.43669L9.99956 5.62419C9.99939 4.94085 10.1593 4.26698 10.4664 3.65657C10.7736 3.04615 11.2194 2.51617 11.7683 2.10909C12.3171 1.70202 12.9537 1.42916 13.627 1.31239ZM4.85756 15.1412L4.50401 15.4947L4.85756 15.1412C4.64658 14.9302 4.36043 14.8117 4.06206 14.8117H4.0554C3.75703 14.8117 3.47088 14.9302 3.2599 15.1412L3.61346 15.4947L3.2599 15.1412C3.04892 15.3522 2.9304 15.6383 2.9304 15.9367V15.9434C2.9304 16.2417 3.04892 16.5279 3.2599 16.7389C3.47088 16.9498 3.75703 17.0684 4.0554 17.0684H4.06206C4.36043 17.0684 4.64658 16.9498 4.85756 16.7389C5.06854 16.5279 5.18706 16.2417 5.18706 15.9434V15.9367C5.18706 15.6383 5.06854 15.3522 4.85756 15.1412Z" fill="#7A869A" stroke="#7A869A"/>
<path d="M6.2088 5.71895L7.65321 7.16271L7.11663 7.60424L5.71916 6.20677L5.57271 6.06032H5.36561H4.0623C4.06229 6.06032 4.06228 6.06032 4.06227 6.06032C4.0407 6.06031 4.0195 6.05472 4.00073 6.0441C3.98198 6.03348 3.96629 6.0182 3.95519 5.99974C3.95517 5.99971 3.95515 5.99968 3.95513 5.99965L2.08029 2.87491C2.08028 2.8749 2.08028 2.87489 2.08027 2.87488C2.06595 2.85098 2.06003 2.82299 2.06344 2.79534C2.06685 2.76768 2.07941 2.74195 2.09912 2.72224L2.09916 2.72221L2.72416 2.09721L2.7242 2.09717C2.7439 2.07746 2.76963 2.0649 2.79729 2.06149C2.82495 2.05808 2.85296 2.06401 2.87686 2.07834L6.00161 3.95318C6.02011 3.96429 6.03542 3.97999 6.04605 3.99878C6.05668 4.01755 6.06227 4.03875 6.06227 4.06032C6.06227 4.06033 6.06227 4.06034 6.06227 4.06035V5.36532V5.57249L6.2088 5.71895Z" fill="#7A869A" stroke="#7A869A"/>
<path fill-rule="evenodd" clip-rule="evenodd" d="M10.4629 14.44L13.9487 17.925C14.2099 18.1862 14.5199 18.3934 14.8612 18.5347C15.2024 18.676 15.5681 18.7488 15.9375 18.7488C16.3068 18.7488 16.6725 18.676 17.0138 18.5347C17.355 18.3934 17.6651 18.1862 17.9262 17.925C18.1874 17.6639 18.3946 17.3538 18.5359 17.0126C18.6772 16.6714 18.75 16.3056 18.75 15.9363C18.75 15.5669 18.6772 15.2012 18.5359 14.86C18.3946 14.5187 18.1874 14.2087 17.9262 13.9475L15.1712 11.1934C14.7489 11.2532 14.3212 11.2652 13.8962 11.2292C13.5679 11.2009 13.3279 11.2242 13.1737 11.2642C13.1249 11.2745 13.078 11.2922 13.0346 11.3167L10.4629 14.44ZM13.3079 13.3067C13.4251 13.1897 13.5839 13.1239 13.7496 13.1239C13.9152 13.1239 14.074 13.1897 14.1912 13.3067L15.7537 14.87C15.8151 14.9272 15.8644 14.9962 15.8985 15.0729C15.9327 15.1496 15.9511 15.2323 15.9525 15.3163C15.954 15.4002 15.9386 15.4835 15.9072 15.5614C15.8757 15.6392 15.8289 15.7099 15.7696 15.7692C15.7102 15.8286 15.6395 15.8754 15.5617 15.9068C15.4839 15.9382 15.4005 15.9537 15.3166 15.9522C15.2327 15.9507 15.1499 15.9323 15.0733 15.8982C14.9966 15.864 14.9276 15.8148 14.8704 15.7534L13.3079 14.1909C13.1908 14.0737 13.1251 13.9148 13.1251 13.7492C13.1251 13.5836 13.1908 13.4247 13.3079 13.3075" fill="#7A869A"/>
</svg>
