<svg width="20" height="20" viewBox="0 0 20 20" fill="none" xmlns="http://www.w3.org/2000/svg">
<path d="M16.835 8.62127L16.9068 8.83673L17.1163 8.9244C17.3286 9.01319 17.5098 9.16273 17.6372 9.35423C17.7647 9.54572 17.8327 9.77062 17.8327 10.0007V14.1665C17.8323 14.3701 17.7784 14.57 17.6762 14.746L18.1086 14.997L17.6762 14.746C17.574 14.9221 17.4272 15.0681 17.2506 15.1694L16.9993 15.3135V15.6032V17.5007C16.9993 17.5891 16.9642 17.6738 16.9017 17.7364C16.8392 17.7989 16.7544 17.834 16.666 17.834H15.8327C15.7443 17.834 15.6595 17.7989 15.597 17.7364C15.5345 17.6738 15.4993 17.5891 15.4993 17.5007V15.834V15.334H14.9993H4.99935H4.49935V15.834V17.5007C4.49935 17.5891 4.46423 17.6738 4.40172 17.7364C4.33921 17.7989 4.25442 17.834 4.16602 17.834H3.33268C3.24427 17.834 3.15949 17.7989 3.09698 17.7364C3.03447 17.6738 2.99935 17.5891 2.99935 17.5007V15.6032V15.3157L2.75092 15.1711C2.39817 14.9657 2.16602 14.5932 2.16602 14.1673V10.0007C2.16602 9.77062 2.23402 9.54572 2.36147 9.35423C2.48893 9.16274 2.67015 9.01319 2.88235 8.9244L3.09187 8.83673L3.16369 8.62127L4.30369 5.20127L4.30386 5.20075C4.43611 4.80257 4.69047 4.45619 5.03082 4.21083L4.73842 3.80524L5.03082 4.21083C5.37116 3.96547 5.78017 3.83361 6.19974 3.83399H6.20018L13.7985 3.83399L13.799 3.83399C14.2185 3.83361 14.6275 3.96547 14.9679 4.21083C15.3082 4.45619 15.5626 4.80257 15.6948 5.20075L15.695 5.20127L16.835 8.62127ZM13.7985 3.33398H6.20018H13.7985ZM15.5102 8.83399H16.204L15.9845 8.17579L15.0631 5.41323C15.063 5.41307 15.063 5.41291 15.0629 5.41274C14.8812 4.86574 14.371 4.50065 13.7977 4.50065H6.2003C6.20026 4.50065 6.20022 4.50065 6.20018 4.50065C5.92027 4.50061 5.64745 4.58866 5.42037 4.75233C5.19328 4.91601 5.02346 5.147 4.93499 5.41258C4.93499 5.4126 4.93498 5.41263 4.93497 5.41265L4.01416 8.17591L3.79487 8.83399H4.48852H15.5102ZM3.34495 13.3209L3.68326 12.9828L3.34495 13.3209C3.50744 13.4835 3.70037 13.6125 3.9127 13.7005C4.12505 13.7886 4.35265 13.8339 4.58252 13.834C5.04675 13.8341 5.49204 13.6499 5.82042 13.3217C6.14879 12.9936 6.33336 12.5484 6.33352 12.0842C6.33367 11.6199 6.1494 11.1746 5.82124 10.8463C5.49309 10.5179 5.04792 10.3333 4.58368 10.3332C4.35381 10.3331 4.12618 10.3783 3.91378 10.4662C3.70138 10.5541 3.50838 10.6829 3.34578 10.8454C3.18318 11.0079 3.05419 11.2008 2.96615 11.4132C2.87811 11.6255 2.83276 11.8531 2.83268 12.083C2.83261 12.3129 2.87781 12.5405 2.9657 12.7529C3.0536 12.9653 3.18247 13.1583 3.34495 13.3209ZM14.746 13.7005C14.9584 13.7886 15.186 13.8339 15.4158 13.834C15.8801 13.8341 16.3254 13.6499 16.6538 13.3217C16.9821 12.9936 17.1667 12.5484 17.1668 12.0842C17.167 11.6199 16.9827 11.1746 16.6546 10.8462C16.3264 10.5179 15.8813 10.3333 15.417 10.3332C15.1871 10.3331 14.9595 10.3783 14.7471 10.4662C14.5347 10.5541 14.3417 10.6829 14.1791 10.8454C14.0165 11.0079 13.8875 11.2008 13.7995 11.4132C13.7114 11.6255 13.6661 11.8531 13.666 12.083C13.6659 12.3129 13.7111 12.5405 13.799 12.7529C13.8869 12.9653 14.0158 13.1583 14.1783 13.3209C14.3408 13.4835 14.5337 13.6125 14.746 13.7005Z" fill="#7A869A" stroke="#7A869A"/>
</svg>
