<svg width="20" height="20" viewBox="0 0 20 20" fill="none" xmlns="http://www.w3.org/2000/svg">
<rect width="20" height="20" fill="white" fill-opacity="0.01"/>
<path d="M1 4.58613C1 4.16546 1.15804 3.76202 1.43934 3.46457C1.72064 3.16711 2.10218 3 2.5 3H10.75C11.1478 3 11.5294 3.16711 11.8107 3.46457C12.092 3.76202 12.25 4.16546 12.25 4.58613V6.17225H10.75V4.58613H2.5V10.1376H7V11.7237H2.5V14.896H7V16.4821H5.0605L3.625 18L2.5645 16.8786L2.9395 16.4821H2.5C2.10218 16.4821 1.72064 16.315 1.43934 16.0175C1.15804 15.7201 1 15.3166 1 14.896V4.58613ZM9.49225 6.96532H17.2577L19 11.5706V17.6717H17.5V16.4821H9.25V17.6717H7.75V11.5706L9.49225 6.96532ZM9.25 14.896H17.5V11.8768L17.4422 11.7237H9.30775L9.25 11.8768V14.896ZM9.90775 10.1376H16.8422L16.2423 8.55144H10.5077L9.90775 10.1376ZM3.25 12.5168H4.753V14.1061H3.25V12.5168ZM10 12.5168H11.503V14.1061H10V12.5168ZM15.25 12.5168H16.753V14.1061H15.25V12.5168Z" fill="#7A869A"/>
</svg>
